<svg xmlns="http://www.w3.org/2000/svg" xmlns:xlink="http://www.w3.org/1999/xlink" viewBox="0 0 1893 1739.73"><defs><style>.cls-1{fill:none;}.cls-2{fill:#d7c08e;}.cls-3{fill:url(#New_Pattern_Swatch_3);}</style><pattern id="New_Pattern_Swatch_3" data-name="New Pattern Swatch 3" width="29.49" height="30" patternTransform="matrix(1.63, 0, 0, -1.63, -56.05, 621.52)" patternUnits="userSpaceOnUse" viewBox="0 0 29.49 30"><rect class="cls-1" width="29.49" height="30"/><rect class="cls-1" width="29.49" height="30"/><rect class="cls-2" width="29.49" height="30"/></pattern></defs><g id="Layer_2" data-name="Layer 2"><g id="Layer_1-2" data-name="Layer 1"><polygon class="cls-3" points="1715.73 81.82 1712.73 81.82 1712.73 180.27 1815.46 180.27 1815.46 177.27 1715.73 177.27 1715.73 81.82"/><polygon class="cls-3" points="177.27 1665 180.27 1665 180.27 1559.46 85.19 1559.46 85.19 1562.46 177.27 1562.46 177.27 1665"/><polygon class="cls-3" points="180.27 81.82 177.27 81.82 177.27 177.27 85.19 177.27 85.19 180.27 180.27 180.27 180.27 81.82"/><polygon class="cls-3" points="1712.73 1665 1715.73 1665 1715.73 1562.46 1815.46 1562.46 1815.46 1559.46 1712.73 1559.46 1712.73 1665"/><polygon class="cls-3" points="1816.46 177.27 1816.46 180.27 1890 180.27 1890 747.48 1890 1559.46 1816.46 1559.46 1816.46 1562.46 1893 1562.46 1893 747.48 1893 177.27 1816.46 177.27"/><polygon class="cls-3" points="1712.73 1736.73 180.27 1736.73 180.27 1666 177.27 1666 177.27 1739.73 1715.73 1739.73 1715.73 1666 1712.73 1666 1712.73 1736.73"/><polygon class="cls-3" points="180.27 3 1712.73 3 1712.73 80.82 1715.73 80.82 1715.73 0 177.27 0 177.27 80.82 180.27 80.82 180.27 3"/><polygon class="cls-3" points="0 747.48 0 1562.46 84.19 1562.46 84.19 1559.46 3 1559.46 3 747.48 3 180.27 84.19 180.27 84.19 177.27 0 177.27 0 747.48"/></g></g></svg>