<svg xmlns="http://www.w3.org/2000/svg" viewBox="0 0 1149.62 453.84"><g id="Layer_2" data-name="Layer 2"><g id="Layer_1-2" data-name="Layer 1"><path d="M244.71,2q-2.82,7.34-7.61,21.28t-9,36.22h-5.64a74.73,74.73,0,0,0,1.27-8.18c.28-2.81.42-5.35.42-7.6a38.89,38.89,0,0,0-4.65-19.31,32.23,32.23,0,0,0-13.53-13q-8.88-4.65-22.12-4.65-14.1,0-24.1,7.19t-10,23.53a40.47,40.47,0,0,0,4.8,19,96.2,96.2,0,0,0,12.26,17.9q7.46,8.73,15.92,17.61t16.06,18a91.14,91.14,0,0,1,12.41,19.3A50.28,50.28,0,0,1,216,151.07q0,15.21-7.47,25.93a58.64,58.64,0,0,1-19.31,17.47,92.14,92.14,0,0,1-25.36,9.86,114.79,114.79,0,0,1-25.65,3.1,116.13,116.13,0,0,1-21.84-1.69,62,62,0,0,1-14.8-4.65,127.55,127.55,0,0,1-12.12-6.62,44,44,0,0,0-5.64-3.1,11,11,0,0,0-4.22-1.13,6.84,6.84,0,0,0-5.92,3.38,82.8,82.8,0,0,0-5.92,11.84H62.08q2.54-6.19,5.36-14.37t6.2-21q3.38-12.83,7.61-32.27h5.63a65.46,65.46,0,0,0-2.11,10.85,67.74,67.74,0,0,0-.42,11.41q.84,20,12.54,30.58t33.4,10.57q19.16,0,27.76-7.89t8.6-21.7a53,53,0,0,0-4.37-21.7A86.1,86.1,0,0,0,151,131.34q-6.9-8.73-14.51-17T122,97.23a79.8,79.8,0,0,1-11.13-18.88,56.53,56.53,0,0,1-4.23-22q0-14.37,6.2-24.95a54.16,54.16,0,0,1,16.63-17.61A77.28,77.28,0,0,1,152,3.38,89,89,0,0,1,176,0Q192.57,0,203,4.09a117.71,117.71,0,0,1,17.48,8.31,57.18,57.18,0,0,0,5.21,3.1,9.86,9.86,0,0,0,4.09,1.41q3.94,0,9.3-14.94Z"/><path d="M298.54,173.61q-2.54,10.15-2.25,15.22a7,7,0,0,0,4.79,6.77c3,1.12,7.7,1.88,14.09,2.25L314,203.49q-8.18-.57-20.71-.71t-25.23-.14q-13.52,0-25.22.14t-19,.71l1.41-5.64a61.22,61.22,0,0,0,14.51-2.25,15.05,15.05,0,0,0,8.31-6.77q3.1-5.07,5.64-15.22l37.2-139.79q2.82-10.42,2.26-15.36a7.77,7.77,0,0,0-4.93-6.76q-4.38-1.83-13.95-2.12L275.71,4q7.05.28,18.89.56T320,4.79q12.69,0,25-.28T366.19,4l-1.41,5.63q-9.58.28-14.94,2.12a15.21,15.21,0,0,0-8.32,6.76q-3,4.93-5.77,15.36Z"/><path d="M557.27,4.79h22q12.69,0,24.52-.28T624.63,4l-1.41,5.63q-9.59.28-14.94,2.12A15.16,15.16,0,0,0,600,18.46q-3,4.93-5.78,15.36L557,173.61q-2.54,10.15-2.11,15.22a7.28,7.28,0,0,0,4.93,6.77c3,1.12,7.61,1.88,13.81,2.25l-1.13,5.64q-9-.57-20.71-.71t-24.38-.14q-13.53,0-25.79.14t-19.31.71l1.13-5.64c6.57-.37,11.6-1.13,15.08-2.25a15.05,15.05,0,0,0,8.31-6.77q3.1-5.07,5.64-15.22L553.33,21.7l-117,183.2h-6.2l-22.83-173L371.82,167.13a60.84,60.84,0,0,0-2.11,15.78,12.67,12.67,0,0,0,5.35,10.57q5.22,3.81,17.9,4.37l-1.13,5.64q-3.37-.28-9-.43l-11.69-.28c-4.05-.09-7.66-.14-10.85-.14q-7.33,0-14.66.14t-12.12.71l1.41-5.64q9.87-.56,15.64-4.37a26.48,26.48,0,0,0,9.16-10.57,77.09,77.09,0,0,0,5.64-15.78L401.13,33.82Q404,23.4,403.39,18.46a7.77,7.77,0,0,0-4.93-6.76q-4.38-1.83-14-2.12L385.91,4q6.48.28,16.77.56t21.85.28q6.75,0,13.52-.28T449.89,4L466,148Z"/><path d="M668.6,123.45l1.41-5.64h12.68q18.6,0,31.42-6.91a57.67,57.67,0,0,0,20.58-18.17,76,76,0,0,0,11.13-25A114.22,114.22,0,0,0,749.2,40.3q0-14.92-6.34-22.83t-21-7.89q-5.64,0-8.73,2t-4.93,7.18q-1.85,5.22-4.37,15.08L666.62,173.61a59.92,59.92,0,0,0-2,13.39,8.42,8.42,0,0,0,4.23,7.75q4.23,2.53,14.37,3.1l-1.12,5.64q-8.46-.57-19.73-.71t-23.68-.14q-14.1,0-26.77.14t-20,.71l1.12-5.64A64.57,64.57,0,0,0,608,195.6a15,15,0,0,0,8.46-6.77q3.09-5.07,5.63-15.22L659.3,33.82a67,67,0,0,0,2-13.81,8.45,8.45,0,0,0-3.95-7.61q-3.95-2.53-14.65-2.82L644.08,4q7,.28,19.73.56t25.08.28q10.14,0,20.43-.28T730,4.23q33.81,0,50,11t16.21,31.57q0,22-14.66,39.31t-40.86,27.34q-26.22,10-60.88,10Z"/><path d="M943.39,144.3q-1.7,4.51-3.39,10.43t-3.38,12.68q-1.41,5.35-3.66,15.36t-4,20.72q-14.37-.57-32.13-.71T865,202.64H847.14q-10.86,0-23.82.14l-25.93.28q-13,.15-24.52.43l1.41-5.64a64.57,64.57,0,0,0,14.94-2.25,14.42,14.42,0,0,0,8.31-6.77q3-5.07,5.78-15.22l37.2-139.79q2.82-10.42,2.26-15.36a7.77,7.77,0,0,0-4.93-6.76q-4.38-1.83-14-2.12L825.3,4q7.32.28,19.86.56t26.64.28q12.39,0,24-.28t20-.56l-1.41,5.63q-9.58.28-14.94,2.12A15.83,15.83,0,0,0,891,18.46q-3.11,4.93-5.91,15.36L847.84,173.61q-2.54,10.15-2.25,15.22t4.65,6.63q4.37,1.54,14,1.55h11.27a56.82,56.82,0,0,0,23.82-5.08q11.13-5.07,20.71-16.63t17.2-31Z"/><path d="M1124,54.68q1.13-16.63-1.4-26.36t-9.73-13.81q-7.19-4.08-19.87-4.08h-8.73q-9.32,0-14.52,1.55a13.92,13.92,0,0,0-8.17,6.48q-3,4.93-5.78,15.36l-37.2,139.79q-2.82,10.15-2.4,15.22t4.79,6.63q4.37,1.54,13.67,1.55h10.43q15.22,0,25.65-4.8t18.74-15.64q8.31-10.84,16.49-29.45h6.48q-1.41,3.66-3.1,9t-3.1,11.27q-1.41,5.35-3.67,15.36T1099,203.49q-14.37-.57-32.13-.71t-31.85-.14h-17.89q-10.86,0-23.54.14l-25.65.28q-13,.15-24.51.43l1.4-5.64a64.57,64.57,0,0,0,14.94-2.25,14.47,14.47,0,0,0,8.32-6.77q3-5.07,5.77-15.22L1011,33.82q2.81-10.42,2.25-15.36a7.77,7.77,0,0,0-4.93-6.76q-4.38-1.83-14-2.12L995.81,4q11.55.28,24.52.42l25.65.28q12.68.15,23.53.14h17.89q12.69,0,28.61-.14t28.61-.7q-3.67,9.86-6.2,17.75t-4.51,15.5c-.76,3.38-1.46,6.58-2.12,9.59s-1.17,5.63-1.55,7.89ZM1018.92,106l1.41-5.64h55.8l-1.41,5.64Zm29.59-5.64a31,31,0,0,0,14.09-3.1,37,37,0,0,0,10.85-8.17,61.11,61.11,0,0,0,8-11,93.27,93.27,0,0,0,5.63-11.56h6.49q-4.52,13-6.49,20.72t-3.94,15.92c-1,3.39-1.79,6.67-2.54,9.87s-1.55,6.81-2.4,10.85-1.92,9.35-3.24,15.92h-6.2a95.17,95.17,0,0,0-.14-11.55,32.31,32.31,0,0,0-2.68-11,18.29,18.29,0,0,0-7.18-8.18q-4.93-3.09-13.39-3.1Z"/><path d="M223.78,300.8A136.32,136.32,0,0,1,218.43,338a128.87,128.87,0,0,1-16.49,35.79,133.73,133.73,0,0,1-27.62,30.3,127,127,0,0,1-38.9,21.14Q113,433,84.83,433q-4.5,0-10.85-.29t-14.23-.42q-7.89-.13-17.47-.14c-4.33,0-9.16.05-14.52.14l-15.5.28Q4.79,432.71,0,433l.85-5.64a60.19,60.19,0,0,0,14.23-2.25,15.05,15.05,0,0,0,8.31-6.77q3.11-5.07,5.64-15.22L66,263.32a47.62,47.62,0,0,0,2.11-13.39,8.8,8.8,0,0,0-4.22-7.75q-4.1-2.53-14.24-3.1l.85-5.64q5.07.28,13,.57t16.77.28H96.67c3.38-.18,7.7-.33,13-.42l15.78-.28q7.89-.15,13.25-.15,40.86,0,63,16.91T223.78,300.8ZM84.83,427.91A68.7,68.7,0,0,0,117.67,420a86.24,86.24,0,0,0,26.07-21.56,130.48,130.48,0,0,0,18.88-31.14,185.09,185.09,0,0,0,11.56-36.78,193.09,193.09,0,0,0,3.94-38.75q0-25.93-10.71-39.6t-34.95-13.67c-4.69,0-8.27.61-10.71,1.83s-4.41,3.52-5.91,6.9a114.49,114.49,0,0,0-5.08,15.51L73.84,403.68A111.71,111.71,0,0,0,71,418.05q-.55,5.35,2.4,7.61C75.39,427.17,79.2,427.91,84.83,427.91Z"/><path d="M396.55,284.18q1.13-16.64-1.41-26.36T385.41,244q-7.19-4.08-19.87-4.08h-8.73q-9.3,0-14.52,1.55a13.88,13.88,0,0,0-8.17,6.48q-3,4.93-5.78,15.36l-37.2,139.79q-2.82,10.15-2.4,15.22t4.79,6.62q4.38,1.56,13.67,1.55h10.43q15.22,0,25.65-4.79T362,406.07q8.31-10.85,16.49-29.45H385q-1.41,3.66-3.1,9t-3.1,11.27q-1.41,5.35-3.66,15.36T371.46,433q-14.37-.57-32.13-.71t-31.84-.14h-17.9q-10.86,0-23.53.14l-25.65.28q-13,.15-24.52.43l1.41-5.64a64.47,64.47,0,0,0,14.93-2.25,14.43,14.43,0,0,0,8.32-6.77q3-5.07,5.78-15.22l37.2-139.79q2.82-10.42,2.25-15.36a7.74,7.74,0,0,0-4.93-6.76q-4.37-1.83-14-2.12l1.41-5.64q11.55.28,24.52.43l25.65.28q12.67.15,23.53.14h17.9q12.68,0,28.6-.14t28.61-.71q-3.66,9.87-6.2,17.76t-4.51,15.5c-.75,3.38-1.46,6.58-2.11,9.58s-1.18,5.64-1.55,7.9ZM291.42,335.47l1.41-5.64h55.8l-1.41,5.64ZM321,329.83a31.1,31.1,0,0,0,14.1-3.1A37,37,0,0,0,346,318.56a61.41,61.41,0,0,0,8-11A94.83,94.83,0,0,0,359.63,296h6.48q-4.51,13-6.48,20.72t-3.95,15.92q-1.41,5.07-2.54,9.87t-2.39,10.85q-1.28,6.06-3.24,15.92h-6.2a97.22,97.22,0,0,0-.14-11.55,32.9,32.9,0,0,0-2.68-11,18.34,18.34,0,0,0-7.19-8.17q-4.94-3.09-13.39-3.1Z"/><path d="M579.18,231.47q-2.82,7.34-7.61,21.28t-9,36.22h-5.64a74.73,74.73,0,0,0,1.27-8.18q.42-4.21.42-7.61a38.88,38.88,0,0,0-4.65-19.3,32.23,32.23,0,0,0-13.53-13q-8.88-4.65-22.12-4.65-14.1,0-24.1,7.19T484.2,267A40.49,40.49,0,0,0,489,286a95.81,95.81,0,0,0,12.26,17.89q7.46,8.75,15.92,17.62t16.07,18a91.48,91.48,0,0,1,12.4,19.3,50.27,50.27,0,0,1,4.79,21.7q0,15.22-7.47,25.93A58.46,58.46,0,0,1,523.65,424a92.14,92.14,0,0,1-25.36,9.86,114.79,114.79,0,0,1-25.65,3.1,116.13,116.13,0,0,1-21.84-1.69,62.48,62.48,0,0,1-14.8-4.65A127.55,127.55,0,0,1,423.88,424a44.65,44.65,0,0,0-5.63-3.1,11,11,0,0,0-4.23-1.13,6.84,6.84,0,0,0-5.92,3.38A82.8,82.8,0,0,0,402.18,435h-5.64q2.55-6.19,5.36-14.37t6.2-21q3.38-12.82,7.61-32.27h5.64a64.4,64.4,0,0,0-2.12,10.85,67.74,67.74,0,0,0-.42,11.41q.84,20,12.54,30.58t33.4,10.57q19.15,0,27.76-7.89t8.6-21.7a53,53,0,0,0-4.37-21.7,86.1,86.1,0,0,0-11.28-18.6q-6.9-8.74-14.51-17.06t-14.51-17a79.7,79.7,0,0,1-11.14-18.88,56.52,56.52,0,0,1-4.22-22q0-14.39,6.2-24.95a54.13,54.13,0,0,1,16.62-17.61,77,77,0,0,1,22.55-10.43,89,89,0,0,1,24-3.38q16.62,0,27.05,4.09a117.71,117.71,0,0,1,17.48,8.31,57.18,57.18,0,0,0,5.21,3.1,10,10,0,0,0,4.09,1.41q3.94,0,9.3-14.94Z"/><path d="M633,403.11q-2.54,10.15-2.25,15.22a7,7,0,0,0,4.79,6.77c3,1.12,7.7,1.88,14.09,2.25L648.51,433q-8.18-.57-20.72-.71t-25.22-.14q-13.53,0-25.23.14t-19,.71l1.41-5.64a61.22,61.22,0,0,0,14.51-2.25,15,15,0,0,0,8.32-6.77q3.09-5.07,5.63-15.22L625.4,263.32q2.8-10.42,2.25-15.36a7.76,7.76,0,0,0-4.93-6.76q-4.38-1.83-14-2.12l1.41-5.64q7,.28,18.88.57t25.36.28q12.69,0,25-.28t21.28-.57l-1.41,5.64q-9.59.28-14.94,2.12A15.17,15.17,0,0,0,676,248q-3,4.93-5.77,15.36Z"/><path d="M774.21,431.3a42.41,42.41,0,0,0,12-1.7,37.15,37.15,0,0,0,9.72-4.22,20.63,20.63,0,0,0,7.33-8,67.51,67.51,0,0,0,4.23-12.55L814,380q3.09-11.55,2.39-17.19a8.74,8.74,0,0,0-6.2-7.61q-5.49-2-17.33-2.26l1.41-5.63q5.91.29,14.23.42l17.2.28q8.86.15,16.48.14,12.4,0,22.83-.28t16.91-.56l-1.41,5.63a25.59,25.59,0,0,0-9.72,2q-3.53,1.68-5.92,6.76a98.72,98.72,0,0,0-5.21,15.5L844.67,433H839c.38-4.89,0-8.78-1.27-11.7a6.63,6.63,0,0,0-6.62-4.37,26.1,26.1,0,0,0-11.41,3q-6.08,3-12.26,6.06a102,102,0,0,1-20.58,8.32,77.34,77.34,0,0,1-20.29,2.67q-36.65,0-57.07-16.91t-20.44-47.63a129.5,129.5,0,0,1,6.34-39.17,167.4,167.4,0,0,1,18-38.62,150.1,150.1,0,0,1,28.47-33.25,135.45,135.45,0,0,1,37.48-23.25,116.17,116.17,0,0,1,45-8.6q18.32,0,28.32,5.35a80.46,80.46,0,0,1,17.9,13q4.23,4.23,7.89,1.41t8.17-15.79h6.2q-4.22,11-8.73,26.64t-9.31,38.19h-6.19c.37-3.76.7-7.37,1-10.85s.42-6.91.42-10.29a77,77,0,0,0-.7-10.85,29.64,29.64,0,0,0-3.24-9.72,37.68,37.68,0,0,0-16.77-16.35q-11.13-5.64-26.63-5.64a52.61,52.61,0,0,0-31.43,10,99,99,0,0,0-24.8,26.49,174.56,174.56,0,0,0-18,36.08,243.54,243.54,0,0,0-10.85,39.17,194.36,194.36,0,0,0-3.66,35.37q0,25.37,10,37.49T774.21,431.3Z"/><path d="M892.58,448.49a23.29,23.29,0,0,0,13.53-4.09,35.2,35.2,0,0,0,10.14-11.13q8.18-13,16.49-40.59t16.91-66.79q8.6-39.18,17.34-86l4.79,5.92q-4.51,23.1-9.44,46.92t-10,46.5Q947.26,362,941.9,381.41t-10.71,33.68q-5.36,14.24-10.43,21a67.31,67.31,0,0,1-12,12.26q-6.91,5.49-18.18,5.49-12.69,0-19.59-7a23.32,23.32,0,0,1-6.9-16.91,25,25,0,0,1,25.64-25.65q9.59,0,14.52,4.65a15.75,15.75,0,0,1,4.93,12A24.38,24.38,0,0,1,903,437.5a33.11,33.11,0,0,1-15.22,9.86,6.42,6.42,0,0,0,2,.85A12.28,12.28,0,0,0,892.58,448.49Zm142.05-14.09L963,277.69c0-3,0-5.4-.14-7.18s-.24-4.18-.42-7.19Q964.73,252.9,964,248a8.05,8.05,0,0,0-5.64-6.76q-4.93-1.83-15.92-2.12l1.41-5.64q4.5.28,11.13.57t14,.28q13.24,0,22.83-.85l59.75,137q-1.69,9.3-3,16.49t-2.4,15.5q-1.12,8.31-2.39,15.5t-3,16.49Zm86.52-208.57a22.2,22.2,0,0,0-13.24,4.23,43.44,43.44,0,0,0-10.43,10.71q-13,19.17-26.5,67.36T1040.83,434.4l-3.95-7.9q4.23-18.87,9-40.72T1056.19,342q5.49-22,11.27-42T1079.58,264q6.35-15.91,12.82-25.5a53,53,0,0,1,12.69-12.83q7.32-5.2,17.75-5.21,13,0,19.87,7.05a23.32,23.32,0,0,1,6.91,16.91,25.22,25.22,0,0,1-7.19,18.17q-7.18,7.49-18.46,7.47-9.3,0-14.37-4.65a15.52,15.52,0,0,1-5.08-12,24.84,24.84,0,0,1,6.21-16.76,30.62,30.62,0,0,1,14.93-9.73,3.81,3.81,0,0,0-1.83-.84A12.23,12.23,0,0,0,1121.15,225.83Z"/></g></g></svg>