<?xml version="1.0" encoding="utf-8"?>
<!-- Generator: Adobe Illustrator 16.0.0, SVG Export Plug-In . SVG Version: 6.00 Build 0)  -->
<!DOCTYPE svg PUBLIC "-//W3C//DTD SVG 1.1//EN" "http://www.w3.org/Graphics/SVG/1.1/DTD/svg11.dtd">
<svg version="1.1" id="Layer_1" xmlns="http://www.w3.org/2000/svg" xmlns:xlink="http://www.w3.org/1999/xlink" x="0px" y="0px"
	 width="64px" height="64px" viewBox="0 0 64 64" enable-background="new 0 0 64 64" xml:space="preserve">
<g>
	<circle fill="#bbbbbb" cx="32.28" cy="32.282" r="30.72"/>
</g>
<path fill="#FFFFFF" d="M38.889,19.209l-3.854-0.086c-1.516-0.029-2.98,0.538-4.076,1.608c-1.095,1.072-1.698,2.505-1.698,4.038
	v3.655h-3.582c-0.147,0-0.267,0.12-0.267,0.267v4.593c0,0.147,0.12,0.266,0.267,0.266h3.582v11.623c0,0.146,0.119,0.266,0.266,0.266
	h4.743c0.146,0,0.268-0.119,0.268-0.266V33.551h3.609c0.133,0,0.248-0.1,0.266-0.23l0.596-4.594c0.01-0.076-0.014-0.153-0.064-0.211
	c-0.051-0.058-0.125-0.09-0.201-0.09h-4.205l-0.002-2.322c-0.002-0.011-0.096-1.131,0.488-1.772
	c0.271-0.298,0.645-0.442,1.135-0.442h2.723c0.148,0,0.268-0.119,0.268-0.267v-4.146C39.148,19.332,39.033,19.212,38.889,19.209z"/>
</svg>
