<svg xmlns="http://www.w3.org/2000/svg" viewBox="0 0 384.36 207.3"><defs><style>.cls-1{fill:#443d2e;}.cls-2{fill:#d7c08e;}.cls-3{fill:#f2f2f2;}</style></defs><g id="Layer_2" data-name="Layer 2"><g id="Layer_2-2" data-name="Layer 2"><path class="cls-1" d="M10.33,109.84h0v-6.75l13.57.79,7.67-2.69,51.85-2.57,26.2,2,10.58,5.82,2.11-10.08,35.3,5-.65,2.12L382,109.74v11.51s-66,31.61-213.18,2.66h0s-32.58-8.82-36.11-8.84c-1.11,0-3.39.92-6.91,2.25-4.26,2.61-9.45,10.88-12.35,13.84-2.52,2.57-8.6,2.17-11.67,2.42-7.81.66-15.67.79-23.5.85-17.66.11-35.37-.32-53-1.56a119.32,119.32,0,0,1-14.45-1.58.61.61,0,0,1-.46-.25c-.07-.12-.07-5.11-.07-5.26C10.36,120.47,10.33,115.15,10.33,109.84Z"/><path class="cls-2" d="M215.19,46.62c-15.76-6.74-24.82-13-38.76-22.23C168.52,19.16,162.5,12,155.84,5.61c-1.08-1.05-1.43-1.5-2.56-2.5-1.54-1.35-2.52-3.54-5.12-3a8.9,8.9,0,0,0-3,1.42c-7.45,4.81-14.75,10.28-22.78,14.24-3.94,1.95-8,3.77-12.07,5.39-3.43,1.35-8.82,4.24-12.59,4.24A87.16,87.16,0,0,1,69.87,28.8c-1.14-.06-2.29-.15-3.42-.28s-2.21-.43-3.27-.43c-37.66-6-49.1-9.56-49.1-9.56S3.32,38.15,3.32,45s-14.52,60,17.15,63c0,0,53,8.27,115.41,0,0,0,147.94,30.91,243.92,4.49,0,0,7.45-14.62,3.31-17.64-8.41-6.14-19.57-10.12-29.5-13.56-23-8-47.61-13.56-72.18-13.94-7.75-.12-13.51.55-20.87-2.26-6.89-2.64-16.5-8.81-23.46-11.15s-14.19-4-21.07-6.9Z"/><path class="cls-3" d="M156.48,16.4a24,24,0,0,0,5-5c2.39-3.27,8,.07,5.6,3.35a30,30,0,0,1-6.08,6.2,3.66,3.66,0,0,1-4.73-.22A2.91,2.91,0,0,1,156.48,16.4Z"/><path class="cls-3" d="M167.47,29.14a27,27,0,0,0,4.92-6.52,3.54,3.54,0,0,1,4.23-1.93c1.55.47,2.91,2.37,2.12,3.86A36.17,36.17,0,0,1,172,33.68a3.61,3.61,0,0,1-4.73-.22A2.93,2.93,0,0,1,167.47,29.14Z"/><path class="cls-3" d="M180.12,36.86A26.7,26.7,0,0,0,185,30.34a3.53,3.53,0,0,1,4.23-1.93c1.55.46,2.91,2.36,2.12,3.86a36.35,36.35,0,0,1-6.79,9.13,3.61,3.61,0,0,1-4.73-.23A2.92,2.92,0,0,1,180.12,36.86Z"/><path class="cls-3" d="M192.77,44.57a26.7,26.7,0,0,0,4.92-6.52,3.54,3.54,0,0,1,4.23-1.93c1.55.47,2.91,2.37,2.12,3.87a36.3,36.3,0,0,1-6.79,9.12,3.61,3.61,0,0,1-4.73-.22A2.93,2.93,0,0,1,192.77,44.57Z"/><path class="cls-3" d="M205.42,52.29a26.7,26.7,0,0,0,4.92-6.52,3.54,3.54,0,0,1,4.24-1.93c1.54.46,2.91,2.36,2.11,3.86a36.35,36.35,0,0,1-6.79,9.13,3.61,3.61,0,0,1-4.73-.23A2.92,2.92,0,0,1,205.42,52.29Z"/><rect class="cls-2" x="10.33" y="142.87" width="371.7" height="13.59" transform="translate(392.36 299.33) rotate(-180)"/><rect class="cls-2" x="10.33" y="168.29" width="371.7" height="13.59" transform="translate(392.36 350.17) rotate(-180)"/><rect class="cls-2" x="10.33" y="193.71" width="371.7" height="13.59" transform="translate(392.36 401) rotate(-180)"/></g></g></svg>