<svg xmlns="http://www.w3.org/2000/svg" xmlns:xlink="http://www.w3.org/1999/xlink" viewBox="0 0 203.94 109.91"><defs><style>.cls-1{fill:none;}.cls-2{fill:#d7c08e;}.cls-3{fill:url(#New_Pattern_Swatch_1);}</style><pattern id="New_Pattern_Swatch_1" data-name="New Pattern Swatch 1" width="29.49" height="30" patternTransform="translate(4.3 -14.8)" patternUnits="userSpaceOnUse" viewBox="0 0 29.49 30"><rect class="cls-1" width="29.49" height="30"/><rect class="cls-2" width="29.49" height="30"/></pattern></defs><g id="Layer_2" data-name="Layer 2"><g id="Layer_1-2" data-name="Layer 1"><path d="M133.05,100c-1.79.85-3.53,1.81-5.37,2.52-4.92,1.88-9.75,4.37-14.86,5.28a123.16,123.16,0,0,1-23,2.07c-12.74-.15-25.5-1-38.22-1.93A154.7,154.7,0,0,1,7.87,98.46C-1.38,94.94.13,96.7,0,85.71c0-.8.38-2.13.89-2.31,2.86-1,2.6-3.68,3.71-5.68,1.78-3.18,3.9-6.49,6.72-8.65s6.82-3.46,10.42-4.76C29.51,61.5,37.54,59.42,45,56.09c5.47-2.43,10.51-6.06,15.3-9.73C64.76,43,68.62,38.85,72.69,35a3.66,3.66,0,0,0,.69-1.46c1.4-4,3.35-5.35,7.53-5.52.74,0,2.07-.5,2.11-.88.53-4.45,3.7-4.57,7-4.52h0a18.68,18.68,0,0,0,1.46-3.36c.47-2.07,1.29-3.38,3.7-3.36,3.84,0,5.22-1.19,5.86-5,.3-1.77,1.1-2.36,3-2.81A25.61,25.61,0,0,0,113,4.47c4.5-3.26,10.15-4.35,14.75-1.2a41.37,41.37,0,0,1,7.47,7.32c1.22,1.42,2.12,1.81,3.88,1.14,7.21-2.71,14.47-5.32,21.73-7.91C168.84.94,177.06-1,185.7.56c4.34.8,6.44,3.22,7,7.55.28,2.07.72,4.12,1.11,6.17,2.15,11.32,6.07,22.35,5.55,34.13-.05,1,1.14,2.11,1.75,3.18.91,1.62,2.46,3.18,2.6,4.86.37,4.6.06,9.25.19,13.88a4.63,4.63,0,0,1-3.14,4.84c-5.64,2.48-11.15,5.28-16.87,7.56-7.25,2.89-14.57,6.06-22.54,2.07a3.1,3.1,0,0,0-2.51.13c-6,3.43-11.95,7-17.91,10.48h0l-8,4.65ZM101.93,24.64c-.93,4.48,3.14,3.93,5.32,5.28l0,0c1.36.94,3,1.66,4,2.89.7.88.55,2.45.78,3.71-1.24,0-2.72.55-3.68.06-2.53-1.28-4.73-3.21-7.27-4.45-.93-.46-2.45.26-3.7.44h0a5.73,5.73,0,0,0,1,1.71c1.78,1.42,3.67,2.69,5.49,4.06,3.32,2.5,3.36,2.93.77,6.14h0c-2.52-1.69-5.13-3.25-7.53-5.1-2.1-1.62-3.15-1-3.62,1.28-.68,3.31.73,5.9,3,8.21,1.49,1.53,2.8,3.24,4.19,4.86l-3.3-1.3L96,51.07l-.66-.65-.66-.67c-.66-.88-1.33-1.75-2-2.63-.24-1.07-.49-2.13-.73-3.19l-.66.24L92.7,47.1l2,2.67.66.66.66.65,1.34,1.32c3.31,3.67,6.58,7.38,10,11,.46.47,1.68.21,2.55.3h0l-1.32-2c2-1.13,4-2.3,6-3.35a27.72,27.72,0,0,1,3.25-1.27v1.29l-1.33.66,0,0,1.32-.67,1.32-.67c3.16-1.24,6.35-2.43,9.48-3.75a43.3,43.3,0,0,1,20.79-3.7c-6.08-2.25-11.84-.74-17.56,1.32a30.25,30.25,0,0,1-3.44.83l3.31-2.64v0c9.14-3.41,18.09-2.32,26.88,1.29a16.17,16.17,0,0,1,2.88,2l-1.32.67-1.32-.66-.65-.67-1.27-.5-.1.36,1.36.15.67.65,1.33.66,1.32.66,2,1.32,2,2,.66.66.67.67,1.32,2,.67,1.32.66,2,.14.85-.16-.83-.66-2,.67-1.31a30.79,30.79,0,0,1,1.84,4.32c.4,1.53.92,1.94,2.51,1.38,3.31-1.16,5.65-2.6,5.75-6.83.18-7.45,1.15-14.88,1.55-22.33a34.52,34.52,0,0,1,9.43-21.94,8.24,8.24,0,0,0,1.06-2.53l-2.12.44c-.11-.11-.23-.23-.34-.36.83-1.79,1.67-3.58,2.5-5.36-4.63,9.53-21.37,17-37.4,16.15l-1.33-.66L150.24,22l-1.33-.66-1.31-.67L146.26,20l-2.63-1.33L142.3,18,141,17.35,138.34,16l-6-3.29-2-.67-.22-.2.24.19,2,.66L138.33,16,141,17.33l1.32.66,1.33.67L146.28,20l1.32.66c0,.44,0,.87,0,1.31l-5.28-1.31h0c-6-4.21-12.42-7.59-19.65-9.21-1-.22-1.89-.48-2.84-.72h0c-.94,1-1.46,1.88.5,2.47a16.32,16.32,0,0,1,4.78,2.11c.85.6,1.11,2,1.64,3.07-1.2.44-2.47,1.37-3.58,1.21a15.27,15.27,0,0,1-4.83-2c-2.71-1.49-5.45-2.17-8.43-.94l-.24-.19.22.21a2.15,2.15,0,0,1-.17.64c-.67,1.1-1.38,2.19-2.07,3.29,1.23.46,2.46.9,3.68,1.38a56.58,56.58,0,0,1,7.6,3.17c.91.53,1.08,2.36,1.58,3.59-1.33.23-2.8.95-4,.61C111.61,28,106.8,26.22,102,24.61h-.67C101.5,24.61,101.72,24.62,101.93,24.64Zm90-8-.66.67-2,2.64-2,2.64L186.64,24l0,0,.67-1.3,2-2.66,2-2.64.67-.67ZM119.16,96.07h0Zm-98.57-4h0Zm-7.28-2.65h0c0,.22,0,.43,0,.65h0Zm119.73,0h0Zm23.17-13.23h0ZM107.92,9.39l0,0Zm66.14,59.55h0Zm-59.55-8.6h0Zm70.63-34.18.18-.21,0,0ZM17.49,92.26l-.18-.18c0-.09-.1-.19-.14-.28l.12.31Zm118.87-4.8h0a2.82,2.82,0,0,1,0,.65l0,0ZM6,86.15l.25.19L6,86.14Zm-2-1.33-.26-.21.24.22Zm138.23,0,0,0,1.33-.66,0,0Zm18.17-11.32-.3.09-.29.12.3-.11Zm10-3.79.29-.09h0Zm10.88-3.39-.1-.28.11.27ZM101.4,98.44c-.08,0-.18-.06-.24,0s-.35.2-.53.31l-.19.23.18-.24Zm90.52-36.77h0l.68-1.31,1.31-.67h1.32l.1.28-.11-.28c1-.63,2.05-1.21,3-1.91,1.51-1.1,3-2.26,2.94-3.37l-7.27,5.28-1.32.66Zm-91.3-46.33L98.24,16.7l1.05.92,1.35-2.26,2-2h0ZM93,37.62l-.38-.18c-.18.58-.37,1.15-.55,1.73l-.52,1.28.29.09L92,39.18Zm74.49,33.31.27-.12-.28.12-2,.65-.27.1.29-.08ZM69.53,98.72l-2.91-.6-.07.45,3,.14Zm6.63-61.54,3.7-3.94-.46-.76L68.55,39.66l.22.34,4.07-.83h0l3.29-2c-.44.66-.88,1.32-1.33,2l0,0,3.3-2,1.12-.57-.15-.24-1,.83ZM91.39,23.65l.5.63L94,22l0,0ZM182.5,38.23l.81.05V33.22l.65-1.78-.41-.08-.22,1.87C183.05,34.89,182.77,36.56,182.5,38.23ZM101.34,18.82,102,20l3.23-2.7h0ZM89.91,26.87c-1-3-1.79-3.3-4.49-1.59h0Zm19.3,6.34-6.6-3.3c-4.5-3.06-9-1.83-13.48-.21l12.82.87c2,1.39,4,2.85,6.15,4.15.49.3,1.29.07,2,.09l-.81-1.58ZM98.83,39c1.46,1.06,3.34,1.54,5,2.29-1.26-1.36-2.32-3-3.83-4-3.84-2.51-7.59-5.51-12.52-5.39-1.37,0-2.72.9-4.08,1.39l-.27.09.27-.09C89.46,32.72,94.2,35.59,98.83,39ZM117.64,9.25a56.2,56.2,0,0,1,10,.27,37.22,37.22,0,0,1,5.57,1.34c-4.12-7-10.21-9.34-16.75-6.75h0l-7.28,7.29h0C112,10.64,114.8,9.52,117.64,9.25Zm68,18.78c-.64,1.25-.25,3-.42,4.54-.29,2.62-.62,5.23-1,7.83-.13.83.53,2.85-1.67,1.49l-.15,2.59c2.95-.48,1.5,1.7,1.44,2.67-.29,5.17-.76,10.32-1.2,15.8a29.63,29.63,0,0,0,13.83-7.72,5,5,0,0,0,1.25-2.94c.64-11.42-1.16-22.5-4.83-33.87L189.93,22v0A47.82,47.82,0,0,0,185.59,28ZM174,4.74c-3.66.6-7.29,1.34-10.92,2.06-1.18.23-2.42.69-1.52-1.36l.27-.11-.29.09c-2.19,2.33-4.45,4-8.09,3.72-1.14-.08-3.39,2.72-3.61,4.4-.82,6.17,1.71,8.67,8,9.08a32.62,32.62,0,0,0,23.35-7.19c1.88-1.51,4-2.76,5.8-4.34,2.81-2.43,2.32-4.7-1.12-6.21a22.44,22.44,0,0,1-2.52-1.44h0C180.2,3.87,177.06,4.22,174,4.74Zm27,68.52a2.54,2.54,0,0,0,1.31-1.73c.15-3.74.15-7.49.1-11.24,0-.24-.93-.79-1.21-.67C184,67,166.84,74.16,149.92,81.9c-6.58,3-12.64,7.16-18.85,10.94-10.61,6.48-22.36,8-34.48,8.88-18.77,1.4-37.14-1.48-55.56-4-7.09-1-14.15-2.21-21.18-3.56-3.34-.63-6.57-1.79-9.85-2.72h0L4,88.78v0L2.2,87.61a8,8,0,0,0-.69,2c-.32,4.26.22,5.08,5,6.81,12.45,4.54,25.17,8,38.41,9.27,14.77,1.39,29.5,3.76,44.41,2.79,7.9-.51,15.81-1.09,23.64-2.22,7.61-1.1,14.43-4.55,20.77-8.87h0c7.83-4.44,15.65-8.92,23.5-13.32,3.45-1.93,7-3.69,10.48-5.56,2-1,2.93-.67,2.65,1.72-.1.87-.1,1.76-.14,2.63-.1,1.79.73,2.51,2.42,1.9,5.35-1.94,10.68-3.93,16-5.91v0C192.71,77,196.83,75.2,200.9,73.26ZM96,53.73a18.14,18.14,0,0,0-2.6-3.35c-3.58-2.87-3.77-6.64-3.36-10.73.14-1.34,0-3.82-.39-3.91a30.9,30.9,0,0,0-6.25-.23c-.18,0-.39.21-.54.36-3.82,3.72-8.74,5.24-13.61,6.93-1.8.62-3.34,2-5,3l0,0c-3.34,2.14-6.8,4.11-10,6.45-9,6.62-19.16,10.16-29.82,12.9A56.34,56.34,0,0,0,12,70.25c-3.88,2.08-5.9,5.69-6.39,10.22-.29,2.64.56,4,2.87,5.18,6.89,3.58,14.41,4.72,21.86,6.12,21.94,4.13,44,6.46,66.38,5.47,9.94-.43,19.8-1.52,28.87-6.14,1-.49,1.9-1.1,2.84-1.65h0c5.39-3,10.75-6,16.19-8.89,7-3.72,14-7.39,21.1-10.91a2.94,2.94,0,0,0,1.93-3.57c-.54-4.43-3-7.47-6.54-9.82A26.87,26.87,0,0,0,138,52.69a192.92,192.92,0,0,0-21.22,8.16c-2.35,1-4.34,3-6.33,4.68-1.26,1.09-2.09,1.23-3.28-.06-1.87-2-3.91-3.87-5.88-5.8l0,0-.62-1.26-.12-.13L96,53.72Zm25.7-36.29a7.59,7.59,0,0,0,2.67.11c-.6-.64-1.08-1.65-1.8-1.86a90.47,90.47,0,0,0-11-2.84c-1.48-.24-3.17.75-4.76,1.18l.1,1.05C112.31,13.26,117,15.41,121.71,17.44Zm-5.11,10c.49.16,1.14-.2,1.72-.31-.28-.41-.48-1-.86-1.19-5.82-2.58-11.79-4.51-18.85-4.5C105.05,23.61,110.81,25.57,116.6,27.45ZM146.17,12c-1.83.5-3.44,1.81-5.13,2.82,2,1.21,4,2.43,6.12,3.52.05,0,.89-1.48,1.64-2.73C147.83,14.24,146.66,11.88,146.17,12Zm19.44,72.48c2.5,1,3.12-.23,3.06-2.47,0-1.49-.5-2.11-2-1.37l-4.82,2.45C163.59,83.74,164.61,84.09,165.61,84.49ZM74.48,98.92l0,.25c3.55.2,7.1.59,10.65.56s7.11-.46,10.66-.71v-.1Zm1.33-67.58h7.46C80.19,28.36,78.17,29.89,75.81,31.34ZM97.36,20a31.47,31.47,0,0,0-3.25-2.38c-.12-.07-.64.49-1,.76a3.78,3.78,0,0,1,1.14.49c.8.67,1.53,1.43,2.49,2.33C97,20.82,97.44,20.1,97.36,20Zm1,5.32c.11-.06-.12-.72-.2-1.09L94,26.18l.56,1.16C95.87,26.7,97.16,26.07,98.4,25.36Zm7.36-12.67.69-.86L103.7,9.57l-.81,1.08ZM84.21,29.31s.23.49.36.76l2.88-1.6-.64-1.06C85.94,28,85.05,28.64,84.21,29.31Zm91.16-27,0,.35h4.37l.05-.35Zm6.22,53.33h.22V53.87l-.22.05Zm-137,40c-.19,0-.4-.16-.56-.12a3.34,3.34,0,0,0-.69.38l.61.17ZM171.18,3.33a5.58,5.58,0,0,0,.89-.17c-.14-.1-.28-.27-.42-.27a6.46,6.46,0,0,0-1,.14C170.88,3.17,171,3.33,171.18,3.33ZM40.09,95.08c-.09,0-.2-.14-.27-.12a3.08,3.08,0,0,0-.53.21l.39.29Zm-3.87-.78c-.09,0-.19.06-.29.1.06.12.15.36.19.35a2.89,2.89,0,0,0,.6-.24A3.87,3.87,0,0,0,36.22,94.3Zm25.57,3.61a2.38,2.38,0,0,0,.5.26c.07,0,.18-.1.27-.15l-.28-.4C62.11,97.71,62,97.81,61.79,97.91ZM181,61.78c.07-.14.2-.29.2-.43s-.14-.29-.21-.44l-.11.28ZM32.28,93.9a.8.8,0,0,0,.27,0l0-.29-.27,0C32.25,93.77,32.24,93.88,32.28,93.9Zm83.19,2.88.23.32c0-.08.12-.17.12-.25s-.08-.15-.13-.22Zm52.31-93c-.08,0-.19-.15-.23-.13a1.28,1.28,0,0,0-.26.26l.28,0Zm-143.11,89c.09,0,.17-.09.26-.14l-.36-.22-.14.24C24.51,92.68,24.59,92.75,24.67,92.75Zm101.66.68.08-.21-.21,0Zm-97.95,0,.09-.19-.21,0Zm26.2,3.85-.2-.09,0,.21Z"/><path d="M141,95.4h0Z"/><path d="M133.05,100l0,0Z"/><path d="M90,22.64h0Z"/><path class="cls-3" d="M100.56,58.3,96,53.72h0a18.14,18.14,0,0,0-2.6-3.35c-3.58-2.87-3.77-6.64-3.36-10.73.14-1.34,0-3.82-.39-3.91a30.9,30.9,0,0,0-6.25-.23c-.18,0-.39.21-.54.36-3.82,3.72-8.74,5.24-13.61,6.93-1.8.62-3.34,2-5,3l0,0c-3.34,2.14-6.8,4.11-10,6.45-9,6.62-19.16,10.16-29.82,12.9A56.34,56.34,0,0,0,12,70.25c-3.88,2.08-5.9,5.69-6.39,10.22-.29,2.64.56,4,2.87,5.18,6.89,3.58,14.41,4.72,21.86,6.12,21.94,4.13,44,6.46,66.38,5.47,9.94-.43,19.8-1.52,28.87-6.14,1-.49,1.9-1.1,2.84-1.65h0c5.39-3,10.75-6,16.19-8.89,7-3.72,14-7.39,21.1-10.91a2.94,2.94,0,0,0,1.93-3.57c-.54-4.43-3-7.47-6.54-9.82A26.87,26.87,0,0,0,138,52.69a192.92,192.92,0,0,0-21.22,8.16c-2.35,1-4.34,3-6.33,4.68-1.26,1.09-2.09,1.23-3.28-.06-1.87-2-3.91-3.87-5.87-5.8v0l-.62-1.26-.15,0Z"/><path class="cls-3" d="M119.81,10.73c-.94,1-1.46,1.88.5,2.47a16.32,16.32,0,0,1,4.78,2.11c.85.6,1.11,2,1.64,3.07-1.2.44-2.47,1.37-3.58,1.21a15.27,15.27,0,0,1-4.83-2c-2.71-1.49-5.45-2.17-8.43-.94l0,0a2.15,2.15,0,0,1-.17.64c-.67,1.1-1.38,2.19-2.07,3.29,1.23.46,2.46.9,3.68,1.38a56.58,56.58,0,0,1,7.6,3.17c.91.53,1.08,2.36,1.58,3.59-1.33.23-2.8.95-4,.61C111.61,28,106.8,26.22,102,24.61l0,0c-.93,4.48,3.14,3.93,5.32,5.28l0,0c1.36.94,3,1.66,4,2.89.7.88.55,2.45.78,3.71-1.24,0-2.72.55-3.68.06-2.53-1.28-4.73-3.21-7.27-4.45-.93-.46-2.45.26-3.7.44h0a5.73,5.73,0,0,0,1,1.71c1.78,1.42,3.67,2.69,5.49,4.06,3.32,2.5,3.36,2.93.77,6.14h0c-2.52-1.69-5.13-3.25-7.53-5.1-2.1-1.62-3.15-1-3.62,1.28-.68,3.31.73,5.9,3,8.21,1.49,1.53,2.8,3.24,4.19,4.86l0,0,2.61,2.61,0,0L105.9,59l0,0,2.61,2.61,0,0c2-1.13,4-2.3,6-3.35a27.72,27.72,0,0,1,3.25-1.27l0,0c2-2.11,4.07-3.86,7.24-3.3h0l3.28-1.31,0,0,3.31-2.64v0c9.14-3.41,18.09-2.32,26.88,1.29a16.17,16.17,0,0,1,2.88,2l0,0c3.61.64,7,4.06,7.91,7.91l0,0a30.79,30.79,0,0,1,1.84,4.32c.4,1.53.92,1.94,2.51,1.38,3.31-1.16,5.65-2.6,5.75-6.83.18-7.45,1.15-14.88,1.55-22.33a34.52,34.52,0,0,1,9.43-21.94,8.24,8.24,0,0,0,1.06-2.53l-2.12.44-6,4.65-9.95,6c-1.2.66-2.36,1.82-3.59,1.91-5,.35-10.05.37-15.07.51v0c.51-.54,1-1.49,1.52-1.54,5.62-.5,11.26-.86,16.9-1.25l9.85-6,6-4.68c.83-1.79,1.67-3.58,2.5-5.36-4.63,9.53-21.37,17-37.4,16.15h0c-.49.47-1.26,1.43-1.43,1.34-1.78-1-3.46-2.18-5.17-3.31l0,0-5.28-1.31h0c-6-4.21-12.42-7.59-19.65-9.21-1-.22-1.89-.48-2.84-.72Z"/><path d="M4,88.78l6,2.66h0c3.28.93,6.51,2.09,9.85,2.72,7,1.35,14.09,2.59,21.18,3.56,18.42,2.53,36.79,5.41,55.56,4,12.12-.9,23.87-2.4,34.48-8.88,6.21-3.78,12.27-7.94,18.85-10.94C166.84,74.16,184,67,201.1,59.62c.28-.12,1.21.43,1.21.67.05,3.75.05,7.5-.1,11.24a2.54,2.54,0,0,1-1.31,1.73c-4.07,1.94-8.19,3.76-12.29,5.62v0c-5.33,2-10.66,4-16,5.91-1.69.61-2.52-.11-2.42-1.9,0-.87,0-1.76.14-2.63.28-2.39-.68-2.77-2.65-1.72-3.48,1.87-7,3.63-10.48,5.56-7.85,4.4-15.67,8.88-23.5,13.32h0c-6.34,4.32-13.16,7.77-20.77,8.87-7.83,1.13-15.74,1.71-23.64,2.22-14.91,1-29.64-1.4-44.41-2.79-13.24-1.23-26-4.73-38.41-9.27-4.75-1.73-5.29-2.55-5-6.81a8,8,0,0,1,.69-2L4.05,88.8ZM199.87,72.26l0,0Z"/><path class="cls-3" d="M183.32,3.45c-3.12.42-6.26.77-9.37,1.29-3.66.6-7.29,1.34-10.92,2.06-1.18.23-2.42.69-1.52-1.36l0,0c-2.19,2.33-4.45,4-8.09,3.72-1.14-.08-3.39,2.72-3.61,4.4-.82,6.17,1.71,8.67,8,9.08a32.62,32.62,0,0,0,23.35-7.19c1.88-1.51,4-2.76,5.8-4.34,2.81-2.43,2.32-4.7-1.12-6.21a22.44,22.44,0,0,1-2.52-1.44Z"/><path class="cls-3" d="M189.94,22A47.82,47.82,0,0,0,185.59,28c-.64,1.25-.25,3-.42,4.54-.29,2.62-.62,5.23-1,7.83-.13.83.53,2.85-1.67,1.49l-.15,2.59c2.95-.48,1.5,1.7,1.44,2.67-.29,5.17-.76,10.32-1.2,15.8a29.63,29.63,0,0,0,13.83-7.72,5,5,0,0,0,1.25-2.94c.64-11.42-1.16-22.5-4.83-33.87L189.93,22Z"/><path class="cls-3" d="M116.51,4.1l-7.28,7.29h0c2.8-.74,5.57-1.86,8.41-2.13a56.2,56.2,0,0,1,10,.27,37.22,37.22,0,0,1,5.57,1.34c-4.12-7-10.21-9.34-16.75-6.75Z"/><path class="cls-3" d="M83.43,33.22c6-.5,10.77,2.37,15.4,5.74,1.46,1.06,3.34,1.54,5,2.29-1.26-1.36-2.32-3-3.83-4-3.84-2.51-7.59-5.51-12.52-5.39-1.37,0-2.72.9-4.08,1.39Z"/><path class="cls-3" d="M119.15,57.69c3.16-1.24,6.35-2.43,9.48-3.75a43.3,43.3,0,0,1,20.79-3.7c-6.08-2.25-11.84-.74-17.56,1.32a30.25,30.25,0,0,1-3.44.83l0,0-3.28,1.31h0l-5.94,4Z"/><path class="cls-3" d="M106.87,15.08c5.44-1.82,10.11.33,14.84,2.36a7.59,7.59,0,0,0,2.67.11c-.6-.64-1.08-1.65-1.8-1.86a90.47,90.47,0,0,0-11-2.84c-1.48-.24-3.17.75-4.76,1.18Z"/><path class="cls-3" d="M98.61,21.45c6.44,2.16,12.2,4.12,18,6,.49.16,1.14-.2,1.72-.31-.28-.41-.48-1-.86-1.19C111.64,23.37,105.67,21.44,98.61,21.45Z"/><path d="M148.8,15.62c-1-1.38-2.14-3.74-2.63-3.61-1.83.5-3.44,1.81-5.13,2.82,2,1.21,4,2.43,6.12,3.52C147.21,18.37,148.05,16.87,148.8,15.62Z"/><path class="cls-3" d="M102.61,29.91c-4.5-3.06-9-1.83-13.48-.21l12.82.87v0l.68-.68Z"/><path class="cls-3" d="M97.33,52.4c3.31,3.67,6.58,7.38,10,11,.46.47,1.68.21,2.55.3h0l-1.32-2,0,0L105.94,59l0,0-2.6-2.61,0,0-2.61-2.61,0,0-3.3-1.3Z"/><path class="cls-3" d="M161.86,83.1c1.73.64,2.75,1,3.75,1.39,2.5,1,3.12-.23,3.06-2.47,0-1.49-.5-2.11-2-1.37Z"/><path class="cls-3" d="M72.85,39.17l3.29-2h0l3.7-3.94-.46-.76L68.55,39.66l.22.34,4.07-.83Z"/><path class="cls-3" d="M95.77,98.92H74.48l0,.25c3.55.2,7.1.59,10.65.56s7.11-.46,10.66-.71Z"/><path class="cls-3" d="M109.21,33.21l-6.6-3.3h0l-.68.68v0c2,1.39,4,2.85,6.15,4.15.49.3,1.29.07,2,.09l-.81-1.58Z"/><path class="cls-3" d="M193.91,59.69h1.31c1-.63,2.05-1.21,3-1.91,1.51-1.1,3-2.26,2.94-3.37l-7.27,5.28Z"/><path class="cls-3" d="M83.27,31.34c-3.08-3-5.1-1.45-7.46,0Z"/><path class="cls-3" d="M96.77,21.24c.21-.42.67-1.14.59-1.2a31.47,31.47,0,0,0-3.25-2.38c-.12-.07-.64.49-1,.76a3.78,3.78,0,0,1,1.14.49C95.08,19.58,95.81,20.34,96.77,21.24Z"/><path class="cls-3" d="M94.59,27.34c1.28-.64,2.57-1.27,3.81-2,.11-.06-.12-.72-.2-1.09L94,26.18Z"/><path class="cls-3" d="M85.41,25.27l4.5,1.6c-1-3-1.79-3.3-4.49-1.59Z"/><path class="cls-3" d="M102.89,10.65l2.87,2,.69-.86L103.7,9.57Z"/><path class="cls-3" d="M86.81,27.41c-.87.62-1.76,1.23-2.6,1.9,0,0,.23.49.36.76l2.88-1.6Z"/><path class="cls-3" d="M132.39,12.7,138.33,16h0l-6-3.29Z"/><path class="cls-3" d="M105.26,17.34l-3.92,1.48L102,20l3.23-2.7Z"/><path class="cls-3" d="M179.77,2.33h-4.4l0,.35h4.37Z"/><path class="cls-3" d="M183.33,33.23l-.83,5,.81.05V33.22Z"/><path class="cls-3" d="M92.68,47.12,92,43.93l-.66.24L92.7,47.1Z"/><path class="cls-3" d="M94,22l-2.63,1.67.5.63L94,22Z"/><path class="cls-3" d="M74.83,39.18l3.3-2v0l-2,0h0c-.44.66-.88,1.32-1.33,2Z"/><path class="cls-3" d="M69.53,98.72l-2.91-.6-.07.45,3,.14Z"/><path class="cls-3" d="M181.59,53.92v1.74h.22V53.87Z"/><path class="cls-3" d="M100.62,15.34,98.24,16.7l1.05.92,1.35-2.26Z"/><path class="cls-3" d="M189.28,20l-2,2.64h0l2-2.66Z"/><path class="cls-3" d="M189.27,20l2-2.64h0l-2,2.64Z"/><path class="cls-3" d="M43.92,96.12l.64-.43c-.19,0-.4-.16-.56-.12a3.34,3.34,0,0,0-.69.38Z"/><path class="cls-3" d="M170.63,3c.25.14.4.3.55.3a5.58,5.58,0,0,0,.89-.17c-.14-.1-.28-.27-.42-.27A6.46,6.46,0,0,0,170.63,3Z"/><path class="cls-3" d="M92.7,47.1l2,2.67v0c-.66-.88-1.33-1.75-2-2.63Z"/><path class="cls-3" d="M165.46,71.6l2-.67h0l-2,.65Z"/><path class="cls-3" d="M92,39.18,93,37.62l-.38-.18c-.18.58-.37,1.15-.55,1.73Z"/><path class="cls-3" d="M146.26,20l-2.63-1.33h0L146.28,20Z"/><path class="cls-3" d="M141,17.35,138.34,16h0L141,17.33Z"/><path class="cls-3" d="M39.68,95.46l.41-.38c-.09,0-.2-.14-.27-.12a3.08,3.08,0,0,0-.53.21Z"/><path class="cls-3" d="M152.88,23.3,150.24,22v0l2.64,1.33Z"/><path class="cls-3" d="M36.72,94.51a3.87,3.87,0,0,0-.5-.21c-.09,0-.19.06-.29.1.06.12.15.36.19.35A2.89,2.89,0,0,0,36.72,94.51Z"/><path class="cls-3" d="M62.28,97.62c-.17.09-.33.19-.49.29a2.38,2.38,0,0,0,.5.26c.07,0,.18-.1.27-.15C62.47,97.88,62.37,97.75,62.28,97.62Z"/><path class="cls-3" d="M180.83,61.19l.12.59c.07-.14.2-.29.2-.43s-.14-.29-.21-.44C180.9,61,180.87,61.1,180.83,61.19Z"/><path class="cls-3" d="M100.64,15.36l2-2h0l-2,2Z"/><path class="cls-3" d="M163.49,55.7l2,2h0l-2-2Z"/><path class="cls-3" d="M183.31,33.22l.65-1.78-.41-.08c-.08.62-.15,1.24-.22,1.87Z"/><path class="cls-3" d="M32.24,93.69c0,.08,0,.19,0,.21a.8.8,0,0,0,.27,0l0-.29Z"/><path class="cls-3" d="M115.69,96.63l-.22.15.23.32c0-.08.12-.17.12-.25S115.74,96.7,115.69,96.63Z"/><path class="cls-3" d="M158.19,52.4l-1.27-.5-.1.36,1.36.15Z"/><path class="cls-3" d="M92,39.17l-.52,1.28.29.09L92,39.18Z"/><path class="cls-3" d="M78.13,37.18l1.12-.57-.15-.24-1,.83Z"/><path class="cls-3" d="M161.5,54.38l2,1.32,0,0-2-1.32Z"/><path class="cls-3" d="M166.79,59l1.32,2h0l-1.32-2Z"/><path class="cls-3" d="M167.57,4l.21-.17c-.08,0-.19-.15-.23-.13a1.28,1.28,0,0,0-.26.26Z"/><path class="cls-3" d="M24.43,92.63c.08.05.16.12.24.12s.17-.09.26-.14l-.36-.22Z"/><path class="cls-3" d="M147.6,20.64l0,1.31,0,0,1.3-.68v0l-1.31-.67Z"/><path class="cls-3" d="M130.41,12l2,.66v0l-2-.67Z"/><path class="cls-3" d="M117.83,58.36l1.32-.67h0l-1.3-.67,0,0c0,.43,0,.86,0,1.29Z"/><path class="cls-3" d="M191.92,61.67l.68-1.31,0,0-.66,1.33Z"/><path class="cls-3" d="M168.76,62.33l.67-1.31,0,0-1.31,0h0c.22.44.44.88.67,1.32Z"/><path class="cls-3" d="M169.42,64.32l-.66-2h0l.66,2Z"/><path class="cls-3" d="M169.44,64.3l.14.85c-.05-.28-.1-.56-.16-.83Z"/><path class="cls-3" d="M160.18,53.72l1.32.66,0,0,0-1.32,0,0-1.32.67Z"/><polygon class="cls-3" points="126.2 93.26 126.33 93.42 126.42 93.22 126.2 93.26"/><polygon class="cls-3" points="28.26 93.26 28.39 93.41 28.47 93.22 28.26 93.26"/><path class="cls-3" d="M96,51.08l1.34,1.32h0L96,51.07Z"/><polygon class="cls-3" points="54.42 97.38 54.58 97.26 54.38 97.17 54.42 97.38"/><path class="cls-3" d="M100.62,98.71l.78-.27c-.08,0-.18-.06-.24,0s-.35.2-.53.31Z"/><path class="cls-3" d="M83.43,33.22l-.27.09.27-.09Z"/><path class="cls-3" d="M160.16,53.73l-1.32-.66h0l1.33.66Z"/><path class="cls-3" d="M195.23,59.68l.1.28-.11-.28Z"/><path class="cls-3" d="M192.6,60.36l1.31-.67h0l-1.32.66Z"/><path class="cls-3" d="M181.33,66.3l-.1-.28.11.27Z"/><path class="cls-3" d="M170.75,69.61l-.3.08.29-.09Z"/><path class="cls-3" d="M167.45,70.93l.27-.12-.28.12Z"/><path class="cls-3" d="M165.44,71.58l-.27.1.29-.08Z"/><path class="cls-3" d="M160.17,73.58l.29-.1-.3.09Z"/><path class="cls-3" d="M160.16,73.57l-.29.12.3-.11Z"/><path class="cls-3" d="M142.31,84.83l1.33-.66,0,0-1.33.65Z"/><path class="cls-3" d="M4.06,84.82l-.26-.21.24.22Z"/><path class="cls-3" d="M6,86.15l.25.19L6,86.14Z"/><path class="cls-3" d="M136.35,87.47a2.82,2.82,0,0,1,0,.65l0,0v-.68Z"/><path class="cls-3" d="M17.31,92.08l-.14-.28.12.31Z"/><path class="cls-3" d="M17.29,92.11l.2.15-.18-.18Z"/><path class="cls-3" d="M100.63,98.72l-.19.23.18-.24Z"/><path class="cls-3" d="M116.51,59l1.32-.67h0l-1.33.66Z"/><path class="cls-3" d="M161.51,5.44l.27-.11-.29.09Z"/><path class="cls-3" d="M130.39,12.05l-.22-.2.24.19Z"/><path class="cls-3" d="M109.89,16.67l-.24-.19.22.21Z"/><path class="cls-3" d="M141,17.33l1.32.66v0L141,17.35Z"/><path class="cls-3" d="M142.31,18l1.33.67h0L142.3,18Z"/><path class="cls-3" d="M146.28,20l1.32.66h0L146.26,20Z"/><path class="cls-3" d="M150.24,22l-1.33-.66v0l1.33.66Z"/><path class="cls-3" d="M186.62,23.94l.67-1.3h0L186.64,24Z"/><path class="cls-3" d="M154.21,24l-1.33-.66h0l1.33.66Z"/><path class="cls-3" d="M185.3,25.93l-.16.23.18-.21Z"/><path class="cls-3" d="M74.81,39.16l0,0Z"/><path class="cls-3" d="M72.84,39.17h0Z"/><path class="cls-3" d="M94.67,49.77l.66.66h0l-.66-.67Z"/><path class="cls-3" d="M95.33,50.43l.66.65h0l-.66-.65Z"/><path class="cls-3" d="M158.18,52.41l.67.65h0l-.65-.67Z"/><path class="cls-3" d="M165.46,57.69l.66.66h0l-.67-.66Z"/><path class="cls-3" d="M166.12,58.35l.67.67h0l-.66-.66Z"/><path class="cls-3" d="M116.49,59l0,0Z"/><path class="cls-3" d="M114.53,60.35h0Z"/><path class="cls-3" d="M114.51,60.34h0Z"/><path class="cls-3" d="M191.92,61.67Z"/><path class="cls-3" d="M109.88,63.65h0Z"/><path class="cls-3" d="M181.34,66.29h0Z"/><path class="cls-3" d="M174.06,68.94h0Z"/><path class="cls-3" d="M174.05,69h0Z"/><path class="cls-3" d="M170.74,69.6h0Z"/><path class="cls-3" d="M107.92,9.39l0,0Z"/><path class="cls-3" d="M107.9,9.41l0,0Z"/><path class="cls-3" d="M156.21,76.22h0Z"/><path class="cls-3" d="M156.19,76.23h0Z"/><path class="cls-3" d="M119.82,10.72h0Z"/><path class="cls-3" d="M143.64,84.17l0,0Z"/><path class="cls-3" d="M142.29,84.8l0,0Z"/><path class="cls-3" d="M4,84.83H4Z"/><path class="cls-3" d="M6,86.14H6Z"/><path class="cls-3" d="M136.36,87.46h0Z"/><path class="cls-3" d="M136.34,88.12l0,0Z"/><path class="cls-3" d="M133,89.45h0Z"/><path class="cls-3" d="M13.31,89.45h0Z"/><path class="cls-3" d="M133.05,89.45h0Z"/><path class="cls-3" d="M13.3,89.46c0,.22,0,.43,0,.65h0v-.67Z"/><path class="cls-3" d="M13.3,90.11h0Z"/><path class="cls-3" d="M20.58,92.1h0Z"/><path class="cls-3" d="M20.59,92.1h0Z"/><path class="cls-3" d="M109.23,11.39h0Z"/><path class="cls-3" d="M119.16,96.07h0Z"/><path class="cls-3" d="M119.15,96.08h0Z"/><path class="cls-3" d="M69.54,98.71h0Z"/><path class="cls-3" d="M102.62,13.37h0Z"/><path class="cls-3" d="M191.92,16.67h0Z"/><path class="cls-3" d="M183.32,3.44h0Z"/><path class="cls-3" d="M191.25,17.34l.67-.67h0l-.66.67Z"/><path class="cls-3" d="M105.26,17.34Z"/><path class="cls-3" d="M94,22l0,0Z"/><path class="cls-3" d="M186.64,24l0,0Z"/><path class="cls-3" d="M102,24.61h-.67c.22,0,.44,0,.65,0Z"/><path class="cls-3" d="M101.3,24.62h0Z"/><path class="cls-3" d="M185.32,26l0,0Z"/><path class="cls-3" d="M85.42,25.28h0Z"/><path d="M64.24,45.8l0,0Z"/><path d="M96,53.73h0Z"/><polygon points="100.56 58.3 100.53 58.45 100.68 58.43 100.56 58.3"/><path d="M101.3,59.69v0Z"/><path d="M128.41,89.46h0Z"/><path d="M154.87,26.59c5-.14,10.06-.16,15.07-.51,1.23-.09,2.39-1.25,3.59-1.91-.08-.12-.15-.24-.23-.35-5.64.39-11.28.75-16.9,1.25-.55.05-1,1-1.52,1.54Z"/><path d="M166.12,58.36l.66.66,1.32,2,1.31,0c-.88-3.85-4.3-7.27-7.91-7.91l0,1.32,2,1.32,2,2Z"/><path d="M173.53,24.17l9.95-6-.33-.33-9.85,6C173.38,23.93,173.45,24.05,173.53,24.17Z"/><path d="M183.48,18.18l6-4.65c-.11-.11-.23-.23-.34-.36l-6,4.68Z"/><path d="M117.85,57l1.3.67,5.94-4C121.92,53.17,119.8,54.92,117.85,57Z"/><path d="M154.22,24l-1.33-.66L150.25,22l-1.33-.66-1.3.68c1.71,1.13,3.39,2.3,5.17,3.31C153,25.38,153.73,24.42,154.22,24Z"/><path d="M125.12,53.72l3.28-1.31Z"/><path d="M105.94,59l2.61,2.61Z"/><path d="M103.3,56.39,105.9,59Z"/><path d="M100.65,53.75l2.61,2.61Z"/><path d="M104.6,44.46h0Z"/><path d="M131.72,49.77v0Z"/><path d="M142.31,20.65h0Z"/><path d="M154.88,26.61v0Z"/><path d="M107.23,29.9l0,0Z"/><path d="M97.32,32.56h0Z"/><path d="M199.85,72.24l0,0Z"/><path d="M199.87,72.26l0,0Z"/><path d="M188.61,78.88v0Z"/><path d="M4.05,88.8v0Z"/><path d="M10,91.44h0Z"/><path d="M133.7,97.4h0Z"/><path d="M189.94,22v0Z"/><path d="M116.51,4.1h0Z"/><path d="M101.94,30.59l.68-.68Z"/><path d="M109.21,33.21l0,0Z"/></g></g></svg>