<svg xmlns="http://www.w3.org/2000/svg" xmlns:xlink="http://www.w3.org/1999/xlink" viewBox="0 0 188.46 122.93"><defs><style>.cls-1{fill:none;}.cls-2{fill:#d7c08e;}.cls-3{fill:url(#New_Pattern_Swatch_1);}</style><pattern id="New_Pattern_Swatch_1" data-name="New Pattern Swatch 1" width="29.49" height="30" patternTransform="translate(26.89 -22.84)" patternUnits="userSpaceOnUse" viewBox="0 0 29.49 30"><rect class="cls-1" width="29.49" height="30"/><rect class="cls-2" width="29.49" height="30"/></pattern></defs><g id="Layer_2" data-name="Layer 2"><g id="Layer_1-2" data-name="Layer 1"><path d="M139.14,98.24l-4.62,4.62h0c-8.1,3.81-15.94,8.37-24.35,11.29-24.83,8.61-50.55,10.1-76.56,7.85C22.06,121,11.71,116.93,3,109.1c-3.81-3.41-4-8.24-.36-11.64a6.39,6.39,0,0,0,1.47-2.09c1.83-4.3,3.59-8.62,5.38-12.94l0,0C14.86,76.09,22,72.51,29.57,69.37c3.79-1.57,7.23-4,10.83-6l0,0c5.79-3.87,11.93-7.33,17.3-11.71,7.69-6.28,14.84-13.24,22.21-19.9h0l.66-.66h0a29.31,29.31,0,0,0,3.3-3.19c4.62-6,10.47-7.33,17.58-5.29,1.5.43,3.68-.22,5.13-1.08,10.21-6,20.52-11.82,32-15.23,10.4-3.1,20.72-6.57,31.78-6.27,8.71.23,13.49,5.46,13.05,14.15a25.33,25.33,0,0,0,.57,6.13c1.58,7.84,3.38,15.61,2.21,23.76-.45,3.11-1.07,6.56,1.88,9.23.55.5.43,1.88.4,2.84-.12,4.16-.43,8.32-.47,12.48,0,3.32-1.12,6.07-3.85,7.94-4.51,3.08-9.11,6-13.68,9-5,3.24-9.87,4.31-15,.28A3.56,3.56,0,0,0,152,86c-4.4,4-8.6,8.12-12.87,12.22ZM81.22,116l-.78.28c.08,0,.18.06.24,0a5.58,5.58,0,0,0,.52-.32v-.65l0,0Zm22.37-4.61h0Zm-91.53-2,2,1.32,1.33.64,2,.66,1.32.66,2.18.87.12-.47-2.31-.39-1.32-.66-2-.66-1.3-.67v-1.29l2,0,1.32.65.23.2-.24-.19L16,109.44l-2-1.31-2-1.32-.67-.66-.63-.66-.66-.66-.66-.66-.68-.65-.63-.65,0,0c.23.2.46.4.68.61l.65.68.66.66.66.66.67.63.66.66,2,1.32v1.31h-2l-.64-.65-.68-.66-1.32-1.31-.66-.66-.66-.66c-.44-.43-.87-.87-1.31-1.31L3.45,99.51l-.81.66,4.18,4,1.32,1.31.65.66.66.66,1.31,1.32.66.68Zm112.59-7.92v0ZM6.14,100.22l.11.3-.09-.32-.66-.64-.65-.66,0,0,.66.64Zm123.11-2,0,0Zm4.62-1.31.66-.67.66-.64,1.33-.66.65-.63.17-.27-.19.24-.65.64-1.32.67-.64.67-.67.65-.65.66-.66.66-1.31.66-.67.66-2.63.64v0c0,.44,0,.88,0,1.32l-3.3,2h0l3.28-2,2.63-2,.66-.66,1.32-.66.66-.66Zm-2-.63.66-.66.66-.68.65-.65,1.35-.66.63-.66.65-.68.67-.63.66-.66.65-.66h1.3v1.3l-.65.66,0,0,.65-.65,1.34-1.34.65-.64.65-.66,1.32-1.33.65-.66.66-.65c.21-.23.43-.45.65-.68l.66-.65,2-1.31,1.31-1.33.66-.66.66-.66,1.31-1.31.66-.66.67-.65L155,77.18l.65-.64.66-.66,0,0-.66.66-.64.65h-1.3v-1.3l0,0-1.32,1.33-.65.65v0l.66-.65h1.3v1.3l-.65.66-.66.66L151,81.13l-.66.66-.66.66-1.32,1.31-2,1.32-.64.66-.69.65-.65.66-.65.64h-1.29c0-.44,0-.87,0-1.3l0,0-1.33,1.33-.66.65-.64.65-1.33,1.33-.65.66-.66.66-.64.67-.67.65-.65.64-1.33.67-.66.66-.67.66-.65.66-.65.66,0,0ZM149,79.82c.18-.07.38-.14.56-.23s.07-.15.11-.22l-.7.43-.64.67-.66.64-1.32,1.33h0l1.33-1.32.65-.65ZM110.18,78.5h0Zm2.62-2,1.33-.65c.22-.21.43-.43.65-.65l.66-.66,1.31-.67.66-.66,2.63-2,4-2.63.65-.67,1-.74-1-.58-1.28-4.55,1.26,0,0,0h-1.32l-5.26-5.24,1.3,0,.65.67.66.66h0l-.66-.66-.66-.65-4.61-4-2.64-2c-.21-.23-.43-.45-.65-.67l-.66-.65-2-1.32-.64-.67-1.34-.64-2-1.32-.66-.66-1.31-.66-.66-.66-2-1.31-2-1.32L95,39l-1.32-.65-.25-.19.26.18L95,39c.43.66.86,1.31,1.3,2-2-.81-4-1.55-5.94-2.45-3.74-1.75-7.35-4-11.78-2.83l-.07.07L59.61,52.37,66,53l0,.86-5.42.53,0,.35c5.14,0,10.28.08,15.41,0a6.11,6.11,0,0,1,5.27,2.54c3.51,4.17,7.37,8,11.09,12l3.95,4,2,1.31.65.67,1.32.66,0,0L99,75.19l-.66-.64-2-1.32-4-3.94c-.49-1.05-1-2.1-1.45-3.15l.31-.3,4.44,3.43h0a20.37,20.37,0,0,0,11,7.78,5.43,5.43,0,0,0,3.52-.65c1.82-.89,3.5-2.09,5.24-3.16v1.29l-.66.66-.65.66-1.31.66-.67.65h0C112.37,77,112.59,76.74,112.8,76.51Zm59.91-11.19,1.32-.65,1.33-.66c.21-.22.43-.44.64-.67l2.64-2L180,60.05l.66-.66.66-.66V57.42h0c0,.44,0,.88,0,1.32l-.66.66-.66.66-1.31,0,0,0c0,.43,0,.87,0,1.3l-2.63,2-.67.64-1.33.64-1.29,0-.24-.19.23.2c0,.22,0,.44,0,.66L172,66l0,0C172.28,65.77,172.49,65.54,172.71,65.32ZM83.85,30.45l.65-.67h0l-.67.66-.65.65,0,0Zm37.25,75.13.28-.08,0,0Zm-.4-2.07,1.32-.65.3-.09-.3.08-1.31.67-1.33.65-1.31.67-2,.63-1.3.67c-.21,0-.43,0-.64.11s-.11.12-.17.18l.82-.27,1.31-.66,2-.67,1.32-.65ZM90.05,85.63l-.3.1,0,0Zm13.81-5.26-.29.09-.27.11.29-.09Zm-.92-3.2-.25-.19.24.21Zm56.59-4.59h1.32l1.37-.65.62-.66,1.33-.66,0,0-1.32.67-.64.64-1.37.64-1.27,0Zm6.88-3.41-.29.1h0Zm3-2.54-.24-.17.21.2a3.42,3.42,0,0,1,0,.64h0ZM183,57l.21-.25.66-.66,1.91-1.78-.56-.41-1.34,2.2-.66.67Zm-68.26-24.6-3.29-2.63-3.94-2.64-2.64-1.32-.23-.19.24.19.65,1.32c-1.87-.34-3.78-.53-5.6-1.05-4.22-1.21-8.32-1.73-12.17,1v0a5.26,5.26,0,0,1-.35,1.24c-2.69,4.35-2.72,4.42,2,6.15,9.53,3.52,17.2,10,25.26,15.78q1.07.76,2.1,1.59c1.37,1.1,1.91.62,1.9-1,0-2,0-3.94,0-5.91H120l.34,4.91.51,0L120,40.31l-.66-2-2.63-3.94-.66-.66Zm-8.54,46.08-.82-.25c.06.06.11.17.18.18s.42,0,.63.08Zm3.82,29.25c.08,0,.19.07.25,0a5.58,5.58,0,0,0,.52-.32l.28-.08-.27.09ZM23.7,112.57l.21.17-.12,1.56c.19-.08.54-.2.53-.24a12.79,12.79,0,0,0-.39-1.34Zm67.48.32.37.7,1.52-.85.26-.12-.28.11Zm7.73-88.52L99,24l-1.36-.15L94,23.19l-.06.47,3.77.18ZM71.22,89.68,71.16,89l-3.77.74H64.23l0,.57,3.1-.59Zm-42.67,0a37.11,37.11,0,0,0,6.08,1.13c8.59.12,17.18,0,25.77-.68H53.52l-.05-.75,29.06-3.65.19,1.51c.15-.51.3-1,.46-1.51h3.29l0,.56.28-.07-.24-.49c4.52-1.86,9-3.74,13.59-5.57,1.18-.48,2.36-1,.53-2.06-8.18-4.69-13.51-12.34-19.95-18.85a8.53,8.53,0,0,0-4.92-2.4c-6-.47-12-.6-18.05-.65a7.79,7.79,0,0,0-4.19,1.25A167,167,0,0,1,23.65,74a65.53,65.53,0,0,0-5.85,3c-2.33,1.23-2.52,2.75-.63,4.63a24,24,0,0,1,2.14,2.84l-5-3c1.4,3.44,6.42,6.82,11.56,7.57Zm133-15.15c.65,1,1.7,1.89,1.87,2.94a36.12,36.12,0,0,1,.09,5.89c0,3.65.07,3.82,3.1,2.07,5.48-3.15,10.91-6.4,16.16-9.9a7.26,7.26,0,0,0,3-4.43c.62-4.59.63-9.25.89-13.89l-.93-.36q-3.85,3.91-7.73,7.82h0q-8.22,4.95-16.45,9.89c-2.46,2-5.07,3.75-7.36,5.88-2.95,2.73-5.64,5.72-8.45,8.6l-9.21,8.57c-1.41,1-2.89,2-4.22,3.07-7.51,6.35-16.76,8.91-25.81,11.88-22,7.22-44.62,8-67.35,6.55a72.18,72.18,0,0,1-22.56-5.49c-5.45-2.25-9.89-6.94-14.46-10.31-.23,2.61,1.52,5,6,7.47l0,0c6.67,5.71,14.7,8.11,23.17,9.09a199.5,199.5,0,0,0,55.91-1.5c14-2.32,27.6-6.19,40.1-13.08,3.43-1.89,6.15-5.08,9.2-7.68L145.72,89Zm-5.87,9c1.46.87,2.89,1.8,4.4,2.58.26.13,1.2-.32,1.21-.53.12-2.27.13-4.54.08-6.8,0-.1-1.07-.41-1.34-.21a13.77,13.77,0,0,0-1.78,1.87h0Zm-19.35-39-.35-.81c-4.15,1.58-8.39,3-12.37,4.9-1,.47-1,2.78-1.41,4.27,0,.08.73.36,1.13.55l.07-.06Zm38.62-31.4c2.4-2.63,2.12-4.53-.86-6.49-4-2.62-8.24-1.37-12.39-.53-.57.11-1.21,1.25-1.34,2-1.13,6.79-2.16,13.6-3.21,20.4l.77.78,9.57-8.8h0C169.94,18.11,172.56,15.77,174.92,13.19ZM71.75,91c-12.5,1.19-25.13,1.29-37.7,1.34-5.65,0-11.34-1.14-16.18-4.65a6.22,6.22,0,0,0-1.84-.6h0a3,3,0,0,0-.21-.62C13,82,11.68,81.82,9.2,86.38a35.13,35.13,0,0,0-3.09,8.93c-.26,1.11.6,2.69,1.36,3.77,6,8.57,15,12.38,24.79,14.06,24.25,4.16,48.06,1.37,71.5-5.45,8.95-2.6,17.92-5.32,25.32-11.41,2.78-2.29,5.38-4.82,8.06-7.24l0,0A143.52,143.52,0,0,1,170.5,63.06c3.76-2.12,6.83-5.44,10.25-8.16,2.83-2.24,3.7-5.2,3.72-8.69.06-7.9.48-15.8-1.73-23.52-.42-1.46-.5-3.19-2.77-2.81,1.32-3.84,2.64-7.65.93-11.78-1.89-4.54-5.45-6.87-10.08-6.39a173.77,173.77,0,0,0-23,3.57A125.63,125.63,0,0,0,108.52,22.4a10.37,10.37,0,0,0-1.81,2.11c1.18.07,2.78.69,3.49.14,7.49-5.75,16-9.53,24.67-12.93,10.79-4.2,21.74-7.52,33.37-8.25a11.11,11.11,0,0,1,9.09,3.74c1.93,2,1.4,4.13-.29,5.86-4.42,4.56-8.56,9.52-13.57,13.35-12.45,9.51-25.33,18.45-38,27.71-1.12.83-2.77,2.63-2.5,3.36.75,2,2.52,3.28,5,1.9.16-.09.43,0,.65,0-1.36,1.76-1.67,3.36-.1,5.36.42.54-.47,2.8-1.36,3.57-3.1,2.67-6.46,5-9.73,7.52l0,0A110.27,110.27,0,0,1,71.75,91Zm73.11-81c-10.05,3.71-20.42,6.73-29.34,13-.45.31-.91.61-1.35.93-3.43,2.45-3.41,2.43-.31,5.22,4.63,4.16,9.12,8.39,8.35,15.5-.19,1.77,1,2,2.36,1.44C134,42.41,144.4,40.82,152,33.3a11.48,11.48,0,0,0,3.3-5.29c1.31-6.21,2.1-12.52,3.13-18.79.25-1.55.59-3-1.93-2.77C152.6,7.62,148.65,8.6,144.86,10ZM100.51,112.1l-.77-1.74-1,1Zm-26.67,4.32-.11.41,1.56.36.06-.25Zm-4.71,1.39a6.13,6.13,0,0,0,.84-.14c-.13-.08-.26-.22-.39-.22a6.72,6.72,0,0,0-1,.16C68.85,117.7,69,117.82,69.13,117.81Zm8.72-2.14c.07-.06.18-.12.2-.2a2,2,0,0,0,0-.42l-.46.32Zm-2.32-26.9a1.91,1.91,0,0,0-.33-.25s-.13.12-.2.18l.25.14Zm4-.78c-.08,0-.2-.16-.24-.13a1.17,1.17,0,0,0-.26.28l.29,0ZM63.23,116.28l.05.18.5-.21Zm-27.87.61,0,.17.18-.11Zm60.78-4.82.2-.1-.17-.12Zm11.16-3.47.08.18.13-.18Zm-5.47-83.67h.23l-.12-.17Z"/><path d="M40.38,63.36l0,0Z"/><path d="M8.78,82.44h.68l0,0H8.78Z"/><path d="M8.8,82.45h0Z"/><path d="M139.14,98.24h0Z"/><path d="M134.54,102.85h0Z"/><path class="cls-3" d="M137.18,89A143.52,143.52,0,0,1,170.5,63.06c3.76-2.12,6.83-5.44,10.25-8.16,2.83-2.24,3.7-5.2,3.72-8.69.06-7.9.48-15.8-1.73-23.52-.42-1.46-.5-3.19-2.77-2.81l0,0c-.43.87-.86,1.74-1.3,2.61h0l-1.29,0,0,0-2.6,2.61,0,0q-2.94,2.63-5.89,5.24l0,0-8.52,7.21,0,0c-3.64,2.9-7.22,5.88-10.94,8.66a32.41,32.41,0,0,1-4.83,2.5l0,0a25.92,25.92,0,0,1-12.47,8.53l0,0-3.25,2,0,0c-1.36,1.76-1.67,3.36-.1,5.36.42.54-.47,2.8-1.36,3.57-3.1,2.67-6.46,5-9.73,7.52l0,0A110.27,110.27,0,0,1,71.75,91c-12.5,1.19-25.13,1.29-37.7,1.34-5.65,0-11.34-1.14-16.18-4.65a6.22,6.22,0,0,0-1.84-.6h0a3,3,0,0,0-.21-.62C13,82,11.68,81.82,9.2,86.38a35.13,35.13,0,0,0-3.09,8.93c-.26,1.11.6,2.69,1.36,3.77,6,8.57,15,12.38,24.79,14.06,24.25,4.16,48.06,1.37,71.5-5.45,8.95-2.6,17.92-5.32,25.32-11.41,2.78-2.29,5.38-4.82,8.06-7.24Z"/><path class="cls-3" d="M86.47,85.74H82.53L53.47,89.38l.05.75H60.4c-8.59.73-17.18.8-25.77.68a37.11,37.11,0,0,1-6.08-1.13v0c0-.65.1-1.8-.11-1.86-1.9-.59-3.86-1-5.8-1.44h0L22,85.08h0l-2.63-.65,0,0a24,24,0,0,0-2.14-2.84c-1.89-1.88-1.7-3.4.63-4.63a65.53,65.53,0,0,1,5.85-3A167,167,0,0,0,53.49,57.46a7.79,7.79,0,0,1,4.19-1.25c6,0,12.05.18,18.05.65a8.53,8.53,0,0,1,4.92,2.4c6.44,6.51,11.77,14.16,19.95,18.85,1.83,1,.65,1.58-.53,2.06C95.53,82,91,83.88,86.48,85.74ZM35,88.83c-.27,0-.53.51-.8.78.35.23.69.66,1,.67,2.77.06,5.54,0,8.31,0,0-.5,0-1,0-1.52C40.75,88.79,37.89,88.77,35,88.83Zm10.72.53v.7h5.79v-.7ZM32.52,89c-.34-.21-.68-.56-1-.57s-.64.36-1,.57L31.79,90Z"/><path class="cls-3" d="M124.64,66.66l-5.89,4.58,0,0-3.25,2,0,0c-1.74,1.07-3.42,2.27-5.24,3.16a5.43,5.43,0,0,1-3.52.65,20.37,20.37,0,0,1-11-7.78h0l-4.44-3.43-4.79-6.45,0,0c-1.35-1.58-3.1-3-4-4.78-1.66-3.45-4-2.9-6.77-2.07a5.89,5.89,0,0,0,.17.77c3.71-.29,5.41,2.22,7.39,4.79,2.24,2.91,5.07,5.37,7.64,8,.48,1,1,2.1,1.45,3.15v0c-3.72-4-7.58-7.88-11.09-12A6.11,6.11,0,0,0,76,54.68c-5.13.11-10.27,0-15.41,0l0-.35,5.42-.53L66,53l-6.41-.6L78.54,35.74l.07-.07c4.43-1.13,8,1.08,11.78,2.83,1.94.9,4,1.64,5.94,2.45l0,0,3.23,3.25.06.06,9.18,5.22,0,0,9.18,7.21,0,0L123.35,62l0,0,1.28,4.55Zm-31-19.58c-1.63-3.34-4-4.53-7.6-4.26s-7.37.06-11.28.72a5.68,5.68,0,0,0,1.55,1.14c7.15,2,13.44,5.7,19.41,10,1,.74,2.28,2.08,2.59-.58h0A60,60,0,0,1,93.64,47.08Zm-20,6.75c.24,0,.37-.6.54-.92a7,7,0,0,0-1.68-.25c-.25,0-.48.47-1.05,1.1A9.53,9.53,0,0,0,73.65,53.83ZM70,53.56c-.36-.26-.69-.66-1.09-.74a1,1,0,0,0-.83.63c-.07.36.21.79.34,1.19Z"/><path d="M156.48,6.45C152.6,7.62,148.65,8.6,144.86,10c-10.05,3.71-20.42,6.73-29.34,13-.45.31-.91.61-1.35.93-3.43,2.45-3.41,2.43-.31,5.22,4.63,4.16,9.12,8.39,8.35,15.5-.19,1.77,1,2,2.36,1.44C134,42.41,144.4,40.82,152,33.3a11.48,11.48,0,0,0,3.3-5.29c1.31-6.21,2.1-12.52,3.13-18.79C158.66,7.67,159,6.19,156.48,6.45Z"/><path class="cls-3" d="M180,19.88c1.32-3.84,2.64-7.65.93-11.78-1.89-4.54-5.45-6.87-10.08-6.39a173.77,173.77,0,0,0-23,3.57A125.63,125.63,0,0,0,108.52,22.4a10.37,10.37,0,0,0-1.81,2.11c1.18.07,2.78.69,3.49.14,7.49-5.75,16-9.53,24.67-12.93,10.79-4.2,21.74-7.52,33.37-8.25a11.11,11.11,0,0,1,9.09,3.74c1.93,2,1.4,4.13-.29,5.86-4.42,4.56-8.56,9.52-13.57,13.35-12.45,9.51-25.33,18.45-38,27.71-1.12.83-2.77,2.63-2.5,3.36.75,2,2.52,3.28,5,1.9.16-.09.43,0,.65,0l0,0,3.25-2,0,0,12.47-8.53,0,0c3.83-3,7.61-6.09,11.51-9a26.15,26.15,0,0,1,4.26-2.15l0,0,8.52-7.21,0,0q3-2.61,5.89-5.24l0,0,2.6-2.61,0,0,2.6-2.59Z"/><path class="cls-3" d="M87.78,27.15a5.26,5.26,0,0,1-.35,1.24c-2.69,4.35-2.72,4.42,2,6.15,9.53,3.52,17.2,10,25.26,15.78q1.07.76,2.1,1.59c1.37,1.1,1.91.62,1.9-1,0-2,0-3.94,0-5.91H120l.34,4.91.51,0L120,40.31h0l-.45,2.6c-.29-.86-.58-1.72-.86-2.59h0L116.09,37l0,0c-.44-1.09-.88-2.19-1.31-3.28l0,0-5.89-4.58,0,0-3.27-2h0c-1.87-.34-3.78-.53-5.6-1.05-4.22-1.21-8.32-1.73-12.17,1Z"/><path d="M178,64.67q3.87-3.9,7.73-7.82l.93.36c-.26,4.64-.27,9.3-.89,13.89a7.26,7.26,0,0,1-3,4.43c-5.25,3.5-10.68,6.75-16.16,9.9-3,1.75-3.12,1.58-3.1-2.07a36.12,36.12,0,0,0-.09-5.89c-.17-1-1.22-2-1.87-2.94v0q8.24-4.93,16.45-9.89Zm4.63,9.88h0Z"/><path class="cls-3" d="M167.44,20.56c2.5-2.45,5.12-4.79,7.48-7.37s2.12-4.53-.86-6.49c-4-2.62-8.24-1.37-12.39-.53-.57.11-1.21,1.25-1.34,2-1.13,6.79-2.16,13.6-3.21,20.4l.77.78,9.57-8.8Z"/><path class="cls-3" d="M136.51,97.6c-1.41,1-2.89,2-4.22,3.07-7.51,6.35-16.76,8.91-25.81,11.88-22,7.22-44.62,8-67.35,6.55a72.18,72.18,0,0,1-22.56-5.49c-5.45-2.25-9.89-6.94-14.46-10.31-.23,2.61,1.52,5,6,7.47l0,0c6.67,5.71,14.7,8.11,23.17,9.09a199.5,199.5,0,0,0,55.91-1.5c14-2.32,27.6-6.19,40.1-13.08,3.43-1.89,6.15-5.08,9.2-7.68Z"/><path d="M123.37,53.44l12.93-8.85-.35-.81c-4.15,1.58-8.39,3-12.37,4.9-1,.47-1,2.78-1.41,4.27,0,.08.73.36,1.13.55Z"/><path class="cls-3" d="M158.23,80.46l-2.58,3.1c1.46.87,2.89,1.8,4.4,2.58.26.13,1.2-.32,1.21-.53.12-2.27.13-4.54.08-6.8,0-.1-1.07-.41-1.34-.21a13.77,13.77,0,0,0-1.78,1.87Z"/><path class="cls-3" d="M145.72,89l15.8-14.5v0c-2.46,2-5.07,3.75-7.36,5.88C151.22,83.16,148.53,86.15,145.72,89Z"/><path class="cls-3" d="M19.31,84.41l-5-3c1.4,3.44,6.42,6.82,11.56,7.57h0L22.63,86.4h0c-1.79.52-2.91-.07-3.27-2Z"/><path class="cls-3" d="M136.5,97.58,145.72,89l-9.21,8.57Z"/><path class="cls-3" d="M6.81,104.18,3.45,99.51l-.81.66,4.18,4Z"/><path class="cls-3" d="M118.09,56.79l1.3,0h0l-4.61-4h0l3.27,3.94Z"/><path class="cls-3" d="M96.35,73.23l-4-3.94v0l3.95,4Z"/><path class="cls-3" d="M119.38,38.33l-2.63-3.94h0l2.64,3.95Z"/><path class="cls-3" d="M120,71.25l4-2.63h0l-4,2.64Z"/><path class="cls-3" d="M111.48,29.78l-3.94-2.64h0l1.3,2,0,0,2.63.63Z"/><path class="cls-3" d="M67.38,89.68h3.84L71.16,89l-3.77.74Z"/><path class="cls-3" d="M114.77,32.41l-3.29-2.63,0,0,3.29,2.64Z"/><path class="cls-3" d="M97.66,23.85,94,23.19l-.06.47,3.77.18Z"/><path class="cls-3" d="M95,39c.43.66.86,1.31,1.3,2l0,0,2,0h0L95,39Z"/><path class="cls-3" d="M98.76,111.38l1.75.72-.77-1.74Z"/><path class="cls-3" d="M93.05,112.73l-1.87.16.37.7,1.52-.85Z"/><path class="cls-3" d="M183.9,56.1l1.91-1.78-.56-.41-1.34,2.2Z"/><path class="cls-3" d="M75.35,116.94l-1.51-.52-.11.41,1.56.36Z"/><path class="cls-3" d="M124.66,103.52l3.28-2v0l-3.3,2Z"/><path class="cls-3" d="M67.39,89.7H64.23l0,.57,3.1-.59Z"/><path class="cls-3" d="M176,63.34l2.64-2h0l-2.63,2Z"/><path class="cls-3" d="M68.63,117.61c.22.09.36.21.5.2a6.13,6.13,0,0,0,.84-.14c-.13-.08-.26-.22-.39-.22A6.72,6.72,0,0,0,68.63,117.61Z"/><path class="cls-3" d="M23.91,112.74l-.12,1.56c.19-.08.54-.2.53-.24a12.79,12.79,0,0,0-.39-1.34Z"/><path class="cls-3" d="M130.58,99.57l-2.63.64v1.32l2.63-2Z"/><path class="cls-3" d="M18.67,112.73l2.18.87.12-.47-2.31-.39Z"/><path class="cls-3" d="M117.41,73.22l2.63-2h0l-1.3,0,0,0-1.29,2Z"/><path class="cls-3" d="M114.78,52.82l-2.64-2h0l2.63,2Z"/><path class="cls-3" d="M77.59,115.37l.26.3c.07-.06.18-.12.2-.2a2,2,0,0,0,0-.42Z"/><path class="cls-3" d="M82.53,85.73l.19,1.51c.15-.51.3-1,.46-1.51h-.65Z"/><path class="cls-3" d="M104.91,25.82l.65,1.32h2l-2.64-1.32Z"/><path class="cls-3" d="M97.67,23.84l1.24.53L99,24l-1.36-.15Z"/><path class="cls-3" d="M8.12,105.49c-.44-.43-.87-.87-1.31-1.31h0l1.32,1.31Z"/><path class="cls-3" d="M25.91,89l2.64.65v0L25.91,89Z"/><path class="cls-3" d="M12.09,106.8l2,1.32h0l-2-1.32Z"/><path class="cls-3" d="M75.25,88.84l.28-.07a1.91,1.91,0,0,0-.33-.25s-.13.12-.2.18Z"/><path class="cls-3" d="M79.33,88.17l.21-.18c-.08,0-.2-.16-.24-.13a1.17,1.17,0,0,0-.26.28Z"/><path class="cls-3" d="M16,109.44l-2-1.31h0c0,.44,0,.87,0,1.31l0,0,2,0Z"/><path class="cls-3" d="M14.07,110.75v-1.29l0,0h-2l0,0,2,1.32Z"/><path class="cls-3" d="M146.38,85.08l2-1.31h0l-2,1.32Z"/><path class="cls-3" d="M63.78,116.25l-.55,0,.05.18Z"/><path class="cls-3" d="M96.35,73.23l2,1.31h0l-2-1.32Z"/><path class="cls-3" d="M124.65,68l1-.74-1-.58,0,0c0,.43,0,.87,0,1.3Z"/><path class="cls-3" d="M110.83,49.53l-2-1.32h0l0,1.3,0,0,2,0Z"/><path class="cls-3" d="M106.87,46.9l-2-1.32h0l2,1.32Z"/><path class="cls-3" d="M102.27,43.6l-2-1.31v0l2,1.33Z"/><path class="cls-3" d="M100.29,42.29l-2-1.32h0l2,1.31Z"/><path class="cls-3" d="M120,40.31l-.66-2h0c-.23.65-.45,1.31-.67,2H120Z"/><path class="cls-3" d="M124.67,62h-1.32l0,0,1.26,0Z"/><path class="cls-3" d="M178.63,60.07v1.3h0L180,60.05v0l-1.31,0Z"/><path class="cls-3" d="M147.69,81.11l-1.32,1.33h0l1.33-1.32Z"/><path class="cls-3" d="M148.36,83.77l1.31-1.33h0l-1.32,1.31Z"/><path class="cls-3" d="M15.38,111.41l2,.66h0l-2-.66Z"/><polygon class="cls-3" points="35.57 116.95 35.36 116.89 35.38 117.06 35.57 116.95"/><polygon class="cls-3" points="96.17 111.85 96.14 112.07 96.34 111.97 96.17 111.85"/><path class="cls-3" d="M153.63,77.17v-1.3l0,0-1.32,1.33,0,0h1.3Z"/><path class="cls-3" d="M86.47,85.74l0,.56.28-.07-.24-.49Z"/><path class="cls-3" d="M142.45,87.7V86.4l0,0-1.33,1.33,0,0h1.29Z"/><path class="cls-3" d="M142.44,89.05l1.32-1.33,0,0h-1.29l0,0V89Z"/><path class="cls-3" d="M153.61,77.19v1.3h0L155,77.18l0,0h-1.3Z"/><polygon class="cls-3" points="107.51 108.59 107.3 108.6 107.38 108.78 107.51 108.59"/><path class="cls-3" d="M110.83,107.47l-.78.27c.08,0,.19.07.25,0a5.58,5.58,0,0,0,.52-.32Z"/><path class="cls-3" d="M81.22,116l-.78.28c.08,0,.18.06.24,0a5.58,5.58,0,0,0,.52-.32Z"/><path class="cls-3" d="M9.45,106.8l1.31,1.32-1.32-1.31Z"/><path class="cls-3" d="M106.23,78.49l-.82-.25c.06.06.11.17.18.18s.42,0,.63.08Z"/><path class="cls-3" d="M115.44,74.55l1.31-.67h0l-1.3-.67,0,0v1.29Z"/><path class="cls-3" d="M149,79.82c.18-.07.38-.14.56-.23s.07-.15.11-.22l-.7.43Z"/><path class="cls-3" d="M116.09,33.73l-1.32-1.32h0l0,1.31,0,0,1.3,0Z"/><path class="cls-3" d="M139.79,89l-1.33,1.33,0,0h1.3l0,0V89Z"/><path class="cls-3" d="M152.31,79.81,151,81.13h0l1.31-1.31Z"/><path class="cls-3" d="M114.78,106.14c-.21,0-.43,0-.64.11s-.11.12-.17.18l.82-.27Z"/><path class="cls-3" d="M118.07,104.84l-2,.63,0,0,2-.67Z"/><path class="cls-3" d="M139.8,91.69l1.34-1.34,0,0h-1.28l0,0v1.3Z"/><polygon class="cls-3" points="101.94 24.76 101.83 24.93 102.06 24.93 101.94 24.76"/><path class="cls-3" d="M104.9,25.82l-.23-.19.24.19Z"/><path class="cls-3" d="M93.71,38.34l-.25-.19.26.18Z"/><path class="cls-3" d="M93.72,38.33,95,39h0l-1.32-.65Z"/><path class="cls-3" d="M104.24,44.92l-1.31-.66h0l1.32.65Z"/><path class="cls-3" d="M108.21,47.54l-1.34-.64h0c.44.22.88.44,1.31.67Z"/><path class="cls-3" d="M183.25,56.78,183,57l.21-.25Z"/><path class="cls-3" d="M181.27,58.73V57.42h0l0,1.32Z"/><path class="cls-3" d="M174,64.67l1.33-.66h0l-1.33.64Z"/><path class="cls-3" d="M172.72,64.66l-.24-.19.23.2Z"/><path class="cls-3" d="M172.71,65.32l1.32-.65,0,0-1.29,0h0c0,.22,0,.44,0,.66Z"/><path class="cls-3" d="M169.44,66.63l-.24-.17.21.2Z"/><path class="cls-3" d="M169.42,67.3l0-.67,0,0a3.42,3.42,0,0,1,0,.64Z"/><path class="cls-3" d="M166.13,69.28l.28-.11-.29.1Z"/><path class="cls-3" d="M162.84,71.26l1.33-.66,0,0-1.32.67Z"/><path class="cls-3" d="M160.85,72.57l1.37-.65,0,0-1.37.64Z"/><path class="cls-3" d="M160.82,72.53l-1.27,0v0h1.31Z"/><path class="cls-3" d="M100.31,75.85,99,75.19v0l1.32.66Z"/><path class="cls-3" d="M114.12,75.86l-1.31.66h0l1.33-.65Z"/><path class="cls-3" d="M102.94,77.17l-.25-.19.24.21Z"/><path class="cls-3" d="M103.59,80.48l.27-.11-.29.09Z"/><path class="cls-3" d="M103.57,80.46l-.27.11.29-.09Z"/><path class="cls-3" d="M89.77,85.75l.28-.12-.3.1Z"/><path class="cls-3" d="M137.17,94.33l.17-.27-.19.24Z"/><path class="cls-3" d="M135.19,93.62l-1.33.67v0l1.35-.66Z"/><path class="cls-3" d="M135.19,95.62l1.33-.66,0,0-1.32.67Z"/><path class="cls-3" d="M131.23,98.9l1.32-.66h0l-1.31.66Z"/><path class="cls-3" d="M6.14,100.22l.11.3-.09-.32Z"/><path class="cls-3" d="M122,102.86l.3-.09-.3.08Z"/><path class="cls-3" d="M122,102.85l-1.31.67h0l1.32-.65Z"/><path class="cls-3" d="M119.39,104.18l1.31-.67h0l-1.33.65Z"/><path class="cls-3" d="M118.07,104.83l1.32-.65h0l-1.31.67Z"/><path class="cls-3" d="M121.36,105.48l-.26.1.28-.08Z"/><path class="cls-3" d="M114.79,106.16l1.31-.66,0,0-1.3.67Z"/><path class="cls-3" d="M110.82,107.46l.28-.08-.27.09Z"/><path class="cls-3" d="M16,109.44l1.32.65h0L16,109.44Z"/><path class="cls-3" d="M17.35,110.09l.23.2-.24-.19Z"/><path class="cls-3" d="M14.05,110.77l1.33.64h0l-1.3-.67Z"/><path class="cls-3" d="M93.07,112.74l.26-.12-.28.11Z"/><path class="cls-3" d="M23.93,112.72l-.23-.15.21.17Z"/><path class="cls-3" d="M18.66,112.74l-1.32-.66h0l1.32.66Z"/><path class="cls-3" d="M87.79,27.13v0Z"/><path class="cls-3" d="M84.5,29.78h0Z"/><path class="cls-3" d="M83.85,30.45l.65-.67h0l-.67.66Z"/><path class="cls-3" d="M83.82,30.43l-.65.65,0,0,.66-.65Z"/><path class="cls-3" d="M83.17,31.08l0,0Z"/><path class="cls-3" d="M116.75,34.39l-.66-.66h0l.66.66Z"/><path class="cls-3" d="M102.93,44.26l-.66-.66h0l.66.66Z"/><path class="cls-3" d="M104.9,45.58l-.66-.66h0l.66.66Z"/><path class="cls-3" d="M108.85,48.21c-.21-.22-.43-.44-.64-.67l0,0,.67.65Z"/><path class="cls-3" d="M111.49,50.18l-.66-.65h0l.66.66Z"/><path class="cls-3" d="M112.14,50.85c-.21-.23-.43-.45-.65-.67h0l.66.66Z"/><path class="cls-3" d="M183.91,56.11l-.66.67v0l.66-.66Z"/><path class="cls-3" d="M181.28,57.42h0Z"/><path class="cls-3" d="M119.39,56.76l.65.67h0l-.66-.65Z"/><path class="cls-3" d="M120.71,58.08l-.66-.66h0l.66.66Z"/><path class="cls-3" d="M120.7,58.09h0Z"/><path class="cls-3" d="M181.28,58.75l-.66.66v0l.66-.66Z"/><path class="cls-3" d="M180,60.05l.66-.66v0l-.66.66Z"/><path class="cls-3" d="M178.65,60.05l0,0Z"/><path class="cls-3" d="M124.65,62.05l0,0Z"/><path class="cls-3" d="M176,63.36l-.67.64h0l.64-.67Z"/><path class="cls-3" d="M172.06,66l.65-.67h0L172,66Z"/><path class="cls-3" d="M172,66h0Z"/><path class="cls-3" d="M169.42,67.3Z"/><path class="cls-3" d="M124,68.62l.65-.67h0l-.66.66Z"/><path class="cls-3" d="M166.12,69.27h0Z"/><path class="cls-3" d="M164.17,70.6l0,0Z"/><path class="cls-3" d="M162.22,71.92l.62-.66h0l-.64.64Z"/><path class="cls-3" d="M159.55,72.56v0Z"/><path class="cls-3" d="M116.75,73.88l.66-.66h0l-.66.66Z"/><path class="cls-3" d="M114.78,75.21l.66-.66h0l-.66.66Z"/><path class="cls-3" d="M99,75.19l-.66-.64h0l.65.67Z"/><path class="cls-3" d="M156.26,75.88l0,0Z"/><path class="cls-3" d="M153.64,75.87l0,0Z"/><path class="cls-3" d="M114.77,75.2l-.65.66h0l.65-.65Z"/><path class="cls-3" d="M156.23,75.85l-.66.66,0,0,.66-.66Z"/><path class="cls-3" d="M100.29,75.87l0,0Z"/><path class="cls-3" d="M155.57,76.51l-.64.65,0,0,.65-.64Z"/><path class="cls-3" d="M112.81,76.52l-.67.65h0l.65-.67Z"/><path class="cls-3" d="M151.65,77.85l.66-.65,0,0-.65.65Z"/><path class="cls-3" d="M112.14,77.17h0Z"/><path class="cls-3" d="M102.93,77.19v0Z"/><path class="cls-3" d="M151.64,77.83v0Z"/><path class="cls-3" d="M110.17,78.49h0Z"/><path class="cls-3" d="M153,79.15l.67-.65h0l-.65.66Z"/><path class="cls-3" d="M110.18,78.5h0Z"/><path class="cls-3" d="M106.22,78.5h0Z"/><path class="cls-3" d="M152.3,79.81l.66-.66h0l-.66.66Z"/><path class="cls-3" d="M148.36,80.48l.66-.66,0,0-.64.67Z"/><path class="cls-3" d="M148.35,80.47l-.66.64,0,0c.21-.22.43-.44.65-.65Z"/><path class="cls-3" d="M151,81.13l-.66.66h0l.66-.66Z"/><path class="cls-3" d="M150.33,81.79l-.66.66h0l.66-.66Z"/><path class="cls-3" d="M146.37,82.44h0Z"/><path class="cls-3" d="M146.37,85.08l-.64.66h0l.66-.65Z"/><path class="cls-3" d="M145.73,85.74l-.69.65,0,0,.66-.68Z"/><path class="cls-3" d="M142.44,86.4l0,0Z"/><path class="cls-3" d="M89.75,85.73l0,0Z"/><path class="cls-3" d="M144.41,87.06l.65-.65,0,0-.65.66Z"/><path class="cls-3" d="M144.39,87.05l-.65.64,0,0,.65-.66Z"/><path class="cls-3" d="M141.09,87.71l-.66.65,0,0,.66-.65Z"/><path class="cls-3" d="M140.43,88.36l-.64.65,0,0,.65-.65Z"/><path class="cls-3" d="M141.79,89.71l.65-.66,0,0-.64.66Z"/><path class="cls-3" d="M141.14,90.35l.65-.64,0,0-.67.65Z"/><path class="cls-3" d="M137.83,91l.65-.66,0,0-.65.66Z"/><path class="cls-3" d="M137.81,91l-.66.66,0,0,.66-.66Z"/><path class="cls-3" d="M139.77,91.66l-.65.66,0,0,.65-.65Z"/><path class="cls-3" d="M137.15,91.66l-.64.67v0l.67-.63Z"/><path class="cls-3" d="M139.12,92.32l0,0Z"/><path class="cls-3" d="M135.85,93l.65-.68v0l-.67.65Z"/><path class="cls-3" d="M135.84,93l-.65.64,0,0,.63-.66Z"/><path class="cls-3" d="M136.52,95l.65-.63,0,0-.65.64Z"/><path class="cls-3" d="M133.22,95l.65-.65v0l-.66.66Z"/><path class="cls-3" d="M133.2,95l-.67.66,0,0,.66-.68Z"/><path class="cls-3" d="M134.53,96.26l.66-.64h0c-.21.22-.43.44-.64.67Z"/><path class="cls-3" d="M132.53,95.61l-.65.66,0,0,.66-.66Z"/><path class="cls-3" d="M133.87,96.93l.66-.67v0l-.67.65Z"/><path class="cls-3" d="M131.25,97l.65-.65,0,0-.65.66Z"/><path class="cls-3" d="M133.87,96.93l-.65.66h0l.66-.65Z"/><path class="cls-3" d="M131.23,96.93l0,0Z"/><path class="cls-3" d="M133.22,97.59l-.66.66h0l.66-.66Z"/><path class="cls-3" d="M129.27,98.26l0,0Z"/><path class="cls-3" d="M129.25,98.24l0,0Z"/><path class="cls-3" d="M4.85,98.9l0,0Z"/><path class="cls-3" d="M131.25,98.91l-.67.66h0l.66-.66Z"/><path class="cls-3" d="M4.83,98.93l.66.64h0l-.65-.66Z"/><path class="cls-3" d="M128,100.21v0Z"/><path class="cls-3" d="M6.16,100.2l-.66-.64h0l.65.65Z"/><path class="cls-3" d="M124.66,101.54h0Z"/><path class="cls-3" d="M124.65,101.53h0Z"/><path class="cls-3" d="M8.15,102.87l0,0Z"/><path class="cls-3" d="M8.78,103.52l-.63-.65,0,0c.23.2.46.4.68.61Z"/><path class="cls-3" d="M124.65,103.51h0Z"/><path class="cls-3" d="M8.79,103.51l.65.68,0,0-.68-.65Z"/><path class="cls-3" d="M9.44,104.19l.66.66,0,0-.66-.66Z"/><path class="cls-3" d="M10.1,104.85l.66.66,0,0-.66-.66Z"/><path class="cls-3" d="M10.76,105.51l.67.63h0l-.63-.66Z"/><path class="cls-3" d="M8.14,105.48l.65.66h0l-.66-.66Z"/><path class="cls-3" d="M11.43,106.14l.66.66h0l-.67-.66Z"/><path class="cls-3" d="M9.44,106.81l-.66-.66h0l.66.66Z"/><path class="cls-3" d="M10.76,108.12l.66.68,0,0Z"/><path class="cls-3" d="M12.08,109.43l-.64-.65,0,0,.64.65Z"/><path class="cls-3" d="M103.59,111.41h0Z"/><path class="cls-3" d="M103.59,111.42h0Z"/><path class="cls-3" d="M81.2,115.37l0,0Z"/><path class="cls-3" d="M81.22,115.35V116h0v-.65Z"/><path d="M160.19,37.69a26.15,26.15,0,0,0-4.26,2.15c-3.9,2.92-7.68,6-11.51,9a32.41,32.41,0,0,0,4.83-2.5C153,43.57,156.55,40.59,160.19,37.69Z"/><path d="M144.39,48.88l-12.47,8.53A25.92,25.92,0,0,0,144.39,48.88Z"/><path d="M168.74,30.45l-8.52,7.21Z"/><path d="M174.67,25.17q-2.94,2.63-5.89,5.24Q171.74,27.8,174.67,25.17Z"/><path d="M177.3,22.54l-2.6,2.61Z"/><path d="M131.87,57.44l-3.25,2Z"/><path d="M179.94,19.92l-2.6,2.59,1.29,0h0Z"/><path d="M178.63,22.54h0Z"/><path d="M117.42,75.85l0,0Z"/><path d="M16,87.06h0Z"/><path d="M137.18,89l0,0Z"/><path d="M43.6,88.79c-2.85,0-5.71,0-8.56,0-.27,0-.53.51-.8.78.35.23.69.66,1,.67,2.77.06,5.54,0,8.31,0C43.6,89.81,43.6,89.3,43.6,88.79Z"/><path d="M25.91,89l2.63.67c0-.65.1-1.8-.11-1.86-1.9-.59-3.86-1-5.8-1.44Z"/><path d="M51.54,89.36H45.76v.7h5.79Z"/><path d="M19.33,84.43c.36,1.89,1.48,2.48,3.27,2L22,85.08h0Z"/><path d="M31.79,90,32.52,89c-.34-.21-.68-.56-1-.57s-.64.36-1,.57Z"/><path d="M22,85.08Z"/><path d="M82.52,85.74h0Z"/><path d="M98.31,54.13c-.31,2.66-1.57,1.32-2.59.58-6-4.33-12.26-8-19.41-10a5.68,5.68,0,0,1-1.55-1.14c3.91-.66,7.61-.46,11.28-.72s6,.92,7.6,4.26a60,60,0,0,0,4.69,7.06Zm-3.92-2.64-.68-.65q-1.65-2.62-3.28-5.26h0l-7.9-.65-.22-.17.23.16,11.19,5.92c.21.23.43.46.65.68Z"/><path d="M86.48,59.41c-1.35-1.58-3.1-3-4-4.78-1.66-3.45-4-2.9-6.77-2.07a5.89,5.89,0,0,0,.17.77c3.71-.29,5.41,2.22,7.39,4.79,2.24,2.91,5.07,5.37,7.64,8l.31-.3-4.79-6.45Z"/><path d="M108.86,48.21l-.67-.65c-.43-.23-.87-.45-1.31-.67l-2-1.32-.66-.66-1.32-.65-.66-.66-2-1.33-2-1.31-2,0,3.23,3.25.06.06,9.18,5.22Z"/><path d="M112.15,50.84l-.66-.66-.66-.66-2,0,9.18,7.21-3.27-3.94Z"/><path d="M124,68.62l.66-.66c0-.43,0-.87,0-1.3l-5.89,4.58,1.3,0Z"/><path d="M71.46,53.76a9.53,9.53,0,0,0,2.19.07c.24,0,.37-.6.54-.92a7,7,0,0,0-1.68-.25C72.26,52.67,72,53.13,71.46,53.76Z"/><path d="M116.76,73.89l.66-.66,1.29-2-3.25,2Z"/><path d="M68.46,54.64,70,53.56c-.36-.26-.69-.66-1.09-.74a1,1,0,0,0-.83.63C68.05,53.81,68.33,54.24,68.46,54.64Z"/><path d="M78.54,35.74l.07-.07Z"/><path d="M99.6,44.23l.06.06Z"/><path d="M98.31,54.13h0Z"/><path d="M86.46,59.39l0,0Z"/><path d="M95.69,69.28h0Z"/><path d="M116.76,34.38l-.66-.66-1.3,0c.43,1.09.87,2.19,1.31,3.28l0,0,2.64,3.3c.22-.66.44-1.32.67-2Z"/><path d="M114.76,33.71l0-1.31-3.29-2.64-2.63-.63Z"/><path d="M120.05,40.3h-1.31c.28.87.57,1.73.86,2.59Z"/><path d="M107.54,27.13h-2l3.27,2Z"/><path d="M116.11,37l0,0Z"/><path d="M178,64.66h0Z"/><path d="M182.58,74.54h0Z"/><path d="M182.6,74.55h0Z"/><path d="M167.44,20.56h0Z"/><path d="M8.12,110.75l0,0Z"/><path d="M123.37,53.44l-.07.06Z"/><path d="M158.23,80.46h0Z"/><path d="M141.1,90.33l.67-.65.64-.66V87.73h-1.29l-.66.65-.65.65v1.3Z"/><path class="cls-3" d="M93.71,50.84q-1.65-2.62-3.28-5.26h0l-7.9-.65h0l11.19,5.92Z"/><path class="cls-3" d="M82.52,44.92l-.22-.17.23.16Z"/><path class="cls-3" d="M93.72,50.83l.65.68v0l-.67-.65Z"/><path class="cls-3" d="M94.37,51.51v0Z"/><path d="M90.42,45.57h0Z"/></g></g></svg>