<svg xmlns="http://www.w3.org/2000/svg" xmlns:xlink="http://www.w3.org/1999/xlink" viewBox="0 0 205.84 106.1"><defs><style>.cls-1{fill:none;}.cls-2{fill:#d7c08e;}.cls-3{fill:url(#New_Pattern_Swatch_1);}</style><pattern id="New_Pattern_Swatch_1" data-name="New Pattern Swatch 1" width="29.49" height="30" patternTransform="translate(15.04 -33.15)" patternUnits="userSpaceOnUse" viewBox="0 0 29.49 30"><rect class="cls-1" width="29.49" height="30"/><rect class="cls-2" width="29.49" height="30"/></pattern></defs><g id="Layer_2" data-name="Layer 2"><g id="Layer_1-2" data-name="Layer 1"><path d="M104.51,10.06l3.24-3.24v0C111.4,4.56,113.79.18,119,.5c2.94.17,6-.75,8.88-.43,9.27,1,17.09,5.83,24.8,10.55,4.21,2.57,8.2,2.34,12.29.47a89.07,89.07,0,0,0,10-5.35,19.33,19.33,0,0,1,15.46-2.68c2.55.63,4.46,1.81,5.3,4.58,2.72,9,5.85,17.84,8.35,26.88,1.94,7,2.75,14.2-.07,21.29a3.76,3.76,0,0,0-.27,1.55c.38,6.33,1,12.64,1.16,19,.22,7.47-.29,8-7.37,10.21a34.17,34.17,0,0,1-3.43.95c-7.5,1.52-15,3.16-22.53,4.41a17.59,17.59,0,0,1-7.49-.49A127.31,127.31,0,0,1,151,86.75c-2.16-.88-3.59-.34-5.21,1.12-4.4,3.95-8.94,7.75-13.43,11.61h0c-10.88,6.06-22.75,6.64-34.82,6.63a307.78,307.78,0,0,1-74.5-9.53A120.54,120.54,0,0,1,3.89,90c-5.23-2.3-5.07-9.07-.21-12.32A3,3,0,0,0,5,75.7C5.51,69,8.18,65.54,15.12,63.82c5.54-1.37,11.17-2.36,16.79-3.37,12.74-2.3,24.4-6.94,34.37-15.4h0c6.57-5.83,13.29-11.5,19.63-17.57,2.49-2.38,3.77-6,7.56-7l0,0c1.08-1.11,2.14-2.25,3.25-3.33s2.33-2.15,3.5-3.22l4.25-3.8Zm37.57,79-1.94,1.31c-2.31,1.38-4.71,2.63-6.89,4.18-6.32,4.46-13.55,6.26-21,6.73C78.79,103.42,46,100,13.94,89.72a56.42,56.42,0,0,1-6-2.3c-1.85-.83-3.6-1.89-5.39-2.84l-.79.58c.89,1.13,1.56,2.78,2.73,3.3a90.58,90.58,0,0,0,12.93,5,293.28,293.28,0,0,0,65.32,10.4,240.39,240.39,0,0,0,33.52-.76c9.36-.91,17.89-4.79,23.91-12.69l2-1.28.64-.65,0,0Zm-12.32,5.2v0ZM2.81,82.62l0,0ZM182.89,68.38ZM77.94,65.14c-.6,1.39-1.2,2.78-1.79,4.17,3.27-.83,3.71-1.87,1.8-4.18l-.63-.65-.65-.65c-2.4-1.24-4.24-.82-4.46,1A3.06,3.06,0,0,0,72.55,66a7,7,0,0,0,1-.39c1-.57,2.07-1.17,3.11-1.76l.64.66ZM9.29,84.56,8,83.92l-1.3-.65-.64-.65L4,80.31l-.47.51L6,82.64l.63.64L8,83.93l1.29.65ZM167.34,12l.28-.11-.3.09-1.28.66h0ZM127.17,3l-1.76-.62-.07.39,1.84.21h0ZM122.8,96.48l.21.23.3-.46,0,0Zm78.33-35.65s-.07.13-.11.2l.67-.42,0,0C201.49,60.67,201.3,60.74,201.13,60.83ZM179.79,5.26c-.08,0-.19-.06-.25,0a5.7,5.7,0,0,0-.54.3l-.27.12.27-.11ZM91.93,96.42l-.39-.18-3.88-.65a12,12,0,0,1,2.11-2c.92-.56,2-.78,2.78-1.8-1.19-.13-3.13.1-3.39-.45-.55-1.16-.2-2.74-.21-4.14a1.85,1.85,0,0,0,.29.13l2.44.31-.25-1.12-2.47.7-3.13-.07-.33.18-3-5.3h0l-3.24-5.19h0L70,66c-.59-.69-1.15-1.42-1.72-2.13l1.27-1.31L71.65,61c-.5-.56-1-1.13-1.48-1.7h0c-.22,1.09-.43,2.17-.65,3.25l-1.32,1.28C64,62,59.78,60.25,55.59,58.39c-.2-.09-.27-.87-.13-1.22a6.91,6.91,0,0,1,1-1.33,16.7,16.7,0,0,0-2.52-.32c-.14,0-.21.84-.44,1.21s-.6,1-1,1.13c-3.65.78-7.32,1.46-11,2.19Q30.25,62.32,19,64.62A51.33,51.33,0,0,0,13.68,66c-6.23,2-9,7.64-5.87,13.27,1.3,2.33,4.4,4.31,7.08,5.11C31.43,89.32,48.06,94,65.44,94.94c5.6.31,11.18.92,16.77,1.22a33.86,33.86,0,0,0,5.46-.58l3.88.65ZM65.63,61.25l1.93-3.49c-.79.27-2,.35-2.18.81-.27.76.14,1.77.26,2.67Zm18.78,11c0,2.78-1.91,2.74-3.88,2.59-.83-2.36,0-3.89,2.59-4.44l-.45-1c-1,.38-2.37.46-3,1.18-1.35,1.54-1,3.12.87,4.2.64.65,1.29,1.3,1.93,2l0,0c3.33-1.35,3.59-2,1.94-4.54ZM89.57,80c-.75-.91-1.65-2.68-2.21-2.58-1.35.25-3.6,1.42-3.57,2.13a9.61,9.61,0,0,0,2.11,5c.29.38,2.72-.25,3.52-1,.61-.62.19-2.25.23-3.42Zm27.88-69.91c2.66,2.31,5.3,4.66,8,6.91a5.11,5.11,0,0,0,1.88.54c-.08-.59.05-1.4-.28-1.73-3.5-3.43-6.85-7.17-12.2-7.66h0c-.29-.13-.6-.39-.87-.35-1.25.17-2.48.42-3.72.65,1,.31,2.06.69,3.11.93,1.34.3,2.71.48,4.07.72Zm69.84,54.79c1.7-.66,3.41-1.33,5.15-1.89,7.42-2.39,11.47-7.3,11.44-15.25,0-6.34-.37-12.64-3.43-18.52l-2.66,3.54v0A37.32,37.32,0,0,1,194,37.67c-5.44,5.18-10.08,10.79-11.39,18.48-.25,1.46-.27,3-.39,4.45v.65C181.59,67,181.59,67,187.29,64.85Zm-29,13.24-.28.09.28-.08c1.83-.65,3.64-1.37,5.49-1.92,3.64-1.06,4.21-.63,4.3,3.06.05,1.94.08,3.88.06,5.82s.7,2.73,2.76,2.32c8.24-1.63,16.52-3,24.73-4.79,6.68-1.43,7.46-2.66,7.36-9.34-.05-2.91-.05-5.82-.08-8.73,0-1.21,0-2.24-1.8-1.37-3.66,1.82-7.39,3.5-11.08,5.23h0l-19.44,5.19h0ZM89.83,36.59c.63.34,1.25.68,1.89,1,4.18,2.14,8.53,4,12.47,6.52,2.11,1.35,3.34,2.07,4.79-.46a19.56,19.56,0,0,1,2-2.49h0l7.65-7.26a3.58,3.58,0,0,1,.26.29,23.17,23.17,0,0,1-2,3.22c-1.88,2.21-3.93,4.29-5.86,6.46-3.17,3.55-3.07,3.46.56,6.62,4.28,3.74,8.66,4.79,14.27,2.73,9.13-3.35,18.58-5.6,28.47-4.54,8.2.88,12.87,5,14.87,13,.2.84.28,1.71.54,2.53.5,1.57,1.15,4.47,1.63,4.45a24,24,0,0,0,7.1-1.68c.56-.21.89-1.64.94-2.53.17-2.58.15-5.17.2-7.76h0A40.37,40.37,0,0,1,192.14,36c7.06-6.25,7.06-13.78,4-21.82-1.21-3.16-2.23-.11-2.66.44-4.87,6.24-11.6,7.72-18.94,7.53-6.07-.17-11.35-2.92-16.68-5.47-3.36-1.61-6.26-5.43-10.53-2.05.51-1.6.89-2.77,1.27-3.94l0,0-3.22-1.92,0,0-3.22-1.92,0,0c-.9-.13-1.79-.28-2.7-.39-2.55-.31-5.11-.59-7.67-.89l-.08-.3.1.29a35.55,35.55,0,0,1,3.89,3.33,5,5,0,0,1,1.48,3.22,3.33,3.33,0,0,1-2.27,2.28A5.15,5.15,0,0,1,131.57,13c-1.9-1.49-3.52-3.38-5.51-4.73-.63-.43-2.06.34-3.13.56A11.18,11.18,0,0,0,124.46,11c1.28,1.13,2.82,2,4,3.17a6.41,6.41,0,0,1,2.07,3.28A3.17,3.17,0,0,1,128.7,20a6.33,6.33,0,0,1-4-1.17c-1.87-1.4-3.37-3.29-5.12-4.85-.47-.41-1.32-.38-2-.55a6,6,0,0,0,.86,1.77c1.31,1.27,2.93,2.27,4.06,3.67a5.83,5.83,0,0,1,1.23,3.63c0,.75-1.42,2.09-2.07,2a7.14,7.14,0,0,1-3.4-1.78c-1.73-1.41-3.23-3.11-5-4.49-.42-.33-1.46.13-2.22.23.28.6.41,1.45.88,1.75,1.35.88,3,1.34,4.22,2.33a4.77,4.77,0,0,1,1.86,3,3.39,3.39,0,0,1-1.87,2.64,5.2,5.2,0,0,1-3.42-.83c-2-1.12-3.91-2.6-6-3.7-.54-.29-1.52.26-2.3.42.36.66.57,1.6,1.12,1.9a19.65,19.65,0,0,0,3.9,1.46c1.94.57,3.09,1.66,2.45,3.77s-2.39,2.72-4.37,1.91a35.94,35.94,0,0,1-5.44-2.82c-2.08-1.32-3.92-1.59-5.78.3-1.56,1.6-3.18,3.14-4.78,4.71h0ZM84,38.7c-4-.79-7.61-.25-11,2.83C68.15,46,62.67,49.81,57.61,53.77a32.67,32.67,0,0,1,17.71,6.78l.09.09c3.9,4,7.94,7.9,11.65,12.09,4.94,5.56,6.66,12.44,7.37,19.66.43,4.42.52,4.29,4.89,4.45,11,.4,21.88-.45,31.76-5.75,6.53-3.5,12.57-7.91,18.95-11.72q7.75-4.64,15.81-8.77c1.84-.94,2.39-1.95,1.86-3.78q-1.47-5.05-2.95-10.1h0a6.58,6.58,0,0,1-1.35-.85c-5.73-5.93-13-5.45-20.05-4.21s-14,3.65-21,5.25c-2.29.52-5,1.2-6.84-1.48h0l-3.22-1.93h0c-2.14-1.5-4.38-2.89-6.42-4.51-2.89-2.29-5.65-4.75-8.46-7.14l0,0C92.93,40.76,88.51,39.58,84,38.7ZM192.32,11.08c1.3-3.1.21-4.8-3.15-5.15a20.08,20.08,0,0,0-4.77.19c-7.61,1.06-8.72,2.47-8.33,11.42,0,.85,2.08,1.62,2.55,2C185.3,18.52,190,16.56,192.32,11.08Zm-31.1,67.64a59.65,59.65,0,0,0-5.8,2.82c-1.49.79-1.3,1.6.18,2.15,2.72,1,5.49,1.92,8.19,3,2.23.88,3,.13,2.79-2.1-.07-.75,0-1.51,0-2.27C166.52,77.19,166,76.81,161.22,78.72Zm10.44-59.81c1.68.41,2.66-.38,2.65-2.23,0-1.28.1-2.57.16-3.85,0-.83.06-1.66.1-2.49a17.07,17.07,0,0,0-2.59.85c-3.08,1.58-6.12,3.23-9.65,5.11C165.56,17.22,168.59,18.16,171.66,18.91ZM80.4,35c4.29,1.92,5.75,1,13-7.81C86.59,26.33,84.65,32.2,80.4,35ZM203,81.63c-10.83,5.07-23,4.8-34.21,8.43C177.33,90.67,200.26,84.86,203,81.63ZM105.55,14.22c4.81.08,8.7,2.18,12.13,5.35a12.41,12.41,0,0,0,2,1.62c.38.22,1,.08,1.48.1a3.68,3.68,0,0,0-.21-1.4c-2.85-4.54-12.21-8.47-17.43-7.32a9.6,9.6,0,0,0-1.74,1.09A31.16,31.16,0,0,0,105.55,14.22Zm-8.21,6.45a26.13,26.13,0,0,1,15.58,4.18c.6.37,1.56.13,2.36.18a7.43,7.43,0,0,0-1.4-1.75,25.32,25.32,0,0,0-15.12-4.65,10.45,10.45,0,0,0-2.76.89l0,.7A3.56,3.56,0,0,0,97.34,20.67Zm-7,4a31.64,31.64,0,0,1,3.5.78c2.49.83,5,1.69,7.4,2.7,2.17.9,4.24,2.06,6.39,3,.36.16.95-.21,1.43-.34a3,3,0,0,0-.42-1.07c-1.88-1.92-11.86-6-14.78-6.44ZM116.69,3.91a12.6,12.6,0,0,0-2,1.18,7.26,7.26,0,0,0,2.16.56c6-.4,11.64,0,15.49,5.6.33.5,1.37.51,2.08.75a8.29,8.29,0,0,0-.83-2.19c-3.79-4.93-9.25-5.82-15-6.08A7.47,7.47,0,0,0,116.69,3.91ZM165.6,90.32l.38-1.07-14.87-5.4L150.7,85ZM100.92,16.25a2,2,0,0,0,0,.55c.85.08,1.7.13,2.56.19l-.07-1.09C102.6,16,101.76,16.12,100.92,16.25Zm-39.56,41a2.88,2.88,0,0,0,.23,1.12,3.77,3.77,0,0,0,1-.9c.13-.22-.15-.66-.36-1.39C61.78,56.71,61.42,57,61.36,57.28Zm46.88-46.44c.23.05.5-.16.76-.26a3.85,3.85,0,0,0-.89-.74c-.19-.09-.52.13-1.16.33A7.33,7.33,0,0,0,108.24,10.84Zm5.32.93c0,.06.23.43.35.43a2.8,2.8,0,0,0,.8-.27l-.47-.84A4.3,4.3,0,0,0,113.56,11.77Zm-32,86.59c.09,0,.18-.25.27-.38a1.64,1.64,0,0,0-.54-.18c-.09,0-.19.2-.29.32A1.75,1.75,0,0,0,81.51,98.36Zm26.07-80.85c.14.06.32.2.4.15s.22-.27.33-.42l-.4-.17ZM77.29,98c.19,0,.39,0,.59.06,0-.11,0-.31-.06-.31a5.63,5.63,0,0,0-.58,0C77.25,97.83,77.26,98,77.29,98Zm-7.18-.62c.1,0,.16-.15.24-.23a.78.78,0,0,0-.26,0,.56.56,0,0,0-.2.14C70,97.28,70.06,97.37,70.11,97.35Zm5.23-31.08.43-.15c0-.09-.09-.21-.16-.24s-.18.06-.27.09Zm-7.25-5.74a.21.21,0,0,0,.09.2s.13-.06.2-.09l-.1-.21C68.21,60.46,68.11,60.48,68.09,60.53Zm114.38-56,0,.18.19-.12ZM59.17,57.33l-.09-.21-.16.19ZM90.28,90l.2-.1-.18-.13ZM63.47,96.54h-.22l.11.16Z"/><path d="M107.74,6.84v0Z"/><path d="M104.51,10.06h0Z"/><path d="M93.5,20.42l0,0Z"/><path d="M66.29,45.05h0Z"/><path d="M132.37,99.47h0Z"/><path class="cls-3" d="M115.51,55.41l-3.22-1.93h0c-2.14-1.5-4.38-2.89-6.42-4.51-2.89-2.29-5.65-4.75-8.46-7.14l0,0c-4.44-1-8.86-2.22-13.33-3.1-4-.79-7.61-.25-11,2.83C68.15,46,62.67,49.81,57.61,53.77a32.67,32.67,0,0,1,17.71,6.78l.09.09c3.9,4,7.94,7.9,11.65,12.09,4.94,5.56,6.66,12.44,7.37,19.66.43,4.42.52,4.29,4.89,4.45,11,.4,21.88-.45,31.76-5.75,6.53-3.5,12.57-7.91,18.95-11.72q7.75-4.64,15.81-8.77c1.84-.94,2.39-1.95,1.86-3.78q-1.47-5.05-2.95-10.1h0a6.58,6.58,0,0,1-1.35-.85c-5.73-5.93-13-5.45-20.05-4.21s-14,3.65-21,5.25c-2.29.52-5,1.2-6.84-1.48Z"/><path class="cls-3" d="M179.65,56.72A40.37,40.37,0,0,1,192.14,36c7.06-6.25,7.06-13.78,4-21.82-1.21-3.16-2.23-.11-2.66.44-4.87,6.24-11.6,7.72-18.94,7.53-6.07-.17-11.35-2.92-16.68-5.47-3.36-1.61-6.26-5.43-10.53-2.05.51-1.6.89-2.77,1.27-3.94l0,0-3.22-1.92,0,0-3.22-1.92,0,0c-.9-.13-1.79-.28-2.7-.39-2.55-.31-5.11-.59-7.67-.89h0a35.55,35.55,0,0,1,3.89,3.33,5,5,0,0,1,1.48,3.22,3.33,3.33,0,0,1-2.27,2.28A5.15,5.15,0,0,1,131.57,13c-1.9-1.49-3.52-3.38-5.51-4.73-.63-.43-2.06.34-3.13.56A11.18,11.18,0,0,0,124.46,11c1.28,1.13,2.82,2,4,3.17a6.41,6.41,0,0,1,2.07,3.28A3.17,3.17,0,0,1,128.7,20a6.33,6.33,0,0,1-4-1.17c-1.87-1.4-3.37-3.29-5.12-4.85-.47-.41-1.32-.38-2-.55a6,6,0,0,0,.86,1.77c1.31,1.27,2.93,2.27,4.06,3.67a5.83,5.83,0,0,1,1.23,3.63c0,.75-1.42,2.09-2.07,2a7.14,7.14,0,0,1-3.4-1.78c-1.73-1.41-3.23-3.11-5-4.49-.42-.33-1.46.13-2.22.23.28.6.41,1.45.88,1.75,1.35.88,3,1.34,4.22,2.33a4.77,4.77,0,0,1,1.86,3,3.39,3.39,0,0,1-1.87,2.64,5.2,5.2,0,0,1-3.42-.83c-2-1.12-3.91-2.6-6-3.7-.54-.29-1.52.26-2.3.42.36.66.57,1.6,1.12,1.9a19.65,19.65,0,0,0,3.9,1.46c1.94.57,3.09,1.66,2.45,3.77s-2.39,2.72-4.37,1.91a35.94,35.94,0,0,1-5.44-2.82c-2.08-1.32-3.92-1.59-5.78.3-1.56,1.6-3.18,3.14-4.78,4.71h0l-1.72,1.26c.63.34,1.25.68,1.89,1,4.18,2.14,8.53,4,12.47,6.52,2.11,1.35,3.34,2.07,4.79-.46a19.56,19.56,0,0,1,2-2.49h0l7.65-7.26,11.61-9.75,5.86-4.52,3.25-2c1.6-1,3.17-2.09,4.81-3,.35-.2,1,.05,1.45.1-.22.43-.33,1.11-.67,1.26-1.74.75-3.54,1.36-5.31,2l-3.23,2-5.84,4.6-5.94,5.56-.06.06-5.67,4a23.17,23.17,0,0,1-2,3.22c-1.88,2.21-3.93,4.29-5.86,6.46-3.17,3.55-3.07,3.46.56,6.62,4.28,3.74,8.66,4.79,14.27,2.73,9.13-3.35,18.58-5.6,28.47-4.54,8.2.88,12.87,5,14.87,13,.2.84.28,1.71.54,2.53.5,1.57,1.15,4.47,1.63,4.45a24,24,0,0,0,7.1-1.68c.56-.21.89-1.64.94-2.53.17-2.58.15-5.17.2-7.76Z"/><path class="cls-3" d="M68.21,63.83C64,62,59.78,60.25,55.59,58.39c-.2-.09-.27-.87-.13-1.22a6.91,6.91,0,0,1,1-1.33,16.7,16.7,0,0,0-2.52-.32c-.14,0-.21.84-.44,1.21s-.6,1-1,1.13c-3.65.78-7.32,1.46-11,2.19Q30.25,62.32,19,64.62A51.33,51.33,0,0,0,13.68,66c-6.23,2-9,7.64-5.87,13.27,1.3,2.33,4.4,4.31,7.08,5.11C31.43,89.32,48.06,94,65.44,94.94c5.6.31,11.18.92,16.77,1.22a33.86,33.86,0,0,0,5.46-.58h0a12,12,0,0,1,2.11-2c.92-.56,2-.78,2.78-1.8-1.19-.13-3.13.1-3.39-.45-.55-1.16-.2-2.74-.21-4.14v0l-3.13-.07q.66,3.23,1.33,6.45l-1.66.12V87.28l-3-5.3h0l-3.24-5.19h0L70,66c-.59-.69-1.15-1.42-1.72-2.13Z"/><path d="M158.27,78.1c1.83-.65,3.64-1.37,5.49-1.92,3.64-1.06,4.21-.63,4.3,3.06.05,1.94.08,3.88.06,5.82s.7,2.73,2.76,2.32c8.24-1.63,16.52-3,24.73-4.79,6.68-1.43,7.46-2.66,7.36-9.34-.05-2.91-.05-5.82-.08-8.73,0-1.21,0-2.24-1.8-1.37-3.66,1.82-7.39,3.5-11.08,5.23h0l-19.44,5.19h0l-12.31,4.54Z"/><path class="cls-3" d="M197.78,32.75A37.32,37.32,0,0,1,194,37.67c-5.44,5.18-10.08,10.79-11.39,18.48-.25,1.46-.27,3-.39,4.45l0,0v.69l0,0c-.66,5.79-.66,5.78,5,3.6,1.7-.66,3.41-1.33,5.15-1.89,7.42-2.39,11.47-7.3,11.44-15.25,0-6.34-.37-12.64-3.43-18.52l-2.66,3.54Z"/><path class="cls-3" d="M140.14,90.41c-2.31,1.38-4.71,2.63-6.89,4.18-6.32,4.46-13.55,6.26-21,6.73C78.79,103.42,46,100,13.94,89.72a56.42,56.42,0,0,1-6-2.3c-1.85-.83-3.6-1.89-5.39-2.84l-.79.58c.89,1.13,1.56,2.78,2.73,3.3a90.58,90.58,0,0,0,12.93,5,293.28,293.28,0,0,0,65.32,10.4,240.39,240.39,0,0,0,33.52-.76c9.36-.91,17.89-4.79,23.91-12.69Z"/><path class="cls-3" d="M178.62,19.5c6.68-1,11.4-2.94,13.7-8.42,1.3-3.1.21-4.8-3.15-5.15a20.08,20.08,0,0,0-4.77.19c-7.61,1.06-8.72,2.47-8.33,11.42C176.1,18.39,178.15,19.16,178.62,19.5Z"/><path class="cls-3" d="M166.57,82.32c0-5.13-.55-5.51-5.35-3.6a59.65,59.65,0,0,0-5.8,2.82c-1.49.79-1.3,1.6.18,2.15,2.72,1,5.49,1.92,8.19,3,2.23.88,3,.13,2.79-2.1C166.51,83.84,166.57,83.08,166.57,82.32Z"/><path d="M162.33,16.3c3.23.92,6.26,1.86,9.33,2.61,1.68.41,2.66-.38,2.65-2.23,0-1.28.1-2.57.16-3.85,0-.83.06-1.66.1-2.49a17.07,17.07,0,0,0-2.59.85C168.9,12.77,165.86,14.42,162.33,16.3Z"/><path class="cls-3" d="M93.4,27.16c-6.81-.83-8.75,5-13,7.81C84.69,36.89,86.15,36,93.4,27.16Z"/><path class="cls-3" d="M168.75,90.06c8.58.61,31.51-5.2,34.21-8.43C192.13,86.7,180,86.43,168.75,90.06Z"/><path class="cls-3" d="M101.79,13.66a31.16,31.16,0,0,0,3.76.56c4.81.08,8.7,2.18,12.13,5.35a12.41,12.41,0,0,0,2,1.62c.38.22,1,.08,1.48.1a3.68,3.68,0,0,0-.21-1.4c-2.85-4.54-12.21-8.47-17.43-7.32A9.6,9.6,0,0,0,101.79,13.66Z"/><path class="cls-3" d="M96.05,20.22a3.56,3.56,0,0,0,1.29.45,26.13,26.13,0,0,1,15.58,4.18c.6.37,1.56.13,2.36.18a7.43,7.43,0,0,0-1.4-1.75,25.32,25.32,0,0,0-15.12-4.65,10.45,10.45,0,0,0-2.76.89Z"/><path class="cls-3" d="M114.88,8.13c-.29-.13-.6-.39-.87-.35-1.25.17-2.48.42-3.72.65,1,.31,2.06.69,3.11.93,1.34.3,2.71.48,4.07.72l0,0c2.66,2.31,5.3,4.66,8,6.91a5.11,5.11,0,0,0,1.88.54c-.08-.59.05-1.4-.28-1.73-3.5-3.43-6.85-7.17-12.2-7.66Z"/><path class="cls-3" d="M93.88,23.27l-3.52,1.37a31.64,31.64,0,0,1,3.5.78c2.49.83,5,1.69,7.4,2.7,2.17.9,4.24,2.06,6.39,3,.36.16.95-.21,1.43-.34a3,3,0,0,0-.42-1.07C106.78,27.79,96.8,23.69,93.88,23.27Z"/><path class="cls-3" d="M118.6,3.73a7.47,7.47,0,0,0-1.91.18,12.6,12.6,0,0,0-2,1.18,7.26,7.26,0,0,0,2.16.56c6-.4,11.64,0,15.49,5.6.33.5,1.37.51,2.08.75a8.29,8.29,0,0,0-.83-2.19C129.77,4.88,124.31,4,118.6,3.73Z"/><path class="cls-3" d="M89.57,80c-.75-.91-1.65-2.68-2.21-2.58-1.35.25-3.6,1.42-3.57,2.13a9.61,9.61,0,0,0,2.11,5c.29.38,2.72-.25,3.52-1,.61-.62.19-2.25.23-3.42-.18.6-.18,1.54-.57,1.75a4.34,4.34,0,0,1-2.78.6,2.6,2.6,0,0,1-.68-2.27,4.49,4.49,0,0,1,2.62-1C88.63,79.09,89.12,79.68,89.57,80Z"/><path class="cls-3" d="M150.7,85l14.9,5.32.38-1.07-14.87-5.4Z"/><path class="cls-3" d="M80.53,74.86c-.83-2.36,0-3.89,2.59-4.44l-.45-1c-1,.38-2.37.46-3,1.18-1.35,1.54-1,3.12.87,4.2Z"/><path class="cls-3" d="M82.49,76.79c3.33-1.35,3.59-2,1.94-4.54l0,0c0,2.78-1.91,2.74-3.88,2.59h0c.64.65,1.29,1.3,1.93,2Z"/><path class="cls-3" d="M76.67,63.83c-2.4-1.24-4.24-.82-4.46,1A3.06,3.06,0,0,0,72.55,66a7,7,0,0,0,1-.39c1-.57,2.07-1.17,3.11-1.76Z"/><path class="cls-3" d="M77.94,65.14c-.6,1.39-1.2,2.78-1.79,4.17,3.27-.83,3.71-1.87,1.8-4.18Z"/><path class="cls-3" d="M65.63,61.25l1.93-3.49c-.79.27-2,.35-2.18.81-.27.76.14,1.77.26,2.67Z"/><path class="cls-3" d="M103.45,15.9c-.85.11-1.69.22-2.53.35a2,2,0,0,0,0,.55c.85.08,1.7.13,2.56.19Z"/><path class="cls-3" d="M89,87.15a1.85,1.85,0,0,0,.29.13l2.44.31-.25-1.12-2.47.7Z"/><path class="cls-3" d="M69.52,62.54,71.65,61c-.5-.56-1-1.13-1.48-1.7h0c-.22,1.09-.43,2.17-.65,3.25Z"/><path class="cls-3" d="M62.26,56.11c-.48.6-.84.85-.9,1.17a2.88,2.88,0,0,0,.23,1.12,3.77,3.77,0,0,0,1-.9C62.75,57.28,62.47,56.84,62.26,56.11Z"/><path class="cls-3" d="M91.54,96.24l-3.88-.65h0l3.88.65Z"/><path class="cls-3" d="M107,10.17a7.33,7.33,0,0,0,1.29.67c.23.05.5-.16.76-.26a3.85,3.85,0,0,0-.89-.74C107.92,9.75,107.59,10,107,10.17Z"/><path class="cls-3" d="M6.05,82.62,4,80.31l-.47.51L6,82.64Z"/><path class="cls-3" d="M114.24,11.09a4.3,4.3,0,0,0-.68.68c0,.06.23.43.35.43a2.8,2.8,0,0,0,.8-.27Z"/><path class="cls-3" d="M81,98.12a1.75,1.75,0,0,0,.56.24c.09,0,.18-.25.27-.38a1.64,1.64,0,0,0-.54-.18C81.15,97.79,81.05,98,81,98.12Z"/><path class="cls-3" d="M107.91,17.07l-.33.44c.14.06.32.2.4.15s.22-.27.33-.42Z"/><path class="cls-3" d="M77.24,97.76c0,.07,0,.2.05.21.19,0,.39,0,.59.06,0-.11,0-.31-.06-.31A3.77,3.77,0,0,0,77.24,97.76Z"/><path class="cls-3" d="M68.25,63.85l1.27-1.31h0l-1.32,1.28Z"/><path class="cls-3" d="M127.17,3l-1.76-.62-.07.39,1.84.21Z"/><path class="cls-3" d="M69.89,97.24c.08,0,.17.13.22.11s.16-.15.24-.23a.78.78,0,0,0-.26,0A.56.56,0,0,0,69.89,97.24Z"/><path class="cls-3" d="M140.13,90.4l2-1.28,0,0-1.94,1.31Z"/><path class="cls-3" d="M75.34,66v.3l.43-.15c0-.09-.09-.21-.16-.24S75.43,65.94,75.34,66Z"/><path class="cls-3" d="M68.28,60.43c-.07,0-.17,0-.19.1a.21.21,0,0,0,.09.2s.13-.06.2-.09Z"/><polygon class="cls-3" points="182.69 4.55 182.47 4.49 182.5 4.67 182.69 4.55"/><path class="cls-3" d="M179,5.54l.79-.28c-.08,0-.19-.06-.25,0a5.7,5.7,0,0,0-.54.3Z"/><path class="cls-3" d="M201.67,60.59c-.18.08-.37.15-.54.24s-.07.13-.11.2l.67-.42Z"/><polygon class="cls-3" points="58.92 57.31 59.17 57.33 59.08 57.12 58.92 57.31"/><path class="cls-3" d="M123.29,96.23l-.49.25.21.23.3-.46Z"/><polygon class="cls-3" points="90.3 89.75 90.28 89.99 90.48 89.89 90.3 89.75"/><polygon class="cls-3" points="63.36 96.7 63.47 96.54 63.25 96.54 63.36 96.7"/><path class="cls-3" d="M128.48,3h-1.31v0h1.3Z"/><path class="cls-3" d="M131.7,5.54l-.08-.3.1.29Z"/><path class="cls-3" d="M179,5.53l-.27.12.27-.11Z"/><path class="cls-3" d="M167.34,12l.28-.11-.3.09Z"/><path class="cls-3" d="M166.05,12.66l1.29-.64,0,0-1.28.66Z"/><path class="cls-3" d="M158.27,78.09l-.28.09.28-.08Z"/><path class="cls-3" d="M8,83.92l-1.3-.65h0L8,83.93Z"/><path class="cls-3" d="M9.29,84.56,8,83.92H8l1.29.65Z"/><path class="cls-3" d="M91.55,96.23l.38.19-.39-.18Z"/><path class="cls-3" d="M128.47,2.94h0Z"/><path class="cls-3" d="M142.09,6.84l0,0Z"/><path class="cls-3" d="M145.33,8.78l0,0Z"/><path class="cls-3" d="M148.57,10.72l0,0Z"/><path class="cls-3" d="M166,12.66h0Z"/><path class="cls-3" d="M197.79,32.73v0Z"/><path class="cls-3" d="M97.39,41.82l0,0Z"/><path class="cls-3" d="M112.29,53.48h0Z"/><path class="cls-3" d="M115.52,55.42h0Z"/><path class="cls-3" d="M164.75,56.72h0Z"/><path class="cls-3" d="M70.17,59.31h0Z"/><path class="cls-3" d="M201.69,60.61l0,0Z"/><path class="cls-3" d="M182.25,60.6v.65l0,0v-.69Z"/><path class="cls-3" d="M65.64,61.24h0Z"/><path class="cls-3" d="M77.32,64.48l-.65-.65,0,0,.64.66Z"/><path class="cls-3" d="M78,65.13l-.63-.65,0,0,.65.63Z"/><path class="cls-3" d="M182.89,68.38Z"/><path class="cls-3" d="M182.89,68.38Z"/><path class="cls-3" d="M84.43,72.25l0,0Z"/><path class="cls-3" d="M2.81,82.62l0,0Z"/><path class="cls-3" d="M6,82.64l.63.64h0l-.64-.65Z"/><path class="cls-3" d="M2.79,82.64l0,0Z"/><path class="cls-3" d="M123.31,96.25l0,0Z"/><path class="cls-3" d="M129.76,94.3v0Z"/><path class="cls-3" d="M129.77,94.28v0Z"/><path class="cls-3" d="M142.72,88.45l-.64.65,0,0c.21-.22.42-.44.64-.65Z"/><path class="cls-3" d="M142.74,88.47l0,0Z"/><path class="cls-3" d="M9.27,84.58l0,0Z"/><path d="M75.41,60.64l-.09-.09Z"/><path d="M118.89,34.2l5.67-4,.06-.06,5.94-5.56c-.1-.14-.21-.28-.32-.41l-11.61,9.75A3.58,3.58,0,0,1,118.89,34.2Z"/><path d="M130.56,24.57,136.4,20l-.3-.33-5.86,4.52C130.35,24.29,130.46,24.43,130.56,24.57Z"/><path d="M139.63,18c1.77-.67,3.57-1.28,5.31-2,.34-.15.45-.83.67-1.26-.49,0-1.1-.3-1.45-.1-1.64.94-3.21,2-4.81,3Z"/><path d="M139.35,17.63l-3.25,2,.3.33,3.23-2Z"/><path d="M124.56,30.19l.06-.06Z"/><path d="M91.55,35.33h0Z"/><path d="M111,41.17h0Z"/><path d="M179.65,56.72h0Z"/><path d="M85.5,87.28v6.39l1.66-.12q-.68-3.22-1.33-6.45Z"/><path d="M79.25,76.8h0Z"/><path d="M82.48,82Z"/><path d="M190,68.37h0Z"/><path d="M170.58,73.55h0Z"/><path d="M182.23,60.58v0Z"/><path d="M114.88,8.13h0Z"/><path d="M117.45,10.06l0,0Z"/><path d="M89.65,80.09c-.18.6-.18,1.54-.57,1.75a4.34,4.34,0,0,1-2.78.6,2.6,2.6,0,0,1-.68-2.27,4.49,4.49,0,0,1,2.62-1c.39-.06.88.53,1.33.82Zm-2.4.79-.09-.19-.14.19Z"/><path d="M82.49,76.79l0,0Z"/><polygon class="cls-3" points="87.02 80.88 87.25 80.88 87.16 80.69 87.02 80.88"/></g></g></svg>