<svg xmlns="http://www.w3.org/2000/svg" xmlns:xlink="http://www.w3.org/1999/xlink" viewBox="0 0 185.06 126.52"><defs><style>.cls-1{fill:none;}.cls-2{fill:#d7c08e;}.cls-3{fill:url(#New_Pattern_Swatch_1);}</style><pattern id="New_Pattern_Swatch_1" data-name="New Pattern Swatch 1" width="29.49" height="30" patternTransform="translate(35.08 1.69)" patternUnits="userSpaceOnUse" viewBox="0 0 29.49 30"><rect class="cls-1" width="29.49" height="30"/><rect class="cls-2" width="29.49" height="30"/></pattern></defs><g id="Layer_2" data-name="Layer 2"><g id="Layer_1-2" data-name="Layer 1"><path d="M6.52,91.86c-1.61-9.59.63-13.31,10.12-16.75,1.7-.61,3.39-1.28,5.14-1.75,9.29-2.49,17.54-7.08,25.86-11.53a25.19,25.19,0,0,0,5-3.74c3.16-2.88,6.17-5.89,9.26-8.84,1.82-1.75,3.15-3.5,1.46-6.12a3.88,3.88,0,0,1-.24-3.1c1.4-3.81,2.17-8.14,7.21-9.45a2,2,0,0,0,.87-.75c.18-.22.14-.6.32-.8,3.74-4,7.49-8,11.24-12,.53-.58,1-1.25,1.55-1.77,1.3-1.2,2.48-2.74,4.06-3.4,2.15-.9,4.08-1.61,5.27-3.83.83-1.55,2.5-1.78,4.1-.42s2.75,2.27,5,.69c.88-.61,3.14.43,4.72.89,2.15.62,4.2,1.75,6.39,2,4.18.54,8.34.83,11.22,5.12C128.48,13.81,132,11.64,135,9c6.2-5.44,13.88-8,21.77-8.89,5.18-.56,10.7,1.6,16,2.7a2.39,2.39,0,0,1,1.42,1.92c-1.88,9,.68,17.43,3.84,25.79a24.44,24.44,0,0,1,1.31,13.42c-.43,2.33,1.43,5.21,2.7,7.63a27.84,27.84,0,0,1,2.62,17.52c-.22,1.46-2.46,2.66-3.82,3.94-.44.42-1.34.61-1.49,1.07-1.59,4.7-2.9,4.33-7.29,3.93-1.57,5.14-3.73,6.19-10.55,4.92-.55,4.56-4.85,5.08-8.22,6.61a2.69,2.69,0,0,1-2.24-.62c-2.24-2-4.69-2-7.34-1-5,1.94-7.5,5.94-9.8,10.29-1.15,2.16-2.8,5.13-4.78,5.61-3.77.9-6.31,2.09-8.06,5.63-1,2.12-7.34,3.29-9.64,2.52.44,3-1.57,3.94-4,4.48-2.92.65-5.78,1.88-8.91.46-.55-.25-1.77.54-2.52,1.06-1.11.77-1.93,2.22-3.12,2.53-4.14,1.07-8.38,2.72-12.49-.26-1.58-1.15-2.37,0-3,1.23-1.12,2.3-2.75,3.51-5.53,2.53a2.08,2.08,0,0,0-1.32.19c-2.82,1.14-5.4,1.9-7.81-1-.67-.81-2.76-.55-4.17-.77-.59,4.1-2,4.88-6,3.61a4,4,0,0,0-2.2-.29c-2.59.83-4.56.58-6.4-1.7a3.1,3.1,0,0,0-5,0,6.11,6.11,0,0,1-6.59,1.86c-6.2-1.8-12.7-3-18.46-5.72-4.71-2.17-8.6-6-12.7-9.28A4.26,4.26,0,0,1,0,107.68c.18-4.11-.17-8.38,3.53-11.63,1.3-1.14,2.06-2.84,3.07-4.28-.53,1.7-.61,3.72-1.65,5-3.31,4.22-3.4,4.75,1.12,7.73a32.16,32.16,0,0,0,4.77,2.57,75.16,75.16,0,0,0,24.75,5.77c18.42,1.45,36.61-.29,54.64-3.67s34.28-10.41,46.62-24.08a103.67,103.67,0,0,1,30.51-22.92c4-2,7.56-4.87,11.17-7.53,1-.72,1.37-2.15,2-3.25L180,51.2l-2.78,2.13c2.47-3.51,2.7-4.39,1.17-6.59-4.29,6-10.51,9.49-17.09,12.76a96.88,96.88,0,0,0-15.54,9.64c-4.42,3.36-7.82,7.93-12.18,11.37a119.47,119.47,0,0,1-43,22.06c-13.31,3.62-26.66,7.21-40.75,6.13q-7.3-.56-14.59-1.23c-8.53-.79-16.7-2.62-23.48-8A55.18,55.18,0,0,1,7,94.67l.62-.55a5.09,5.09,0,0,1,.89.59A34.94,34.94,0,0,0,28.61,105c6.72,1,13.54,1.53,20.33,2,17,1.13,33.07-3.11,48.9-8.39,3.13-1,3.94-2.78,2.91-5.68-.28-.78-.57-1.56-.86-2.35l.67-.23L103,96.64c1.18-.63,3-1,3.41-2s-.38-2.58-.8-4.63l2.1,3.37.29-.1c-.6-1.75-1.21-3.49-1.82-5.24l.58-.19,2.4,5.68,1.07-.39L107,85l.51-.22q2,3.9,3.89,7.8c5.08-2.2,5.19-2.49,3-7.27L117,89.41c2.8-1.35,2.6-1.84-2.8-7.82l4.75,3.6c.17-3.27-3.08-4-4.12-6.41l3.64,2.42A14.91,14.91,0,0,0,114.61,76c-6.09-4.7-12.45-9.06-18.52-13.78-3.49-2.72-6.65-5.84-9.87-8.86-2.17-2-4.12-4.3-7.61-4.22a10.94,10.94,0,0,1-2.82-.72c1.13-2.07.38-3.81-1.66-4.78.07,1.27.14,2.65.21,4l-.68,0L72,42.76l-.89.34c.37,1.57.74,3.13,1.17,5L67,46.49a5.33,5.33,0,0,1-.76,1.44c-3.78,3.65-7.52,7.33-11.42,10.85a28.63,28.63,0,0,1-6.43,4.84c-7.88,3.78-15.9,7.31-23.94,10.79-3.42,1.48-7,2.56-10.5,3.91a9,9,0,0,0-6.21,8.56A28,28,0,0,1,6.52,91.86Zm135-84.62V17.69c2.14-3.4,1.44-6.92,2.3-10.94l.94,2.62,1.84-3.55c.44,1,.78,1.74,1.33,2.95l.75-3.63.74.15-1.05,8.06.84.12c.71-3.27,1.43-6.54,2.25-10.34C147.63,4.3,144,4.39,141.62,7.3c-1.3.78-3.36,1.32-3.74,2.39-.75,2.11-.56,4.52-.76,6.8l.88.07,1.29-7,.49.08-.67,7.26.8.1Zm-34.41,7.9c-6.55,1.47-13.16-.18-19.77,0a2.52,2.52,0,0,0,1.1,1.22c1.81,1.05,3.7-.2,5.32,0a13.93,13.93,0,0,1,10.88,6.88c1.29,2.35,2.53,2.64,4.88,2.85,1.56.13,3,1.57,4.44,2.59,1,.77,1.69,2.18,2.81,2.66,7.14,3.05,14.25,6.23,21.59,8.77,7,2.43,14.35,4.16,21.57,6.12a2.55,2.55,0,0,0,1.92-.45c4.36-3.59,8.77-7.14,12.9-11A5,5,0,0,0,176,30.59c-.81-3.47-2.2-6.82-3.54-10.71-.92,2.29-1.64,4.07-2.37,5.86a22.39,22.39,0,0,1,.48-6.69,19.31,19.31,0,0,0-2.12-13c-.46-.83-2.11-1.33-3.27-1.42-.43,0-1.38,1.49-1.45,2.35a65,65,0,0,0,.1,6.69c.25,7.55-3,11.47-10.76,12.72a22.06,22.06,0,0,1-7,.16c-4-.65-7.94-1.79-11.91-2.71.66,5.15,2.52,8.79,6.26,10.31,8.36,3.39,16.7,4.14,24.48-1.62,1-.74,2-1.42,3-2.12l.62.69a12.91,12.91,0,0,1-6.17,5.33c-5.19,2.32-10.63,2.43-16.12,1.3C137.78,36,135,33.07,133.26,24.89a5.35,5.35,0,0,0-2.24-3c-2.42-1.59-5.78-2.34-7.45-4.4-2.74-3.38-6.32-3.91-10.09-4.56-1.87-.32-3.76-.52-6.23-.86,0,1-.1,2-.17,3.07Zm-5.4,34.91c-3.76,2.4-7.42.79-8.11-3-.52-2.77-1.79-3.54-5.28-2.42l3.69,1.47-1.76,4.1-2.21-1.36L87.14,50c2.59,2.39,5.11,4.86,7.79,7.16,7.32,6.29,14.8,12.41,22,18.81,3,2.66,5.69,5.75,5,11.06,5.07-3.85,10-6.67,13.66-10.56,6.4-6.78,13.25-12.84,21.6-17.11.33-3.66-2-5.37-4.89-6.39-3.52-1.25-7.21-2-10.77-3.18-4.09-1.32-8.12-2.82-12.17-4.23a7.12,7.12,0,0,1,3.67-.28c6.57,2,13.14,4,19.64,6.25,3.29,1.13,6.11,3,6.25,7l2.5-1.1c4.53-2,4.89-4.28,1.14-7.62A9.26,9.26,0,0,0,159.86,48c-2.72-1-5.45-2.36-8.3-2.81-12.56-2-23.57-7.86-35.07-12.5-1-.41-1.81-1.34-2.84-1.67s-2.88-.82-3.41-.31c-.91.86-1.75,2.65-1.4,3.67a9.08,9.08,0,0,0,3.29,4c2.67,1.89,3.69,4,2.6,8.19a50.09,50.09,0,0,1-7.18-2.1c-2.56-1.15-4.67-.08-6.73.78-1.48.62-1.31,3.36.16,3.77,2.65.72,3.08,2.81,3.9,4.78a25.85,25.85,0,0,0,2.45,5,17.85,17.85,0,0,0,3.81,3.7c2.22,1.7,4.64,3.16,6.91,4.81,3.15,2.3,6.34,4.56,9.33,7,2.33,1.93,2.65,3.29,2.24,4.52-2.33-2.13-4.74-4.67-7.5-6.79-4.05-3.1-8.33-5.91-12.52-8.83-3.15-2.2-5.4-4.92-6.07-8.74A24,24,0,0,0,101.75,50.05ZM93,18.49c-3.25,5.29-4.41,6.29-7.1,6.4,4.81-5.05,4.81-5.05,4.48-7.44C88,21.58,83.1,24,84.06,28.72c-1.79.14-3.11,0-4.16.38-5.5,2.25-8,7.14-11.21,11.75l2.53.67-.59-.69a94.75,94.75,0,0,1,6.64-8c4.24-4.18,5.81-4.07,10.48-.33a6.25,6.25,0,0,0,2.14.67l.18-.61-2.21-1.27V27.61l-.43,0-.8,2.25-.52-.12c-.12-1.17-.25-2.35-.4-3.77,3.22.74,6.22,1.52,9.26,2.07a2.77,2.77,0,0,0,2-1.09,27.17,27.17,0,0,0,2.09-3.44l.74.39-2,4.31c2.85.21,5.08-1.28,6.37-4.4l-2,1.12.31-.76Zm84.21,17.75L163.07,47.66l4.79,7.46c-.15-3.09-.27-5.45-.38-7.81l.69,0c.29,1.85.59,3.7,1,6.1,4.23-3.61,8.77-6.24,7.89-12.42l-3.49,3.06C174.32,41.09,178.25,39.7,177.19,36.24ZM93.72,33.89a13.56,13.56,0,0,1,1,2.65c.43,2.79,2.07,3.69,4.93,3.62a11.68,11.68,0,0,1,4.62,1.25c2.09.9,4,2.22,6.11,3,.91.35,2.17-.15,3.27-.27a12.83,12.83,0,0,0-.62-2.93,4.5,4.5,0,0,0-1.72-1.59c-2.66-1.69-5.79-2.93-8-5.07-3-3-6.18.78-9-.87C94.26,33.64,94,33.8,93.72,33.89ZM79.89,35l4.75,2.23-.37.71c-7.06-2.2-10.41-1.1-11.11,3.94l12.26,1.45c1.47-2.66,2.56-4.65,3.83-7C86.91,32.19,83.61,31.54,79.89,35Zm72.2-32.42c-.18,2.61-.29,4.22-.4,5.83l.35.08,1.2-4.16.54.11c-.35,2.34-.69,4.67-1,7l.9.14q1.08-3.9,2.17-7.8l.44.08c-.17,1.4-.33,2.8-.57,4.87.82-1.87,1.36-3.12,1.9-4.38l.49.14-1.68,6.75,1,.23c.48-2,.95-4,1.42-6l.53,0-.22,4.2.63.06L163.09,2Zm-58.88,9c3.93.91,7.19,1.57,10.39,2.43,2.39.64,2.49-1.28,2.88-2.44.13-.39-1.29-1.55-2.19-1.86a3.64,3.64,0,0,0-2.58.46c-1.69,1-2.83.38-4-.81-.51-.54-1.12-1-2-1.77ZM103.4,43.07l.12-1c-1.75-.07-4.2-.86-5.11-.06a12.39,12.39,0,0,0-3.29,5.88c-.14.52,2.34,1.73,4,2.89C98.45,45.34,99.23,44.09,103.4,43.07Zm9.49-15c-2.06-.39-4-1.25-4.51-.75a14.66,14.66,0,0,0-4,5.59c-.28.79,1.91,2.37,3,3.59C107,31.68,107.7,30.34,112.89,28.08Zm-9.46,3.8,3.27-4.37c-3.35-1.58-4.18.47-5.3,2.29ZM87.4,42.5l.8.79c1.21-.54,3-.81,3.45-1.69s-.68-2.3-1.12-3.49h-.79ZM65.8,38.4l-1,.28c-.21,2.29-.57,4.63,2.8,6.46C66.89,42.54,66.34,40.47,65.8,38.4Zm28.72,6.17c.74-1.52,1.31-2.68,1.87-3.85l-.67-.48-3.78,2.44Z"/><path class="cls-3" d="M6.52,91.86a28,28,0,0,0,1.21-5,9,9,0,0,1,6.21-8.56C17.42,77,21,75.89,24.44,74.41c8-3.48,16.06-7,23.94-10.79a28.63,28.63,0,0,0,6.43-4.84c3.9-3.52,7.64-7.2,11.42-10.85A5.33,5.33,0,0,0,67,46.49l5.24,1.59c-.43-1.85-.8-3.41-1.17-5l.89-.34,1.71,4.93.68,0c-.07-1.38-.14-2.76-.21-4,2,1,2.79,2.71,1.66,4.78a10.94,10.94,0,0,0,2.82.72c3.49-.08,5.44,2.17,7.61,4.22,3.22,3,6.38,6.14,9.87,8.86,6.07,4.72,12.43,9.08,18.52,13.78a14.91,14.91,0,0,1,3.84,5.23l-3.64-2.42c1,2.37,4.29,3.14,4.12,6.41l-4.75-3.6c5.4,6,5.6,6.47,2.8,7.82l-2.57-4.11c2.18,4.78,2.07,5.07-3,7.27q-1.94-3.9-3.89-7.8L107,85l3.23,8.16-1.07.39-2.4-5.68-.58.19c.61,1.75,1.22,3.49,1.82,5.24l-.29.1L105.61,90c.42,2,1.26,3.6.8,4.63s-2.23,1.36-3.41,2l-2.44-6.37-.67.23c.29.79.58,1.57.86,2.35,1,2.9.22,4.64-2.91,5.68C82,103.81,66,108.05,48.94,106.92c-6.79-.44-13.61-.94-20.33-2A34.94,34.94,0,0,1,8.5,94.71a5.09,5.09,0,0,0-.89-.59L7,94.67a55.18,55.18,0,0,0,4.77,4.78c6.78,5.4,15,7.23,23.48,8q7.29.68,14.59,1.23c14.09,1.08,27.44-2.51,40.75-6.13a119.47,119.47,0,0,0,43-22.06c4.36-3.44,7.76-8,12.18-11.37a96.88,96.88,0,0,1,15.54-9.64c6.58-3.27,12.8-6.75,17.09-12.76,1.53,2.2,1.3,3.08-1.17,6.59L180,51.2l.59.23c-.66,1.1-1.06,2.53-2,3.25-3.61,2.66-7.17,5.5-11.17,7.53a103.67,103.67,0,0,0-30.51,22.92c-12.34,13.67-28.53,20.7-46.62,24.08S54,114.33,35.59,112.88a75.16,75.16,0,0,1-24.75-5.77,32.16,32.16,0,0,1-4.77-2.57c-4.52-3-4.43-3.51-1.12-7.73,1-1.32,1.12-3.34,1.65-5Zm6.64-6.38-.87.91c1.35,1.41,2.43,3.35,4.1,4.12A74.91,74.91,0,0,0,28,94.66c11.83,3.19,24,2.85,36.07,2.14,5.08-.3,10.07-2.12,15.08-3.34.49-.12.82-.89,1.22-1.35a5.1,5.1,0,0,0-1.72-.82,14.94,14.94,0,0,0-3.33.28,124,124,0,0,1-39.76.82A66.64,66.64,0,0,1,13.16,85.48Zm70.18,4.83c.52,1.39,1.71,2.64,3.22,1.29a5.54,5.54,0,0,1,4.33-1.85c.44,0,1.3-.64,1.32-1,.13-2.2,1.88-2.15,3.42-2.53.55-.13,1-.64,1.85-1.22-2.69-1.23-5.09-1.34-6.51.5C89,88,85.59,87.83,83.34,90.31ZM104,82.25l-.75-1.13-5.83,2.43,0,.93c1,.19,2.2.79,2.95.46A19.26,19.26,0,0,0,104,82.25Z"/><path class="cls-3" d="M101.75,50.05a24,24,0,0,1,1.78,4.53c.67,3.82,2.92,6.54,6.07,8.74,4.19,2.92,8.47,5.73,12.52,8.83,2.76,2.12,5.17,4.66,7.5,6.79.41-1.23.09-2.59-2.24-4.52-3-2.49-6.18-4.75-9.33-7-2.27-1.65-4.69-3.11-6.91-4.81a17.85,17.85,0,0,1-3.81-3.7,25.85,25.85,0,0,1-2.45-5c-.82-2-1.25-4.06-3.9-4.78-1.47-.41-1.64-3.15-.16-3.77,2.06-.86,4.17-1.93,6.73-.78a50.09,50.09,0,0,0,7.18,2.1c1.09-4.14.07-6.3-2.6-8.19a9.08,9.08,0,0,1-3.29-4c-.35-1,.49-2.81,1.4-3.67.53-.51,2.31-.05,3.41.31s1.82,1.26,2.84,1.67c11.5,4.64,22.51,10.5,35.07,12.5,2.85.45,5.58,1.76,8.3,2.81a9.26,9.26,0,0,1,2.74,1.81c3.75,3.34,3.39,5.61-1.14,7.62l-2.5,1.1c-.14-4-3-5.88-6.25-7-6.5-2.23-13.07-4.26-19.64-6.25a7.12,7.12,0,0,0-3.67.28c4,1.41,8.08,2.91,12.17,4.23,3.56,1.15,7.25,1.93,10.77,3.18,2.86,1,5.22,2.73,4.89,6.39-8.35,4.27-15.2,10.33-21.6,17.11C132,80.39,127,83.21,122,87.06c.66-5.31-2-8.4-5-11.06-7.21-6.4-14.69-12.52-22-18.81-2.68-2.3-5.2-4.77-7.79-7.16l.94-1.17,2.21,1.36,1.76-4.1-3.69-1.47c3.49-1.12,4.76-.35,5.28,2.42C94.33,50.84,98,52.45,101.75,50.05Zm25.83,14c2.57,3.63,5.18,4.67,7.7,2.85,3.69-2.68,7.44-5,12.07-5.88.6-.12,1-1.39,1.42-2.12-.82-.36-1.72-1.13-2.44-1-3.8.73-7.52,1.69-10.33,4.56C133.72,64.76,131.39,67.19,127.58,64Zm-10.69-9.86c-2.21,6.15.59,11,7.31,12-1.61-1.81-4-3.11-5.19-5S117.55,56.5,116.89,54.16Zm9.1,14,8,7.36C133.63,72.21,129.71,68.91,126,68.12Zm-3.67-7.9V51.71C120.1,55.24,120.18,58.14,122.32,60.22Z"/><path class="cls-3" d="M107.09,15.15c.06-1,.11-2.08.16-3.06,2.47.34,4.36.54,6.23.86,3.77.65,7.35,1.18,10.09,4.56,1.67,2.06,5,2.81,7.45,4.4a5.35,5.35,0,0,1,2.24,3C135,33.07,137.78,36,146.33,37.74c5.49,1.13,10.93,1,16.12-1.3a12.91,12.91,0,0,0,6.17-5.33l-.62-.69c-1,.7-2,1.38-3,2.12-7.78,5.76-16.12,5-24.48,1.62-3.74-1.52-5.6-5.16-6.26-10.32,4,.93,7.9,2.07,11.91,2.72a22.06,22.06,0,0,0,7-.16c7.78-1.25,11-5.17,10.76-12.72a65,65,0,0,1-.1-6.69c.07-.86,1-2.39,1.45-2.35,1.16.09,2.81.59,3.27,1.42a19.31,19.31,0,0,1,2.12,13,22.39,22.39,0,0,0-.48,6.69c.73-1.79,1.45-3.57,2.37-5.86,1.34,3.89,2.73,7.24,3.54,10.71a5,5,0,0,1-1.25,4.21c-4.13,3.83-8.54,7.38-12.9,11a2.55,2.55,0,0,1-1.92.45c-7.22-2-14.53-3.69-21.57-6.12-7.34-2.54-14.45-5.72-21.59-8.77-1.12-.48-1.77-1.89-2.81-2.66-1.39-1-2.88-2.46-4.44-2.59-2.35-.21-3.59-.5-4.88-2.85A13.93,13.93,0,0,0,93.8,16.35c-1.62-.19-3.51,1.06-5.32,0a2.52,2.52,0,0,1-1.1-1.22c6.61-.18,13.22,1.47,19.76,0l-5.25,2c3.19,1.19,6.39,2.37,9.57,3.6a13.65,13.65,0,0,1,1.88,1.11l.07-.06c-2,.38-1.28,1.49-.47,2.22a13,13,0,0,0,9.66,3.59c2.84-.18,4.14-2.37,2.38-4.48a17.42,17.42,0,0,0-6.38-5.1C115,16.6,111,16.08,107.09,15.15Z"/><path class="cls-3" d="M93,18.49l9.55,5.65-.31.76,2-1.12c-1.29,3.12-3.52,4.61-6.37,4.4l2-4.31-.74-.39A27.17,27.17,0,0,1,97,26.92,2.77,2.77,0,0,1,95,28c-3-.55-6-1.33-9.26-2.07.15,1.42.28,2.6.4,3.77l.52.12.8-2.25.43,0v3.64l2.21,1.27-.18.61a6.25,6.25,0,0,1-2.14-.67c-4.67-3.74-6.24-3.85-10.48.33a94.75,94.75,0,0,0-6.64,8l.59.69-2.53-.67C72,36.24,74.4,31.35,79.9,29.1c1-.43,2.37-.24,4.16-.38-1-4.72,3.9-7.14,6.3-11.27.33,2.39.33,2.39-4.48,7.44C88.57,24.78,89.73,23.78,93,18.49Z"/><path class="cls-3" d="M177.19,36.24c1.06,3.46-2.87,4.85-3.65,7.84L177,41c.88,6.18-3.66,8.81-7.89,12.42-.38-2.4-.68-4.25-1-6.1l-.69,0c.11,2.36.23,4.72.38,7.81l-4.79-7.46Z"/><path class="cls-3" d="M93.72,33.89c.3-.09.54-.25.64-.19,2.82,1.65,6-2.1,9,.87,2.16,2.14,5.29,3.38,8,5.07A4.5,4.5,0,0,1,113,41.23a12.83,12.83,0,0,1,.62,2.93c-1.1.12-2.36.62-3.27.27-2.12-.8-4-2.12-6.11-3a11.68,11.68,0,0,0-4.62-1.25c-2.86.07-4.5-.83-4.93-3.62A13.56,13.56,0,0,0,93.72,33.89Z"/><path class="cls-3" d="M79.89,35c3.72-3.41,7-2.76,9.36,1.36-1.27,2.32-2.36,4.31-3.83,7L73.16,41.83c.7-5,4-6.14,11.11-3.94l.37-.71Z"/><path class="cls-3" d="M152.09,2.53l11-.51-3.3,7.74-.63-.06.22-4.2-.53,0c-.47,2-.94,4-1.42,6l-1-.23,1.68-6.75-.49-.14c-.54,1.26-1.08,2.51-1.9,4.38.24-2.07.4-3.47.57-4.87l-.44-.08q-1.09,3.9-2.17,7.8l-.9-.14c.35-2.34.69-4.67,1-7l-.54-.11L152,8.44l-.35-.08C151.8,6.75,151.91,5.14,152.09,2.53Z"/><path class="cls-3" d="M141.63,7.3c2.38-2.91,6-3,9.87-4.17-.82,3.8-1.54,7.07-2.25,10.34l-.84-.12,1.05-8.06-.74-.15L148,8.77c-.55-1.21-.89-2-1.33-2.95L144.8,9.37l-.94-2.62c-.86,4-.16,7.54-2.3,10.94V7.24Z"/><path class="cls-3" d="M93.21,11.49l2.53-4c.88.77,1.49,1.23,2,1.77,1.14,1.19,2.28,1.78,4,.81a3.64,3.64,0,0,1,2.58-.46c.9.31,2.32,1.47,2.19,1.86-.39,1.16-.49,3.08-2.88,2.44C100.4,13.06,97.14,12.4,93.21,11.49Z"/><path class="cls-3" d="M103.4,43.07c-4.17,1-5,2.27-4.28,7.69-1.66-1.16-4.14-2.37-4-2.89A12.39,12.39,0,0,1,98.41,42c.91-.8,3.36,0,5.11.06Z"/><path class="cls-3" d="M112.89,28.08c-5.19,2.26-5.92,3.6-5.58,8.43-1.06-1.22-3.25-2.8-3-3.59a14.66,14.66,0,0,1,4-5.59C108.91,26.83,110.83,27.69,112.89,28.08Z"/><path class="cls-3" d="M141.56,7.24,139.91,17l-.8-.1.67-7.26-.49-.08-1.29,7-.88-.07c.2-2.28,0-4.69.76-6.8.38-1.07,2.44-1.61,3.74-2.39Z"/><path class="cls-3" d="M103.43,31.88l-2-2.08c1.12-1.82,1.95-3.87,5.3-2.29Z"/><path class="cls-3" d="M87.4,42.5l2.34-4.39h.79c.44,1.19,1.52,2.66,1.12,3.49s-2.24,1.15-3.45,1.69Z"/><path class="cls-3" d="M65.8,38.4c.54,2.07,1.09,4.14,1.77,6.74-3.37-1.83-3-4.17-2.8-6.46Z"/><path class="cls-3" d="M94.52,44.57l-2.58-1.89,3.78-2.44.67.48C95.83,41.89,95.26,43.05,94.52,44.57Z"/><path d="M13.16,85.48a66.64,66.64,0,0,0,22.43,6.91,124,124,0,0,0,39.76-.82,14.94,14.94,0,0,1,3.33-.28,5.1,5.1,0,0,1,1.72.82c-.4.46-.73,1.23-1.22,1.35-5,1.22-10,3-15.08,3.34-12.07.71-24.24,1-36.07-2.14a74.91,74.91,0,0,1-11.64-4.15c-1.67-.77-2.75-2.71-4.1-4.12Z"/><path d="M83.34,90.31C85.59,87.83,89,88,91,85.48c1.42-1.84,3.82-1.73,6.51-.5-.85.58-1.3,1.09-1.85,1.22-1.54.38-3.29.33-3.42,2.53,0,.38-.88,1-1.32,1a5.54,5.54,0,0,0-4.33,1.85C85.05,93,83.86,91.7,83.34,90.31Z"/><path d="M104,82.25a19.26,19.26,0,0,1-3.68,2.69c-.75.33-2-.27-2.95-.46l0-.93,5.83-2.43Z"/><path d="M127.58,64c3.81,3.17,6.14.74,8.42-1.59,2.81-2.87,6.53-3.83,10.33-4.56.72-.13,1.62.64,2.44,1-.47.73-.82,2-1.42,2.12-4.63.89-8.38,3.2-12.07,5.88C132.76,68.69,130.15,67.65,127.58,64Z"/><path d="M116.89,54.16c.66,2.34.85,5,2.12,6.92s3.58,3.24,5.19,5C117.48,65.18,114.68,60.31,116.89,54.16Z"/><path d="M126,68.12c3.72.79,7.64,4.09,8,7.36Z"/><path d="M122.32,60.22c-2.14-2.08-2.22-5,0-8.51Z"/><path d="M113.34,21.89a13.65,13.65,0,0,0-1.88-1.11c-3.18-1.23-6.38-2.41-9.57-3.6l5.25-2,0,0c3.86.92,7.89,1.44,11.51,2.9a17.42,17.42,0,0,1,6.38,5.1c1.76,2.11.46,4.3-2.38,4.48a13,13,0,0,1-9.66-3.59c-.81-.73-1.54-1.84.47-2.22.93,2.46,7.45,5.36,9.61,4.08a2.55,2.55,0,0,0,.36-2.54,77.67,77.67,0,0,0-6-5c.13,1.65.52,2.72.16,3.07a4.47,4.47,0,0,1-2.45.65A7.08,7.08,0,0,1,113.34,21.89Z"/><path class="cls-3" d="M113.34,21.89a7.08,7.08,0,0,0,1.74.24,4.47,4.47,0,0,0,2.45-.65c.36-.35,0-1.42-.16-3.07a77.67,77.67,0,0,1,6,5,2.55,2.55,0,0,1-.36,2.54c-2.16,1.28-8.68-1.62-9.61-4.08Z"/></g></g></svg>