<svg xmlns="http://www.w3.org/2000/svg" viewBox="0 0 83.91 37.7"><defs><style>.cls-1{fill:#4d4d4d;}</style></defs><g id="Layer_2" data-name="Layer 2"><g id="Layer_1-2" data-name="Layer 1"><path class="cls-1" d="M83.91,32.61l-.09-1.4A20.83,20.83,0,0,0,83,27.15a1.32,1.32,0,0,0-.14-.45C81.42,21.9,77.61,15,68,15,56.49,15,46.27,9,35.93,2.38,32.15-.06,29.36.74,26.4,1.58c-.92.26-1.87.54-2.92.73a30.8,30.8,0,0,1-11.36.07,16.58,16.58,0,0,1-2-.75C7.4.54,4.36-.7,2.48.47a2.6,2.6,0,0,0-1,1.11C.32,4,.43,8,.52,11.44c0,1.37.07,2.66,0,3.64,0,.11,0,.33,0,.65C-.38,28.82.07,31.07.55,31.83V37.7H24.86l.34-.23c2.28-1.54,5-2.73,5.7-2.54,1.82,1.24,8.72,2.42,10.81,2.75l42.12,0V32.61ZM81,30H62.55a3.9,3.9,0,0,1,2.27-1.38c2-.2,10.78-.1,15.92,0C80.86,29.1,81,29.58,81,30ZM22.66,12.67A38.84,38.84,0,0,0,40.8,16.76a60.3,60.3,0,0,0,13.51-1.64c.85.3,1.7.58,2.56.83-11.3,1.54-36,3.25-42.68-9.9A28,28,0,0,0,22.66,12.67ZM24,4.9c1.17-.22,2.23-.52,3.17-.79,2.77-.79,4.6-1.31,7.38.48l.75.48L33,6a1.32,1.32,0,0,0-.74,1.71,1.3,1.3,0,0,0,1.22.83A1.41,1.41,0,0,0,34,8.4L35,8a1.31,1.31,0,0,0,.82,2.33,1.41,1.41,0,0,0,.49-.09l.74-.3a1.33,1.33,0,0,0-.12,1.2,1.3,1.3,0,0,0,1.22.83,1.41,1.41,0,0,0,.49-.09L43.29,10l.08,0c2.15,1.21,4.32,2.33,6.51,3.33C37.46,15.44,29.05,13,24,10.42a26.6,26.6,0,0,1-6.78-4.93A34.93,34.93,0,0,0,24,4.9ZM3.15,11.37c-.08-3-.19-6.8.71-8.66h0c.74-.45,4,.87,5.22,1.37.67.27,1.24.5,1.74.67,2.94,9.2,12.86,14.33,28.76,14.85.95,0,1.89.05,2.82.05A111.13,111.13,0,0,0,63.1,17.59L63,17.28a37,37,0,0,0,5,.34c7.1,0,10.39,4.47,11.92,8.32-4-.06-13.13-.18-15.35,0-2.64.26-4.51,2.73-5.31,4H2.74c-.14-1.19-.25-4.56.38-14.07,0-.34,0-.57,0-.69C3.22,14.14,3.19,12.79,3.15,11.37Zm20.91,23.7H3.18V32.61H29A20.08,20.08,0,0,0,24.06,35.07Zm18,0c-4-.65-8.78-1.7-9.64-2.31a1.35,1.35,0,0,0-.26-.15H81.2v2.46Z"/></g></g></svg>