<svg xmlns="http://www.w3.org/2000/svg" viewBox="0 0 88.31 37.58"><defs><style>.cls-1{fill:#4d4d4d;}</style></defs><g id="Layer_2" data-name="Layer 2"><g id="Layer_1-2" data-name="Layer 1"><path class="cls-1" d="M88.23,31v0c.52-2.81-1.9-9.06-7.27-10.4-1-.24-2.29-.46-4-.74-6.73-1.12-18-3-25.42-9.57a55.61,55.61,0,0,0-16-9.54c-1.85-.76-3.66.76-5,1.86a11.06,11.06,0,0,1-1,.8A23.32,23.32,0,0,1,24,6.08a14,14,0,0,1-4.95.77,10.85,10.85,0,0,1-2.2-.44c-.48-.13-1-.27-1.5-.37a13.18,13.18,0,0,1-3.28-1A20.86,20.86,0,0,1,5.89.72L5.18,0,4.33.55a9.28,9.28,0,0,0-4,8.64c0,4.53-.09,7.46-.17,10.56C.11,22.08,0,24.48,0,27.8a12.9,12.9,0,0,0,1.15,3.53l.16.15V36.9H24.36l.35-.31c.71-.63,2.54-1.91,3.65-1.83a68.47,68.47,0,0,1,10.08,2c1,.52,11.76.81,19.4.81h1.61c9.49,0,21.78-.55,26.45-2.59a3.7,3.7,0,0,0,2.35-2.17l.06-.2Zm-7.86-8c3.77.94,5.39,5.24,5.46,7.08a10.41,10.41,0,0,1-1.71.22l-38.77-.07a4.4,4.4,0,0,1,.77-2.83,5.09,5.09,0,0,1,3.56-1.8c1.45-.2,3.43-.34,5.52-.48,7.67-.53,12.79-1.05,14.18-3.51a3.51,3.51,0,0,0,.25-.61c2.57.56,5,1,7,1.3C78.15,22.57,79.49,22.79,80.37,23ZM2.65,19.82c.08-3.14.17-6.1.17-10.71V9A6.58,6.58,0,0,1,4.92,3.24,23.52,23.52,0,0,0,11,7.29a16.61,16.61,0,0,0,3.83,1.18c.44.08.88.2,1.34.33a12.76,12.76,0,0,0,2.71.52,16.6,16.6,0,0,0,5.83-.89,25.55,25.55,0,0,0,6.09-2.92,13.94,13.94,0,0,0,1.28-1c.65-.54,2-1.67,2.47-1.48a62.34,62.34,0,0,1,10.63,5.5l-3.5,2.27a1.24,1.24,0,0,0,.68,2.27,1.19,1.19,0,0,0,.67-.2l4.32-2.81c.66.5,1.3,1,1.91,1.52l-5,2.92a1.23,1.23,0,0,0,.63,2.3,1.19,1.19,0,0,0,.62-.17l5.77-3.36c.49.38,1,.75,1.51,1.09l-5.37,3.48a1.24,1.24,0,0,0,.67,2.28,1.27,1.27,0,0,0,.67-.2l6.35-4.11A48.82,48.82,0,0,0,67.2,20.44C66.28,21.89,59,22.39,55,22.66c-2.14.15-4.16.29-5.7.51A7.43,7.43,0,0,0,44.11,26a6.76,6.76,0,0,0-1.23,4.26H37.43c-6.76-.12-13.51-.29-20.12-.46-4.7-.12-9.55-.25-14.34-.35-.18-.57-.42-1.4-.5-1.7C2.52,24.47,2.58,22.11,2.65,19.82ZM23.43,34.43H3.78v-1.8l22.61,0A11.65,11.65,0,0,0,23.43,34.43ZM63,35.06c-11.59.21-22.35-.32-23.6-.55a55.67,55.67,0,0,0-8.13-1.83h6.09c5.06.09,10.12.15,15.15.15,4.75,0,9.44.1,14.09.1q4.93,0,9.83-.08h.77c3.1.05,5.32,0,6.91-.09h.66C82.85,33.57,77.52,34.79,63,35.06Z"/></g></g></svg>