<svg xmlns="http://www.w3.org/2000/svg" viewBox="0 0 106.63 40.8"><defs><style>.cls-1{fill:#4d4d4d;}</style></defs><g id="Layer_2" data-name="Layer 2"><g id="Layer_1-2" data-name="Layer 1"><path class="cls-1" d="M106.26,31.14h.16l-.48-.85a10.75,10.75,0,0,0-.92-1.61c-4-7.12-7.69-9-17.69-9-8.68,0-23.76-10.63-30.2-15.17l-1.32-.93C49.07-1.1,38.74.13,38.3.18L38,.22l-.27.15A120.87,120.87,0,0,1,21,7.36a12.53,12.53,0,0,1-10-.67A21.2,21.2,0,0,1,7.41,4.15L7.22,4,7,3.87a3.18,3.18,0,0,0-2.88.28C2.32,5.27,1.39,8,1.25,12.62L.78,29.27C.34,30.72-.93,35.71,1.19,38c.37.39.66.71,3.84.95V40.8H8.25V39.14c2.49.1,5.92.16,10.67.21l4.94,0V40.8h3.23V39.39h2.32c2.6,0,5.37,0,8.32,0V40.8H41V39.36l10.64-.08V40.8h3.23V39.25l15.26-.17V40.8h3.23V39L84,38.88V40.8h3.23v-2l10.64-.17V40.8h3.23V38.6l2.62-.05h.65l.45-.45A6.91,6.91,0,0,0,106.26,31.14Zm-5.5-3.22H57.42C66.6,17.2,72.54,18.3,73.1,18.44c5,2.59,10.12,4.5,14.23,4.5C95.19,22.94,98.1,24.12,100.76,27.92ZM68.29,15.77c-3.68,1.18-8.88,4.32-15,12.15h-16A50.58,50.58,0,0,1,54.05,6.32l1.22.86C58.47,9.43,63.18,12.76,68.29,15.77ZM4.48,12.71h0C4.6,8.47,5.41,7.27,5.72,7a28.49,28.49,0,0,0,3.7,2.53l.09,0a15.77,15.77,0,0,0,12.57.86,127.11,127.11,0,0,0,16.9-7c1.33-.12,7-.52,11.88,1.31A53.94,53.94,0,0,0,33.8,27.92H4Zm98.38,22.63c-37.49.71-93.46,1.33-99.45.25a9.37,9.37,0,0,1,.2-4.45h99.15A4,4,0,0,1,102.86,35.34Z"/></g></g></svg>