<svg xmlns="http://www.w3.org/2000/svg" viewBox="0 0 90.01 72.68"><defs><style>.cls-1{fill:#4d4d4d;}</style></defs><g id="Layer_2" data-name="Layer 2"><g id="Layer_1-2" data-name="Layer 1"><path class="cls-1" d="M88.88,61.41l-.23-1h0C86.23,48.5,72.52,45.85,63.35,44.08a59.36,59.36,0,0,1-6.16-1.38c-7.1-2.23-9.58-11-10.78-15.18-.13-.45-.24-.84-.34-1.16a22.14,22.14,0,0,1-.42-6.88c0-.88.06-1.71.06-2.52,0-4.85.18-9.72.37-13.85a2.93,2.93,0,0,0-.19-1.37A2.79,2.79,0,0,0,43.53.14a23,23,0,0,0-7.22.33A11.32,11.32,0,0,0,32.46,2.2a7.44,7.44,0,0,0-.78.66c-.18.16-.5.46-.72.63h-4l-6.82,0c-4.33,0-8.82,0-13.23,0l-.63,0A5.25,5.25,0,0,0,3.18,4,3,3,0,0,0,2,5.35a5.84,5.84,0,0,0-.33,2.8,6.9,6.9,0,0,1,0,.9,43.24,43.24,0,0,0-.12,4.62c0,1.45.14,3,.31,4.76,0,.53.15,1.09.25,1.63a9.85,9.85,0,0,1,.25,2.33c0,.18-1.86,17.76-2.3,23.2C-.37,50.8,1.88,60.47,2.32,62.26l0,10.39H24.8l.44-.41A15.83,15.83,0,0,1,29,69.55a29.12,29.12,0,0,0,9.27,3.09h49a1.87,1.87,0,0,0,.34,0,2.06,2.06,0,0,0,1.35-.51C90,71.31,90.76,69.36,88.88,61.41ZM85.71,62a14.63,14.63,0,0,1,.14,2H49.38c-2-.56-16.71-4.55-22.9-4-5.16.49-17.43.58-21.35.59-.9-3.86-2.06-10-2-13.79,8.65-3,16,1.12,20.93,3.88l.6.34c5.09,2.83,14.89,5.06,21.61,5.06q1.2,0,2.25-.09c5.9-.56,10.23-6.81,11.75-9.35l2.5.49C71.85,48.9,84.3,51.3,85.71,62ZM33.79,5.15c.14-.13.34-.32.39-.35A8.33,8.33,0,0,1,37,3.52a19.66,19.66,0,0,1,6-.31c-.19,4.11-.38,8.93-.36,13.76,0,.75,0,1.55-.06,2.4s-.07,2.06-.06,3.12l-6.23,3.6,1.56,2.69,5-2.87a10.12,10.12,0,0,0,.32,1.37c.09.3.2.67.32,1.09s.17.6.27.94L38,32.6l1.56,2.7,5.1-2.95c.28.8.61,1.64,1,2.5l-5.71,3.3,1.56,2.7L47,37.64c2,3.43,4.87,6.66,9.21,8l.81.24c-1.79,2.72-5.13,6.64-8.84,7-6,.56-16.89-1.72-22-4.59l-.6-.34c-4.88-2.73-12.79-7.15-22.21-4.5C3.87,38,4.87,28.3,5.27,24.39a6.85,6.85,0,0,0,.79,0c2.11,0,4.47-.77,5.39-3.52.69-2.07,8-3.53,12-4.31,1.31-.27,2.55-.51,3.59-.76,5-1.21,6-6.76,5.87-9.53l-.59,0A7.36,7.36,0,0,0,33.79,5.15ZM4.76,8a4,4,0,0,1,0-1.35A4,4,0,0,1,6.1,6.57a7.6,7.6,0,0,0,.82,0c4.39-.06,8.85,0,13.17,0l6.84,0h2.82c0,.79,0,5.37-3.49,6.21-1,.24-2.18.48-3.47.73-6.11,1.22-13,2.6-14.3,6.39-.46,1.39-2,1.47-3.06,1.35-.06-.61-.16-1.22-.27-1.78S5,18.54,5,18.13c-.16-1.68-.26-3.16-.29-4.53a39.64,39.64,0,0,1,.11-4.29A9.8,9.8,0,0,0,4.76,8ZM86.87,69.54H38.49a26.76,26.76,0,0,1-8.26-2.86c-.53-.29-2.1-1.17-6.64,2.86H5.4l0-5.82c4.25,0,16.11-.11,21.35-.61,5.93-.58,21.8,3.86,22,3.91l.21,0H86.78A10.67,10.67,0,0,1,86.87,69.54Z"/></g></g></svg>