<svg xmlns="http://www.w3.org/2000/svg" viewBox="0 0 90.65 32.57"><defs><style>.cls-1{fill:#4d4d4d;}</style></defs><g id="Layer_2" data-name="Layer 2"><g id="Layer_1-2" data-name="Layer 1"><path class="cls-1" d="M90.65,25.52V24.07h-.14c-1.27-5.85-11.15-9.3-14.58-10.49l-.24-.08c-3.09-1.08-6.18-2.42-9.17-3.72C65.28,9.24,64,8.7,62.8,8.18L53.63,4.32c-1.16-.49-2.28-1.07-3.46-1.67A40,40,0,0,0,45.4.44a3.83,3.83,0,0,0-3.92.47c-2.41,2-2,7.06-1.6,8.6.16.6.36,1.16.54,1.65a10.39,10.39,0,0,1,.42,1.38,5.65,5.65,0,0,1-1.31.13h-.08a20,20,0,0,1-6-1.33l-.15,0c-1.62-.53-3.24-1.2-4.81-1.85s-3.16-1.31-4.82-1.86c-3-1-5.9-2.28-8.74-3.53A99,99,0,0,0,5.16.17a2.62,2.62,0,0,0-2,0,2.4,2.4,0,0,0-1,1C-.74,6.06-.09,11.25.53,16.28l0,.39a66.56,66.56,0,0,0,1.68,9v6.4h30l.46-.43c1-1,3.1-2.33,4.16-2.15,2.37.4,15.33,2.47,15.88,2.56h.13c1.29.1,6.87.49,13.34.49,8.78,0,19.21-.72,22.86-3.86A4.5,4.5,0,0,0,90.35,27h.24l.06-1.4v-.06ZM43.54,3.1c.05-.05.19-.16.71,0a36.26,36.26,0,0,1,4.41,2.05c1.18.6,2.4,1.23,3.68,1.77l9.18,3.87,3.68,1.58c3,1.32,6.19,2.69,9.4,3.81l.24.08.54.2C65.06,18.84,48.68,14.06,44,12.56a8.43,8.43,0,0,0-.59-2.32c-.17-.46-.34-.94-.47-1.43C42.48,7.2,42.63,3.84,43.54,3.1Zm-38.89,0c3,1,6,2.32,8.93,3.6s5.91,2.61,9,3.64c1.55.52,3.1,1.16,4.6,1.78s3.31,1.37,5.05,1.94l.14,0a22.88,22.88,0,0,0,7.17,1.49,7.14,7.14,0,0,0,2.77-.46C45.55,16.17,57.94,20,68.85,20a27.48,27.48,0,0,0,10.78-1.84c5,2.24,7,4.27,7.65,5.89H5.06a63.87,63.87,0,0,1-1.38-7.73l-.05-.4C3.06,11.35,2.52,7,4.65,3.08ZM31,29.19H5.38V27H34.61A12.44,12.44,0,0,0,31,29.19Zm22.23,0L39.36,27h47C80.92,30.42,60.82,29.77,53.18,29.2Z"/></g></g></svg>