<svg xmlns="http://www.w3.org/2000/svg" viewBox="0 0 100.29 46.91"><defs><style>.cls-1{fill:#4d4d4d;}</style></defs><g id="Layer_2" data-name="Layer 2"><g id="Layer_1-2" data-name="Layer 1"><path class="cls-1" d="M100.29,41.92l-.12-1.6V38.83H100c-.47-3.13-2.14-10.66-7.61-15.11-3.41-2.78-7.67-3.86-12.66-3.21-8.83,1.16-18.88-6.35-26.94-12.38C45.3,2.54,39.39-1.88,35.31.81A26.41,26.41,0,0,1,30,3.51,32.63,32.63,0,0,1,16.7,5.11,8.75,8.75,0,0,1,12.42,3C10.59,1.72,8.52.23,5.45.59L4.64.68l-.38.71,0,.07C2,5.76.57,13.7.28,17.73c-.67,9.4-.17,14,1.68,22.81v6.37h98.21v-5Zm-3.43-3.09H58.16a11.85,11.85,0,0,1,2.39-5.07v0a2,2,0,0,1,1.51-.66c4.72.31,13.36-1.32,14.94-2.34a4.72,4.72,0,0,0,1.5-2,10.87,10.87,0,0,1,5.42-5.28,11.85,11.85,0,0,1,6.49,2.61C94.79,29.66,96.35,35.87,96.86,38.83ZM3.21,20.36C7,22.69,14.68,28.72,14,38.83H4.76A62.82,62.82,0,0,1,3.21,20.36ZM10.5,22.2a29,29,0,0,0-3.61-3.09A1.47,1.47,0,0,0,7,18.65c.21-3.37,1.26-6.88,2.1-7.1,2.52-.64,8-2.73,9.28-3.24A38.58,38.58,0,0,0,25,7.89a1.84,1.84,0,0,0,.22.17c9.1,5.72,22.38,15,23.38,17.62,1.34,3.56,5.84,6.23,8.45,7.52A19.42,19.42,0,0,0,55,38.83H17.12A21.46,21.46,0,0,0,10.5,22.2ZM31.06,6.4a29.41,29.41,0,0,0,5.95-3c1.82-1.2,6,1.4,10.5,4.68l-5.21,4A1.55,1.55,0,0,0,42,14.24a1.54,1.54,0,0,0,2.16.28L50.1,10l.56.42-5.6,4.3a1.54,1.54,0,0,0-.28,2.16,1.52,1.52,0,0,0,1.22.61,1.57,1.57,0,0,0,.94-.32l6.29-4.83.91.67-5.66,4.34a1.54,1.54,0,0,0-.28,2.16,1.51,1.51,0,0,0,1.22.6,1.56,1.56,0,0,0,.94-.31l6.4-4.91c6.58,4.62,13.92,8.85,21.1,8.85h.47a14.58,14.58,0,0,0-2.55,3.62,6,6,0,0,1-.48.83,44.35,44.35,0,0,1-13,1.84,4.7,4.7,0,0,0-3,.81c-2.38-1.09-6.73-3.55-7.74-6.22C50,20.64,35.71,11.09,29.31,7,29.92,6.8,30.5,6.61,31.06,6.4ZM6.62,3.63c1.46.09,2.6.91,4,1.92a21.28,21.28,0,0,0,2.3,1.51c-1.7.61-3.47,1.22-4.57,1.5-3,.77-4,5.89-4.32,8.68l-.57-.31A52.44,52.44,0,0,1,6.62,3.63Zm90.46,40.2h-92V41.92h92Z"/></g></g></svg>