<svg xmlns="http://www.w3.org/2000/svg" viewBox="0 0 493.7 493.74"><defs><style>.cls-1{fill:#fff;}</style></defs><g id="Layer_2" data-name="Layer 2"><g id="Layer_1-2" data-name="Layer 1"><path d="M247,493.74C110.9,494,.21,383.37,0,246.88-.21,111,110.5.11,246.45,0c136.41-.11,247,110.2,247.25,246.59C493.94,382.78,383.43,493.49,247,493.74ZM71,94.77c-.69-4.68-1.39-9.36-2.25-15.23-2.54,4.71-1,11.36,2.43,15.09a59.41,59.41,0,0,1-3.28,5,228,228,0,0,0-45.5,94.51C20,204.81,18.74,215.77,17,226.61l1.26.18A229.19,229.19,0,0,1,236.29,17.28c59.2-2.68,112.19,15,157.71,53.12s71.31,87.48,80.58,145.87a16.73,16.73,0,0,0,.05-4.52Q463.35,136.21,409.75,81.8c-3.61-3.67-7.27-7.28-10.9-10.92l14.79-2c-3.76-2.75-10-1.52-14.69,2.15a39.16,39.16,0,0,1-3.25-2.26A234.68,234.68,0,0,0,351.38,39a14,14,0,0,1-2.54-2.23l12.47-4.66-.86-1.92c-4.62.58-8.35,3-11.52,6.69-1.72-.51-3.47-.95-5.18-1.53q-23.62-8-47.24-15.93c-1.46-.49-3-.85-4.9-1.41l11-9.33c-6-.27-7.67,3.73-10,6.32-2.07,2.26-3.94,2.8-6.92,2.38-8.4-1.2-16.84-2.38-25.3-2.79-9.68-.48-19.4-.11-29.72-.11l8-11.38c-4,.4-4.15.31-7.53,7.65-1.36,3-3.16,3.87-6.29,4.48-16.8,3.27-33.52,6.94-50.28,10.47-1,.22-2.06.38-3.48.64,1.71-4.45,3.23-8.39,4.74-12.34l-1.85-.8c-1,2.27-2.61,4.49-2.75,6.81-.37,5.87-3.71,7.94-8.73,10.27-14.16,6.56-27.87,14.12-41.75,21.3-1.22.64-2.39,1.35-4.09,2.31.47-5,.86-9.3,1.26-13.57l-1.25-.4c-.57,1.27-1.49,2.5-1.63,3.82a26.23,26.23,0,0,0,.14,7c.55,3.22-.77,4.93-3.17,7-12.83,11.34-25.38,23-38,34.54C73,93.19,72,94,71,94.77ZM88.9,360.87c2.83,3.39,5.71,6.76,8.49,10.19,7.62,9.39,13.85,8.65,19.25-2.68-5.8.61-8.74-3.26-11.7-7.13-20.38-26.63-32.41-56.73-37.24-89.82-.92-6.32-2.64-12.72,2.92-18.41-2.33-.5-3.93-.92-5.56-1.18-7.57-1.19-11.23,2-11.11,9.75,0,2,.21,4,.4,6a188,188,0,0,0,20.86,69.32c4.31,8.21,9.21,16.1,13.84,24.14a15.78,15.78,0,0,1-2.72-2.55c-14.46-22-26.2-45.28-30.46-71.63-1.66-10.24-5.8-20.29-3.06-31,.14-.54-1.59-1.56-3.32-3.15a43.74,43.74,0,0,0,0,5.34c2.41,15.1,3.74,30.49,7.56,45.23,7.47,28.83,22,54.17,41.83,76.46a16.77,16.77,0,0,0,3.5,2.36c.65-1,1.31-2,2-3.08C99,376.09,91,366.5,88.9,360.87Zm59.82,13.81a19.67,19.67,0,0,1,3,1.56c24.68,18.22,52.43,28.47,82.77,32.05,6.15.73,6.45.64,6.25-5.37-.67-20.47-1.16-40.95-2.26-61.39a120.08,120.08,0,0,0-3.71-24.08c-2.64-10-10.63-14-20.53-11.2a39.11,39.11,0,0,0-11.81,5.19c-11.4,8-22.79,16.16-33.54,25-8.85,7.28-16.93,15.52-25.09,23.6-4.65,4.6-4.3,6.28.53,10.38,1.6,1.36,3,2.94,4.52,4.42l-7-4c-3.64,5.49-3.39,9.85,1.52,13.52,24.39,18.19,51.21,30.83,81.63,34.94,5.92.79,10.18-3,10.77-9.25-.48-.1-1-.23-1.44-.29C204.29,406,176.57,396.12,152,378.07A27,27,0,0,1,148.72,374.68Zm-35.81-36.8c4,5.23,8.09,10.42,12,15.72,2.07,2.79,3.8,3.06,6.31.33,16-17.43,32.23-34.59,48-52.2a65.55,65.55,0,0,0,10.39-16.3c3.27-7.17.68-14.73-6.25-18.5a75,75,0,0,0-18-7c-23.65-5.7-47.83-5.91-72-5.95-6,0-7.06,1.75-6.37,8.32A168.13,168.13,0,0,0,107.69,328c1.87,3.31,3.59,6.69,5.38,10a17.12,17.12,0,0,1-2.61-2.64,164,164,0,0,1-21.58-52.81c-1.57-7.4-2.59-14.9-3.87-22.38-6.77,1.74-9.41,4.68-8.61,10.37,4.25,30.15,14.38,58,32.83,82.53,3.76,5,8.58,5.42,14.63,1.54-1.17-1.57-2.43-3.08-3.48-4.72C117.84,345.94,115.4,341.89,112.91,337.88ZM344,376.69a13.46,13.46,0,0,1-2.17,2.39,165.72,165.72,0,0,1-59.05,25.72c-7.41,1.59-14.95,2.61-22.43,3.88,1.26,6.61,4.48,9.34,10.5,8.62a131.59,131.59,0,0,0,14.25-2.4c24.36-5.71,47.33-14.63,67.43-29.93,5.55-4.23,6.2-9.51,2.19-14.69l-10.88,6.57c3.4-2.84,6.75-5.73,10.21-8.49,2.4-1.91,2.45-3.53.15-5.65-17.65-16.22-35.1-32.66-52.95-48.66a62.16,62.16,0,0,0-15.48-9.86c-7.38-3.38-14.91-.76-19,6.27a59.27,59.27,0,0,0-5.9,14.2c-6.65,24.87-6.77,50.39-6.84,75.87,0,5.64,1.73,6.84,7.48,6.27a164.1,164.1,0,0,0,59.56-17.14C328.85,385.65,336.34,381,344,376.69ZM118.88,148.89l4-7c-5.78-3.75-9.94-3.39-13.86,1.92-17.77,24-30.23,50.41-34.43,80.28-1,6.79,1.63,10.17,8.76,12,.16-.27.43-.52.48-.8.32-1.8.62-3.6.87-5.41,3.87-28,13.62-53.7,30.14-76.71a43.63,43.63,0,0,1,4.26-4.46,10.73,10.73,0,0,1-1,2.21C99.41,176,89,204.18,85.32,235c-.47,3.87-.21,6,4.54,5.83,21.46-.9,42.94-1.32,64.38-2.48a101.56,101.56,0,0,0,23-3.91c8.79-2.6,12.68-10,10.46-18.8A57.38,57.38,0,0,0,182,201.93c-11.54-20.54-28.06-37.08-44.09-54a52,52,0,0,0-6.18-5.79c-2.68-2-5.28-2.38-7.56,1C122.76,145.31,120.68,147,118.88,148.89Zm257.92,1c-2.42-2.89-5-5.64-7.19-8.7-2.59-3.67-4.74-4.59-8-.56-3.13,3.88-6.93,7.19-10.28,10.9-13.83,15.31-28.27,30.14-41.2,46.18-13.18,16.35-9,28.13,11.13,34.19,26,7.83,52.9,7.69,79.71,7.78,4.33,0,6.39-2,5.88-7-2.32-22.27-8.23-43.42-18.86-63.16-3.61-6.7-7.57-13.2-11.37-19.8a17.92,17.92,0,0,1,2.7,2.58,164.1,164.1,0,0,1,24.36,54.29c2.1,8.82,3.43,17.83,5.1,26.75,6.43-1.15,9.28-4.43,8.45-10.42A167.21,167.21,0,0,0,414,205.27c-5.74-23.13-14.5-44.93-29.09-64-4.28-5.61-9.37-6.25-14.71-2.21Q373.53,144.45,376.8,149.87Zm-2.31,195.86a17.08,17.08,0,0,1,1.56-3.57c18.41-24.78,28.63-52.71,32.24-83.23.69-5.83.59-6.17-5.17-6-20.8.67-41.61,1.19-62.39,2.27a113.9,113.9,0,0,0-22.63,3.44c-10.89,2.82-15.24,11.33-11.44,22a83.67,83.67,0,0,0,8.19,16.46c12.19,19.27,28,35.48,43.89,51.66,5.54,5.66,6.79,5.53,12.43.3-.72,2.86.5,4.26,3.29,4.87,4.67,1,8-.7,10.73-4.46,17.47-24.09,29.86-50.33,34-80.07.92-6.59-2.23-10.51-7.65-11.41-4.62,16.25-8.48,32.6-14,48.37A117.34,117.34,0,0,1,374.49,345.73ZM349.25,122.61c2.75.74,4-.69,4.56-3.14,1-4.31-.05-7.79-3.76-10.5-24.28-17.75-50.76-30.34-80.83-34.5-6.48-.9-10.54,2.46-11.23,7.85C273.35,86.53,288.75,90,303.64,95a115.08,115.08,0,0,1,38.12,21.21,23.3,23.3,0,0,1-4-1.79C313.69,97.83,286.93,88.66,258,85.2c-4.12-.5-5.33.78-5.17,4.78.86,21.45,1.32,42.93,2.46,64.37a101.42,101.42,0,0,0,3.75,22.56c2.71,9.39,10.63,13.39,20,10.63a63.71,63.71,0,0,0,14.06-6.29c21-12.35,38.19-29.37,55.46-46.22C354.5,129.28,354.37,128.43,349.25,122.61ZM241,113.29l-1.25-.21c0-6.66.17-13.32,0-20-.17-5.43-1.75-6.71-7.1-6.2-34.62,3.27-65.2,16.36-92.33,37.92-2.95,2.34-3.16,4-.28,6.68,16.43,15.08,32.56,30.49,49.17,45.36a85.33,85.33,0,0,0,18,12.34c7.83,4,15.73,1.23,20.14-6.43,2.38-4.12,4.6-8.7,5.36-13.33C235.75,150.78,238.26,132,241,113.29ZM445.44,249.87c1.44-4.67.45-6.21-3.08-5.89a43.72,43.72,0,0,1-5,0c-32.49-.69-65-.91-97.45-2.33-12.19-.54-24.42-3.23-36.33-6.15-7.51-1.85-14-6.37-14.93-15.62-.38,2.48-.51,5,.4,7.07,5.43,12.38,6.1,24.92.82,37.36-1.89,4.44-2,8.3,0,12.38,2,3.92,1,7.24-2.09,9.86a69.27,69.27,0,0,1-7.21,4.86c38.24,28.61,70.21,65,105.91,97.81l3.08-3.39c-19.23-19.68-38.64-38.68-57-58.65-12.36-13.45-23.54-28-34.55-42.64-3.24-4.29-4.81-10.23-5.85-15.67-1.23-6.39,1.68-10.65,7.85-12.75A54.32,54.32,0,0,1,314.15,253c22-1.25,43.91-2.48,65.89-3C401.84,249.48,423.66,249.87,445.44,249.87ZM108.6,390.33c2.66-3.06,5-6.05,7.59-8.67,12.64-12.58,25-25.45,38.18-37.47,16.1-14.69,32.6-29,49.54-42.7,5.36-4.34,12.44-7.16,19.19-9,7.88-2.17,13,1.27,15,9.25a106.3,106.3,0,0,1,3.67,21.61c1.08,24.31,1.73,48.64,2.21,73,.31,16.46.06,32.93.06,49.63h5.66c0-1.95,0-3.59,0-5.23.71-33.66.88-67.34,2.4-101,.58-12.66,3.65-25.33,6.77-37.7,1.77-7,6.58-12.66,15.08-13.38a14.43,14.43,0,0,0-7.59.6c-12.43,5.37-25,5.82-37.36.49-4.11-1.77-7.73-1.84-11.43,0-5.05,2.53-8.71.6-11.73-3.28a42.68,42.68,0,0,1-3.41-5.9c-29,38.4-65.16,70.43-98.09,106.15ZM385,101.9c-13.88,14.66-26.68,28.68-40,42.15-17.6,17.75-35.5,35.28-56.42,49.18a60.86,60.86,0,0,1-18,8.07c-7.75,2-12.62-1.16-14.75-9A96.16,96.16,0,0,1,252,171.28c-1.12-27.64-1.8-55.3-2.41-82.95-.29-13.46-.05-26.92-.05-40-5.45-2-5.52.7-5.56,3.92-.34,29.16-.46,58.33-1.27,87.48-.47,16.64-1.52,33.35-6.72,49.37-2.55,7.88-6.47,14.77-16.1,16.1,2.49.35,4.94.45,6.94-.44,12.54-5.58,25.21-6.13,37.82-.77,4.08,1.74,7.68,2,11.42.05,5-2.57,8.73-.66,11.77,3.21a41.14,41.14,0,0,1,3.46,6c28.84-38.5,65.1-70.45,97.65-105.77ZM47.7,249.78c4.75,0,8.89-.07,13,0,30.8.65,61.63.85,92.4,2.24,12.2.55,24.41,3.17,36.35,6,7.85,1.85,14.47,6.43,15.66,15.88a13.87,13.87,0,0,0-.55-7.22c-5.42-12.4-6-24.92-.72-37.36,1.79-4.23,2-8,0-11.89-2.33-4.55-.84-8.14,2.73-11a52,52,0,0,1,6.58-4c-38.43-28.77-70.42-65.15-106.06-97.91l-4.4,4.93c14.51,13.82,29.44,26.94,43.07,41.3,15.9,16.77,30.92,34.41,45.75,52.15a52.17,52.17,0,0,1,9.12,17.56c3.24,10.33-.25,16.25-10.86,18.3a202.51,202.51,0,0,1-32.16,3.82c-35.46,1.06-70.94,1.49-106.41,2.17-1.13,0-2.26.2-3.58.32Zm77.64,126.9c-.74.48-2.44,1.47-4,2.62-5.52,4-5.88,8.75-1.07,13.73a39.66,39.66,0,0,0,2.93,2.71c30.74,25.8,66.3,40.14,106,44.6,11.69,1.31,15.93-4.17,12.13-13.75-4.44.58-8.58,1.94-12.51,1.49-36.38-4.18-68.43-18.75-96.79-41.61C129.19,384.18,127.7,380.23,125.34,376.68Zm126.89-308c6.48-3.78,6.51-4,14.47-2.93,34.33,4.48,64.78,18.18,92.19,39.08,4.29,3.28,8.2,6.63,8.08,12.73,12.82-5.64,12.4-12.83,3-20C361.75,91.3,353.49,85,344.68,79.75c-25.35-15.21-53-23.74-82.39-26.65-7.76-.76-11.68,3.45-10.64,11.15C251.83,65.56,252,66.88,252.23,68.66ZM124.9,116.47c1.76-7.28,1.72-7.33,10.3-13.64,27.62-20.3,58.68-31.84,92.59-35.78,4.12-.47,8.48,1.07,13.2,1.75a23.89,23.89,0,0,0,.75-2.91c1.51-8.59-1.57-12.16-10.26-12-1.17,0-2.34.08-3.5.19C188.41,58,153.32,72.83,122.4,97.66,113.21,105,114.12,111.29,124.9,116.47ZM423,240.47c1.77.5,3,.95,4.3,1.2,9.1,1.76,12.72-1.37,12.42-10.72q-.06-2-.27-4C435.4,187.77,420.6,153,396,122.36c-7.4-9.23-13.64-8.33-18.94,3,7.18-.5,10.11,5,13.5,9.58,19.84,26.84,31.34,57,35.82,90C427.15,230.44,427.94,235.88,423,240.47ZM67.07,241.55c-.54-4.73-1.86-9-1.38-13.13,4-34.39,17.49-65,38.28-92.46,3.47-4.59,6.58-9.67,14-9-1.32-2.13-2-3.43-2.88-4.65-4.76-6.9-9.5-7.24-15.32-1.11-.92,1-1.83,1.94-2.67,3-25.85,31.38-40,67.55-43.95,107.84-.22,2.25.78,4.85,1.85,7C58.26,245.32,63.63,241.5,67.07,241.55Zm186,181.25c-.56,2.56-1,4.16-1.26,5.79-1.22,7.71,1.88,11.29,9.65,11.2,1.5,0,3-.08,4.5-.23,39.92-4,75.17-19.14,106.34-44.22,3.85-3.1,6-7.09,4.5-11.25-1.08-3-4.92-5-8-8-1.5,8.08-1.87,8.58-10.21,14.7-27.48,20.2-58.36,31.66-92.06,35.93C261.73,427.36,257.2,427.32,253.1,422.8Zm124.22-54.37-1.25-1c1.16,1.8,2.23,3.66,3.5,5.37,3.7,5,8.5,5.38,13,1a74.34,74.34,0,0,0,6.61-7.46c23.67-30.08,36.93-64.35,41.24-102.27.57-4.95-.05-9.68-4.27-11.8-3-1.49-7.28-.28-9.64-.28.62,4.93,2,9.09,1.5,13-4.13,35.46-18.1,66.89-40.1,94.79C385.19,363.32,380.9,365.59,377.32,368.43Zm78.1-110.23c-7.63,110.37-93.91,188.24-192.51,195.59-55.62,4.14-105.62-11.42-148.76-46.9S47,324.83,39.2,269.73C44.64,356.15,123,458,247.43,457.26,375.92,456.48,453.91,350.91,455.42,258.2ZM233.66,85.39c-2-7.29-4.78-9.76-10.59-9-30,4.18-57.74,14.29-82.17,32.57-5.32,4-5.8,8.85-1.72,14.92C166.75,101.89,198,88.53,233.66,85.39Zm13.26,206a44.65,44.65,0,0,0,44.51-44.51c0-24.48-20.06-44.66-44.4-44.63a44.57,44.57,0,1,0-.11,89.14Zm131.93,94.37c.53,4.79-2.3,8.12-6.15,11.16-28.36,22.37-59.82,37.83-95.89,42.85-6.81.95-13.79.69-20.67,1.2-.93.07-1.77,1.35-3.28,2.59,19.87,2,60.77-5.93,92.53-24.27a200,200,0,0,0,37.16-27.13l-2.66-3.6,3.95,2.26.7-.82Zm-138.62-335c-.36-.83-.71-1.66-1.07-2.48C225.42,50.46,211.5,51.87,198,55c-31.56,7.29-59.38,22.21-83.68,43.64-1.54,1.36-4.57,2.62-1.26,5.28,0,0-.18.41-.27.62l-3.07-1.66-1.12,1.31,4.91,5.37c1.65-7.29,2.25-8.49,7.15-12.41,28.49-22.78,60.29-38.28,96.7-43.29,6.65-.91,13.46-.64,20.18-1.12C238.47,52.67,239.33,51.45,240.23,50.76ZM253,51.93c4.75,0,8.89-.48,12.88.08,42.58,6,81.61,19.73,112.17,51.8.49.52,1.69.35,2.55.51.12-.88.6-1.94.27-2.58a10.28,10.28,0,0,0-2.41-2.48,196,196,0,0,0-67.26-40.21,193.19,193.19,0,0,0-57.45-10.94C253.42,49.67,253.15,51,253,51.93ZM52.49,239.7c-.34-2.73-1.05-5-.85-7.22,3.64-41.28,18.57-78,44.5-110.31,1.73-2.16,4.25-3.67,6.22-5.66a19.13,19.13,0,0,0,2.3-3.55c-23.75,8.32-60.91,94.54-55.94,127.47ZM240,442.29c-6.67-.49-12.4-.61-18-1.38C184.38,435.75,151,421,121.61,397.11c-2-1.63-3.29-4.15-5.22-5.93-.83-.77-2.42-.72-3.66-1l-.44,1.68c36,33.32,78.46,51.37,127.84,53.89a17.53,17.53,0,0,0,.08-2.55C240.13,442.53,239.85,441.93,240,442.29Zm150-61.54,1.52.49a6.91,6.91,0,0,0,1.19-.85c32.26-35,49.79-76.3,52.9-123.78.31-4.79-2.16-3-4.22-2.66.3,3,.93,5.5.71,7.89-3.8,41.46-19,78.33-45.22,110.61-1.54,1.89-3.89,3.09-5.59,4.88C390.44,378.14,390.33,379.59,389.92,380.75Zm52.7-140.5c5.45-35.06-20.09-99.07-49.74-128.32-.3-.3-.88-.32-1.77-.62-.59,1.26-1.16,2.46-1.31,2.79,2.93,2.91,5.48,5,7.49,7.5,23.92,29.91,38.94,63.69,43.58,101.85.55,4.54,0,9.21.16,13.81C441.07,238.27,442.06,239.25,442.62,240.25ZM299.31,181.92l-.55-.87-4.1,2.3c-5,2.74-9.77,5.75-14.88,8.15-10,4.69-18.17,1.06-21.65-9.42-1.1-3.34-1.86-6.8-2.78-10.2a69.2,69.2,0,0,0,1.77,14.33c2.6,11.2,11.07,15.29,21.11,9.67C285.57,191.78,292.3,186.61,299.31,181.92Zm-127.53,56.5.28.79c5.35-1.05,10.78-1.8,16-3.2,8.51-2.28,12.71-9.28,9-17.22-4-8.59-9.83-16.34-14.86-24.45,2.64,7.35,6.63,13.89,9.66,20.85,4,9.05.47,16.53-8.7,19.92C179.48,236.48,175.59,237.33,171.78,238.42Zm149.58,17-.14-.75c-4.83.89-9.73,1.54-14.48,2.73-10.33,2.6-14.3,10.79-9.23,20.23,3.81,7.08,8.77,13.55,13.22,20.29l1-.55c-.58-1.1-1.17-2.2-1.76-3.29-2.75-5.13-5.88-10.08-8.15-15.41-3.9-9.15-.59-16.5,8.65-20C314,257.31,317.72,256.47,321.36,255.4Zm-83.08,66.12.85-.17c-1-5.17-1.72-10.41-3.09-15.49-2.44-9-9.44-13-18-9-7.86,3.68-14.92,9.08-22.33,13.72l.69,1.06c5.64-3.06,11.15-6.39,16.95-9.12,10.82-5.09,18.81-1.43,22.43,10C236.76,315.45,237.47,318.51,238.28,321.52Zm0-158.63-1.16-.17c-.94,3.69-1.79,7.41-2.84,11.07a108.69,108.69,0,0,1-3.66,11.39c-3.94,9.62-11.6,12.54-21,8.21-1.8-.82-3.53-1.79-5.29-2.69a26,26,0,0,0,7.73,6.48c8.75,5.12,17.37,2.52,20.37-7.12C235.2,181.25,236.41,172,238.3,162.89ZM303,204.53l-.88-.81c-1.92,2.87-4,5.64-5.73,8.63-4.85,8.46-2.6,16.66,6.64,19.77,8.92,3,18.45,4.23,27.71,6.24-6.8-3-13.9-4.75-20.76-7.16-11.34-4-14.39-12.09-9-22.81C301.59,207.09,302.28,205.81,303,204.53ZM190.73,289.36l1,.49c1.84-2.74,3.83-5.39,5.48-8.24,5.1-8.8,2.5-17.32-7.14-20.35-8.63-2.7-17.72-3.91-26.61-5.78A9.37,9.37,0,0,0,168.2,258c5.57,1.64,11.28,2.91,16.68,5,9.89,3.81,12.86,11.74,8.42,21.25C192.49,285.94,191.59,287.64,190.73,289.36ZM289.18,303l.72-.93c-3-2-5.94-4.18-9.11-5.92-8-4.4-15.77-2.42-18.8,6.14-3.22,9.15-4.59,18.95-6.76,28.47,3.28-7.25,5.09-14.87,7.83-22.13,3.64-9.66,11.65-12.56,20.92-8.26C285.74,301.15,287.45,302.08,289.18,303Zm-2.62-83.7c2.41-3.09,3.22-6.79-.39-11.11-4.39-5.26-8.6-2.62-12.3-1ZM286,272.73c-2.19,2.51-3.93,4.73-5.91,6.73s-4.41,4-6.63,6c5.19,4,7.39,4.24,11.43,1.17C289.5,283.13,289.68,281.27,286,272.73Zm-78.56,1.44c-2.73,3.35-3.66,7.23.17,11.38s5.51,4.33,12,.9Zm12-66.85c-3.08-2.6-6.93-3.58-11.14.22s-4.41,5.3-.95,12.23Zm-204.84,56-11-8.06-.92,1.3C5,261.16,10.12,261.75,14.58,263.33Zm475.57-24.8c-1.1-6.22-6.66-6.39-11-8.15ZM441,115.43c0,.4,0,.81,0,1.21l12.29,1.3c0-.64.1-1.27.16-1.91C449.47,113.91,445.19,115.12,441,115.43ZM378.52,441.08l-1.44-.22-1.3,12.49,1.44.15C380.34,449.68,378.13,445.23,378.52,441.08ZM40.28,375.77c3.7,4.84,8.18,2.42,12.38,2.62l.14-1.27Zm223,103.48-8.13,11,1.29,1C261.13,489,261.62,483.63,263.25,479.25ZM479.4,175.76l.72-1.34c-3.18-4.16-8.33-3.09-12.94-3.47ZM80.85,424.83l.1,1.51c4.87,1.73,8.82-1.34,12.94-3.56ZM26.67,322.91,14.24,318l-.68,1.71C17,323.23,22,322.5,26.67,322.91ZM324,467.67l-1.22-.48-4.86,12.49C323.47,477.09,322.26,471.78,324,467.67Zm-121.26,9.42-.8-1-10,8.08C197.82,484.72,199.44,479.82,202.75,477.09ZM483.91,301.68l1.24-.83c-.69-5.07-5.37-6.68-8.18-9.92l-1,.81Q480,296.71,483.91,301.68Zm-61.16,98.44q1.06,6.39,2.11,12.79l1.78-.3C427.57,408.06,425.34,404.06,422.75,400.12ZM16.85,202.85l.95-.83L9.65,191.94,8.32,193C9.4,197.72,13.86,199.69,16.85,202.85ZM461.7,361.29c2.38-5.63-2.08-8.23-5-11.51Q459.2,355.54,461.7,361.29ZM32,132.42c-2.32,5.64,2.1,8.28,5.06,11.57Zm99.94,329.49c3.93,2,8.2.08,12.83-5.47Z"/><path class="cls-1" d="M445.44,249.87c-21.78,0-43.6-.39-65.4.1-22,.5-43.94,1.73-65.89,3a54.32,54.32,0,0,0-14.09,3.16c-6.17,2.1-9.08,6.36-7.85,12.75,1,5.44,2.61,11.38,5.85,15.67,11,14.6,22.19,29.19,34.55,42.64,18.36,20,37.77,39,57,58.65l-3.08,3.39c-35.7-32.77-67.67-69.2-105.91-97.81a69.27,69.27,0,0,0,7.21-4.86c3.08-2.62,4.05-5.94,2.09-9.86-2-4.08-1.93-7.94,0-12.38,5.28-12.44,4.61-25-.82-37.36-.91-2.07-.78-4.59-.4-7.07.92,9.25,7.42,13.77,14.93,15.62,11.91,2.92,24.14,5.61,36.33,6.15,32.46,1.42,65,1.64,97.45,2.33a43.72,43.72,0,0,0,5,0C445.89,243.66,446.88,245.2,445.44,249.87Z"/><path class="cls-1" d="M108.6,390.33l-4.25-3.61C137.28,351,173.43,319,202.44,280.57a42.68,42.68,0,0,0,3.41,5.9c3,3.88,6.68,5.81,11.73,3.28,3.7-1.85,7.32-1.78,11.43,0,12.41,5.33,24.93,4.88,37.36-.49a14.43,14.43,0,0,1,7.59-.6c-8.5.72-13.31,6.35-15.08,13.38-3.12,12.37-6.19,25-6.77,37.7-1.52,33.62-1.69,67.3-2.4,101,0,1.64,0,3.28,0,5.23h-5.66c0-16.7.25-33.17-.06-49.63-.48-24.33-1.13-48.66-2.21-73a106.3,106.3,0,0,0-3.67-21.61c-2.05-8-7.13-11.42-15-9.25-6.75,1.87-13.83,4.69-19.19,9-16.94,13.71-33.44,28-49.54,42.7-13.16,12-25.54,24.89-38.18,37.47C113.55,384.28,111.26,387.27,108.6,390.33Z"/><path class="cls-1" d="M385,101.9l4,5.57c-32.55,35.32-68.81,67.27-97.65,105.77a41.14,41.14,0,0,0-3.46-6c-3-3.87-6.77-5.78-11.77-3.21-3.74,1.92-7.34,1.69-11.42-.05-12.61-5.36-25.28-4.81-37.82.77-2,.89-4.45.79-6.94.44,9.63-1.33,13.55-8.22,16.1-16.1,5.2-16,6.25-32.73,6.72-49.37.81-29.15.93-58.32,1.27-87.48,0-3.22.11-5.9,5.56-3.92,0,13.12-.24,26.58.05,40,.61,27.65,1.29,55.31,2.41,83a96.16,96.16,0,0,0,3.74,21.07c2.13,7.79,7,11,14.75,9a60.86,60.86,0,0,0,18-8.07c20.92-13.9,38.82-31.43,56.42-49.18C358.28,130.58,371.08,116.56,385,101.9Z"/><path class="cls-1" d="M47.7,249.78v-4.72c1.32-.12,2.45-.3,3.58-.32,35.47-.68,71-1.11,106.41-2.17a202.51,202.51,0,0,0,32.16-3.82c10.61-2.05,14.1-8,10.86-18.3a52.17,52.17,0,0,0-9.12-17.56c-14.83-17.74-29.85-35.38-45.75-52.15-13.63-14.36-28.56-27.48-43.07-41.3l4.4-4.93c35.64,32.76,67.63,69.14,106.06,97.91a52,52,0,0,0-6.58,4c-3.57,2.88-5.06,6.47-2.73,11,2,3.91,1.74,7.66,0,11.89-5.28,12.44-4.7,25,.72,37.36a13.87,13.87,0,0,1,.55,7.22c-1.19-9.45-7.81-14-15.66-15.88-11.94-2.81-24.15-5.43-36.35-6-30.77-1.39-61.6-1.59-92.4-2.24C56.59,249.71,52.45,249.78,47.7,249.78Z"/><path class="cls-1" d="M125.34,376.68c2.36,3.55,3.85,7.5,6.68,9.79,28.36,22.86,60.41,37.43,96.79,41.61,3.93.45,8.07-.91,12.51-1.49,3.8,9.58-.44,15.06-12.13,13.75-39.72-4.46-75.28-18.8-106-44.6a39.66,39.66,0,0,1-2.93-2.71c-4.81-5-4.45-9.73,1.07-13.73C122.9,378.15,124.6,377.16,125.34,376.68Z"/><path class="cls-1" d="M252.23,68.66c-.23-1.78-.4-3.1-.58-4.41-1-7.7,2.88-11.91,10.64-11.15,29.39,2.91,57,11.44,82.39,26.65,8.81,5.28,17.07,11.55,25.26,17.79,9.43,7.17,9.85,14.36-3,20,.12-6.1-3.79-9.45-8.08-12.73C331.48,83.91,301,70.21,266.7,65.73,258.74,64.69,258.71,64.88,252.23,68.66Z"/><path class="cls-1" d="M89.05,361c-4.63-8-9.53-15.93-13.84-24.14a188,188,0,0,1-20.86-69.32c-.19-2-.37-4-.4-6-.12-7.73,3.54-10.94,11.11-9.75,1.63.26,3.23.68,5.56,1.18-5.56,5.69-3.84,12.09-2.92,18.41,4.83,33.09,16.86,63.19,37.24,89.82,3,3.87,5.9,7.74,11.7,7.13-5.4,11.33-11.63,12.07-19.25,2.68-2.78-3.43-5.66-6.8-8.49-10.19Z"/><path class="cls-1" d="M124.9,116.47c-10.78-5.18-11.69-11.43-2.5-18.81C153.32,72.83,188.41,58,228,54.13c1.16-.11,2.33-.16,3.5-.19,8.69-.21,11.77,3.36,10.26,12A23.89,23.89,0,0,1,241,68.8c-4.72-.68-9.08-2.22-13.2-1.75-33.91,3.94-65,15.48-92.59,35.78C126.62,109.14,126.66,109.19,124.9,116.47Z"/><path class="cls-1" d="M423,240.47c4.93-4.59,4.14-10,3.39-15.56-4.48-33-16-63.18-35.82-90-3.39-4.58-6.32-10.08-13.5-9.58,5.3-11.28,11.54-12.18,18.94-3C420.6,153,435.4,187.77,439.46,227q.21,2,.27,4c.3,9.35-3.32,12.48-12.42,10.72C426,241.42,424.78,241,423,240.47Z"/><path class="cls-1" d="M67.07,241.55c-3.44-.05-8.81,3.77-12-2.62-1.07-2.11-2.07-4.71-1.85-7,3.95-40.29,18.1-76.46,44-107.84.84-1,1.75-2,2.67-3,5.82-6.13,10.56-5.79,15.32,1.11.84,1.22,1.56,2.52,2.88,4.65-7.44-.63-10.55,4.45-14,9C83.18,163.46,69.71,194,65.69,228.42,65.21,232.52,66.53,236.82,67.07,241.55Z"/><path class="cls-1" d="M253.1,422.8c4.1,4.52,8.63,4.56,13.42,3.95,33.7-4.27,64.58-15.73,92.06-35.93,8.34-6.12,8.71-6.62,10.21-14.7,3.12,2.94,7,5,8,8,1.48,4.16-.65,8.15-4.5,11.25-31.17,25.08-66.42,40.25-106.34,44.22-1.49.15-3,.21-4.5.23-7.77.09-10.87-3.49-9.65-11.2C252.1,427,252.54,425.36,253.1,422.8Z"/><path class="cls-1" d="M377.32,368.43c3.58-2.84,7.87-5.11,10.62-8.6,22-27.9,36-59.33,40.1-94.79.46-4-.88-8.11-1.5-13,2.36,0,6.68-1.21,9.64.28,4.22,2.12,4.84,6.85,4.27,11.8-4.31,37.92-17.57,72.19-41.24,102.27a74.34,74.34,0,0,1-6.61,7.46c-4.53,4.41-9.33,4-13-1-1.27-1.71-2.34-3.57-3.5-5.37Z"/><path class="cls-1" d="M398.85,70.88c3.63,3.64,7.29,7.25,10.9,10.92q53.51,54.45,64.88,130a16.73,16.73,0,0,1-.05,4.52C465.31,157.88,439.52,108.48,394,70.4S295.49,14.6,236.29,17.28A229.19,229.19,0,0,0,18.23,226.79L17,226.61c1.77-10.84,3-21.8,5.39-32.49a228,228,0,0,1,45.5-94.51,59.41,59.41,0,0,0,3.28-5l-.17.13c1-.81,2-1.57,3-2.43,12.65-11.54,25.2-23.2,38-34.54,2.4-2.12,3.72-3.83,3.17-7a26.23,26.23,0,0,1-.14-7c.14-1.32,1.06-2.55,1.63-3.82l1.25.4c-.4,4.27-.79,8.54-1.26,13.57,1.7-1,2.87-1.67,4.09-2.31,13.88-7.18,27.59-14.74,41.75-21.3,5-2.33,8.36-4.4,8.73-10.27.14-2.32,1.79-4.54,2.75-6.81l1.85.8c-1.51,4-3,7.89-4.74,12.34,1.42-.26,2.46-.42,3.48-.64,16.76-3.53,33.48-7.2,50.28-10.47,3.13-.61,4.93-1.5,6.29-4.48,3.38-7.34,3.56-7.25,7.53-7.65l-8,11.38c10.32,0,20-.37,29.72.11,8.46.41,16.9,1.59,25.3,2.79,3,.42,4.85-.12,6.92-2.38,2.36-2.59,4-6.59,10-6.32l-11,9.33c1.94.56,3.44.92,4.9,1.41q23.63,8,47.24,15.93c1.71.58,3.46,1,5.18,1.53l-.09-.11A14,14,0,0,0,351.38,39,234.68,234.68,0,0,1,395.7,68.75,39.16,39.16,0,0,0,399,71Z"/><path class="cls-1" d="M455.42,258.2c-1.51,92.71-79.5,198.28-208,199.06C123,458,44.64,356.15,39.2,269.73c7.84,55.1,31.74,101.62,75,137.16s93.14,51,148.76,46.9C361.51,446.44,447.79,368.57,455.42,258.2Z"/><path class="cls-1" d="M349.25,122.61l-7.49-6.36A115.08,115.08,0,0,0,303.64,95c-14.89-5-30.29-8.51-45.65-12.72.69-5.39,4.75-8.75,11.23-7.85,30.07,4.16,56.55,16.75,80.83,34.5,3.71,2.71,4.77,6.19,3.76,10.5C353.24,121.92,352,123.35,349.25,122.61Z"/><path class="cls-1" d="M371.17,349.06l3.32-3.33a117.34,117.34,0,0,0,23.07-39.37c5.51-15.77,9.37-32.12,14-48.37,5.42.9,8.57,4.82,7.65,11.41-4.15,29.74-16.54,56-34,80.07-2.73,3.76-6.06,5.46-10.73,4.46C371.67,353.32,370.45,351.92,371.17,349.06Z"/><path class="cls-1" d="M148.72,374.68a27,27,0,0,0,3.28,3.39c24.57,18.05,52.29,28,82.36,31.74.48.06,1,.19,1.44.29-.59,6.26-4.85,10-10.77,9.25-30.42-4.11-57.24-16.75-81.63-34.94-4.91-3.67-5.16-8-1.52-13.52l7,4Z"/><path class="cls-1" d="M112.91,337.88c2.49,4,4.93,8.06,7.47,12,1.05,1.64,2.31,3.15,3.48,4.72-6,3.88-10.87,3.45-14.63-1.54-18.45-24.51-28.58-52.38-32.83-82.53-.8-5.69,1.84-8.63,8.61-10.37,1.28,7.48,2.3,15,3.87,22.38a164,164,0,0,0,21.58,52.81,17.12,17.12,0,0,0,2.61,2.64Z"/><path class="cls-1" d="M233.66,85.39c-35.71,3.14-66.91,16.5-94.48,38.54-4.08-6.07-3.6-10.94,1.72-14.92,24.43-18.28,52.15-28.39,82.17-32.57C228.88,75.63,231.67,78.1,233.66,85.39Z"/><path class="cls-1" d="M343.81,376.85l10.88-6.57c4,5.18,3.36,10.46-2.19,14.69-20.1,15.3-43.07,24.22-67.43,29.93a131.59,131.59,0,0,1-14.25,2.4c-6,.72-9.24-2-10.5-8.62,7.48-1.27,15-2.29,22.43-3.88a165.72,165.72,0,0,0,59.05-25.72,13.46,13.46,0,0,0,2.17-2.39Z"/><path class="cls-1" d="M376.8,149.87q-3.29-5.42-6.56-10.85c5.34-4,10.43-3.4,14.71,2.21,14.59,19.11,23.35,40.91,29.09,64a167.21,167.21,0,0,1,3.21,17.64c.83,6-2,9.27-8.45,10.42-1.67-8.92-3-17.93-5.1-26.75a164.1,164.1,0,0,0-24.36-54.29,17.92,17.92,0,0,0-2.7-2.58Z"/><path class="cls-1" d="M119.05,148.74a43.63,43.63,0,0,0-4.26,4.46c-16.52,23-26.27,48.71-30.14,76.71-.25,1.81-.55,3.61-.87,5.41,0,.28-.32.53-.49.79-7.12-1.86-9.71-5.24-8.75-12,4.2-29.87,16.66-56.24,34.43-80.28,3.92-5.31,8.08-5.67,13.86-1.92l-4,7Z"/><path class="cls-1" d="M246.92,291.42a44.57,44.57,0,1,1,.11-89.14c24.34,0,44.41,20.15,44.4,44.63A44.65,44.65,0,0,1,246.92,291.42Zm-42.34-44.78A42.27,42.27,0,1,0,247,204.58,42.09,42.09,0,0,0,204.58,246.64Z"/><path class="cls-1" d="M378.85,385.79l5.69,4.24-.7.82-3.95-2.26,2.66,3.6a200,200,0,0,1-37.16,27.13c-31.76,18.34-72.66,26.24-92.53,24.27,1.51-1.24,2.35-2.52,3.28-2.59,6.88-.51,13.86-.25,20.67-1.2,36.07-5,67.53-20.48,95.89-42.85C376.55,393.91,379.38,390.58,378.85,385.79Z"/><path class="cls-1" d="M240.23,50.76c-.9.69-1.76,1.91-2.71,2-6.72.48-13.53.21-20.18,1.12-36.41,5-68.21,20.51-96.7,43.29-4.9,3.92-5.5,5.12-7.15,12.41l-4.91-5.37,1.12-1.31,3.07,1.66c.09-.21.32-.59.27-.62-3.31-2.66-.28-3.92,1.26-5.28C138.6,77.21,166.42,62.29,198,55c13.52-3.13,27.44-4.54,41.18-6.72C239.52,49.1,239.87,49.93,240.23,50.76Z"/><path class="cls-1" d="M253,51.93c.17-.9.44-2.26.75-3.82a193.19,193.19,0,0,1,57.45,10.94,196,196,0,0,1,67.26,40.21,10.28,10.28,0,0,1,2.41,2.48c.33.64-.15,1.7-.27,2.58-.86-.16-2.06,0-2.55-.51C347.47,71.74,308.44,58,265.86,52,261.87,51.45,257.73,51.93,253,51.93Z"/><path class="cls-1" d="M52.49,239.7l-3.77.73c-5-32.93,32.19-119.15,55.94-127.47a19.13,19.13,0,0,1-2.3,3.55c-2,2-4.49,3.5-6.22,5.66-25.93,32.27-40.86,69-44.5,110.31C51.44,234.68,52.15,237,52.49,239.7Z"/><path class="cls-1" d="M240,442.29c-.11-.36.17.24.25.87a17.53,17.53,0,0,1-.08,2.55c-49.38-2.52-91.81-20.57-127.84-53.89l.44-1.68c1.24.32,2.83.27,3.66,1,1.93,1.78,3.21,4.3,5.22,5.93C151,421,184.38,435.75,221.92,440.91,227.56,441.68,233.29,441.8,240,442.29Z"/><path class="cls-1" d="M389.92,380.75c.41-1.16.52-2.61,1.29-3.42,1.7-1.79,4.05-3,5.59-4.88,26.26-32.28,41.42-69.15,45.22-110.61.22-2.39-.41-4.85-.71-7.89,2.06-.38,4.53-2.13,4.22,2.66-3.11,47.48-20.64,88.77-52.9,123.78a6.91,6.91,0,0,1-1.19.85Z"/><path class="cls-1" d="M442.62,240.25c-.56-1-1.55-2-1.59-3-.18-4.6.39-9.27-.16-13.81-4.64-38.16-19.66-71.94-43.58-101.85-2-2.51-4.56-4.59-7.49-7.5.15-.33.72-1.53,1.31-2.79.89.3,1.47.32,1.77.62C422.53,141.18,448.07,205.19,442.62,240.25Z"/><path class="cls-1" d="M88.9,360.87C91,366.5,99,376.09,104.4,379c-.68,1-1.34,2.06-2,3.08a16.77,16.77,0,0,1-3.5-2.36c-19.79-22.29-34.36-47.63-41.83-76.46-3.82-14.74-5.15-30.13-7.56-45.23a43.74,43.74,0,0,1,0-5.34c1.73,1.59,3.46,2.61,3.32,3.15-2.74,10.73,1.4,20.78,3.06,31,4.26,26.35,16,49.59,30.46,71.63A15.78,15.78,0,0,0,89.05,361Z"/><path class="cls-1" d="M299.31,181.92c-7,4.69-13.74,9.86-21.08,14-10,5.62-18.51,1.53-21.11-9.67a69.2,69.2,0,0,1-1.77-14.33c.92,3.4,1.68,6.86,2.78,10.2,3.48,10.48,11.62,14.11,21.65,9.42,5.11-2.4,9.93-5.41,14.88-8.15l4.1-2.3Z"/><path class="cls-1" d="M171.78,238.42c3.81-1.09,7.7-1.94,11.41-3.31,9.17-3.39,12.65-10.87,8.7-19.92-3-7-7-13.5-9.66-20.85,5,8.11,10.83,15.86,14.86,24.45,3.72,7.94-.48,14.94-9,17.22-5.26,1.4-10.69,2.15-16,3.2Z"/><path class="cls-1" d="M321.36,255.4c-3.64,1.07-7.37,1.91-10.91,3.25-9.24,3.5-12.55,10.85-8.65,20,2.27,5.33,5.4,10.28,8.15,15.41.59,1.09,1.18,2.19,1.76,3.29l-1,.55c-4.45-6.74-9.41-13.21-13.22-20.29-5.07-9.44-1.1-17.63,9.23-20.23,4.75-1.19,9.65-1.84,14.48-2.73Z"/><path class="cls-1" d="M238.28,321.52c-.81-3-1.52-6.07-2.46-9-3.62-11.4-11.61-15.06-22.43-10-5.8,2.73-11.31,6.06-16.95,9.12l-.69-1.06c7.41-4.64,14.47-10,22.33-13.72,8.52-4,15.52,0,18,9,1.37,5.08,2.08,10.32,3.09,15.49Z"/><path class="cls-1" d="M238.3,162.89c-1.89,9.08-3.1,18.36-5.84,27.17-3,9.64-11.62,12.24-20.37,7.12a26,26,0,0,1-7.73-6.48c1.76.9,3.49,1.87,5.29,2.69,9.39,4.33,17,1.41,21-8.21a108.69,108.69,0,0,0,3.66-11.39c1-3.66,1.9-7.38,2.84-11.07Z"/><path class="cls-1" d="M303,204.53c-.68,1.28-1.37,2.56-2,3.86-5.39,10.72-2.34,18.82,9,22.81,6.86,2.41,14,4.14,20.76,7.16-9.26-2-18.79-3.23-27.71-6.24-9.24-3.11-11.49-11.31-6.64-19.77,1.72-3,3.81-5.76,5.73-8.63Z"/><path class="cls-1" d="M190.73,289.36c.86-1.72,1.76-3.42,2.57-5.16,4.44-9.51,1.47-17.44-8.42-21.25-5.4-2.08-11.11-3.35-16.68-5a9.37,9.37,0,0,1-4.75-2.48c8.89,1.87,18,3.08,26.61,5.78,9.64,3,12.24,11.55,7.14,20.35-1.65,2.85-3.64,5.5-5.48,8.24Z"/><path class="cls-1" d="M289.18,303c-1.73-.88-3.44-1.81-5.2-2.63-9.27-4.3-17.28-1.4-20.92,8.26-2.74,7.26-4.55,14.88-7.83,22.13,2.17-9.52,3.54-19.32,6.76-28.47,3-8.56,10.83-10.54,18.8-6.14,3.17,1.74,6.08,3.93,9.11,5.92Z"/><path class="cls-1" d="M286.56,219.26l-12.69-12.12c3.7-1.61,7.91-4.25,12.3,1C289.78,212.47,289,216.17,286.56,219.26Z"/><path class="cls-1" d="M286,272.73c3.69,8.54,3.51,10.4-1.11,13.92-4,3.07-6.24,2.85-11.43-1.16,2.22-2,4.54-3.91,6.63-6S283.8,275.24,286,272.73Z"/><path class="cls-1" d="M207.43,274.17l12.12,12.28c-6.44,3.43-8.06,3.32-12-.9S204.7,277.52,207.43,274.17Z"/><path class="cls-1" d="M219.42,207.32l-12.09,12.45c-3.46-6.93-3.33-8.34.95-12.23S216.34,204.72,219.42,207.32Z"/><path class="cls-1" d="M14.58,263.33c-4.46-1.58-9.61-2.17-12-6.76l.92-1.3Z"/><path class="cls-1" d="M490.15,238.53l-11-8.15C483.49,232.14,489.05,232.31,490.15,238.53Z"/><path class="cls-1" d="M441,115.43c4.2-.31,8.48-1.52,12.46.6-.06.64-.11,1.27-.16,1.91L441,116.64C441,116.24,441,115.83,441,115.43Z"/><path class="cls-1" d="M378.52,441.08c-.39,4.15,1.82,8.6-1.3,12.42l-1.44-.15,1.3-12.49Z"/><path class="cls-1" d="M40.28,375.77l12.52,1.35-.14,1.27C48.46,378.19,44,380.61,40.28,375.77Z"/><path class="cls-1" d="M71.14,94.63c-3.44-3.73-5-10.38-2.43-15.09.86,5.87,1.56,10.55,2.25,15.22Z"/><path class="cls-1" d="M263.25,479.25c-1.63,4.38-2.12,9.76-6.84,11.95l-1.29-1Z"/><path class="cls-1" d="M479.4,175.76,467.18,171c4.61.38,9.76-.69,12.94,3.47Z"/><path class="cls-1" d="M80.85,424.83l13-2.05c-4.12,2.22-8.07,5.29-12.94,3.56Z"/><path class="cls-1" d="M26.67,322.91c-4.63-.41-9.72.32-13.11-3.21l.68-1.71Z"/><path class="cls-1" d="M324,467.67c-1.75,4.11-.54,9.42-6.08,12l4.86-12.49Z"/><path class="cls-1" d="M202.75,477.09c-3.31,2.73-4.93,7.63-10.84,7l10-8.08Z"/><path class="cls-1" d="M483.91,301.68q-3.95-5-7.9-9.94l1-.81c2.81,3.24,7.49,4.85,8.18,9.92Z"/><path class="cls-1" d="M348.93,36.91c3.17-3.66,6.9-6.11,11.52-6.69l.86,1.92L348.84,36.8Z"/><path class="cls-1" d="M399,71c4.66-3.67,10.93-4.9,14.69-2.15l-14.79,2Z"/><path class="cls-1" d="M422.75,400.12c2.59,3.94,4.82,7.94,3.89,12.49l-1.78.3Q423.81,406.52,422.75,400.12Z"/><path class="cls-1" d="M16.85,202.85c-3-3.16-7.45-5.13-8.53-9.83l1.33-1.08L17.8,202Z"/><path class="cls-1" d="M461.7,361.29q-2.51-5.76-5-11.51C459.62,353.06,464.08,355.66,461.7,361.29Z"/><path class="cls-1" d="M32,132.42,37,144C34.08,140.7,29.66,138.06,32,132.42Z"/><path class="cls-1" d="M131.92,461.91l12.83-5.47C140.12,462,135.85,463.88,131.92,461.91Z"/><path d="M204.58,246.64a42.27,42.27,0,1,1,41.92,42.51A42.11,42.11,0,0,1,204.58,246.64ZM274.78,263c7.69-8.63,5.42-26.25.44-32-.16-.18-.62-.09-.94-.13-.29-1-.57-1.94-.86-2.91-8-12.23-25.31-17.53-38.5-11.68-.87.39-1.42,1.46-2.12,2.21l-11.92,8.86c-11.66,13.3-8.12,37.1,6.81,45.76,6.16,5.69,13.76,7.39,21.68,6.57,11.23-1.17,20.64-5.76,25.55-16.85Z"/><path d="M273.42,227.9c.29,1,.57,1.94.86,2.91,1.28,4.1,3.68,8.23,3.58,12.3-.17,6.64-2,13.24-3.08,19.86l.14-.2a31,31,0,0,1-3.22,3.53c-3.23,2.65-6.59,5.15-9.9,7.71,0-.83.09-1.65.08-2.48-.08-5.86.42-6.33,6.38-5.72,2.87.3,3.13-.8,2.06-3.2-2.08-4.65-1.41-5.78,3.51-7.11a10.12,10.12,0,0,0,2.37-1.39c-4.61-6.37-4.61-6.37.48-12.59-.46-.41-.86-1-1.4-1.21-6.06-2.37-6-2.34-3.74-8.06,1-2.49.15-3.16-2.54-2.79-4.85.67-6.13-.83-5.63-5.67.1-.94-.36-1.94-.75-3.81-6.78,7.05-9.34,2.13-11.33-3.31-2.39,2-4.26,4.7-6.23,4.77-2.2.08-4.49-2.26-6.76-3.56-3.44,8-3.44,8-10.4,5.57-.3.34-1,.83-.88,1.05,2.44,6.81-1,8.82-7.06,8.86-.43,0-.86.39-1.29.6.74-2.22,1.47-4.44,2.21-6.67l11.92-8.86c14.79-6,27.71-3.48,38.59,8.45A6.45,6.45,0,0,0,273.42,227.9Z"/><path class="cls-1" d="M261.8,274c3.31-2.56,6.67-5.06,9.9-7.71a31,31,0,0,0,3.22-3.53c-4.91,11.09-14.32,15.68-25.55,16.85-7.92.82-15.52-.88-21.68-6.57l.3-.35c1.62.82,3.18,1.76,4.85,2.45,9.9,4.08,19.7,5.4,29.11-1.34Z"/><path class="cls-1" d="M220.88,227.29c-.74,2.23-1.47,4.45-2.21,6.67l.2-.19c-1,2.51-2.53,4.93-3,7.54-2.32,12.85,2.74,23,12.12,31.39l-.3.35C212.76,264.39,209.22,240.59,220.88,227.29Z"/><path class="cls-1" d="M273.42,227.9a6.45,6.45,0,0,1-2-1c-10.88-11.93-23.8-14.46-38.59-8.45.7-.75,1.25-1.82,2.12-2.21C248.11,210.37,265.45,215.67,273.42,227.9Z"/><path class="cls-1" d="M274.78,263c1.11-6.62,2.91-13.22,3.08-19.86.1-4.07-2.3-8.2-3.58-12.3.32,0,.78-.05.94.13C280.2,236.72,282.47,254.34,274.78,263Z"/><path class="cls-1" d="M218.67,234c.43-.21.86-.6,1.29-.6,6,0,9.5-2.05,7.06-8.86-.08-.22.58-.71.88-1.05,7,2.41,7,2.41,10.4-5.57,2.27,1.3,4.56,3.64,6.76,3.56,2-.07,3.84-2.81,6.23-4.77,2,5.44,4.55,10.36,11.33,3.31.39,1.87.85,2.87.75,3.81-.5,4.84.78,6.34,5.63,5.67,2.69-.37,3.53.3,2.54,2.79-2.29,5.72-2.32,5.69,3.74,8.06.54.21.94.8,1.4,1.21-5.09,6.22-5.09,6.22-.48,12.59a10.12,10.12,0,0,1-2.37,1.39c-4.92,1.33-5.59,2.46-3.51,7.11,1.07,2.4.81,3.5-2.06,3.2-6-.61-6.46-.14-6.38,5.72,0,.83-.05,1.65-.08,2.48l.15-.2a6.18,6.18,0,0,1-1.95-.16c-6.76-3.08-6.75-3.09-10.28,2.94-.11.2-.6.18-.92.25-5-5.26-5-5.26-12.39-1.56a9.9,9.9,0,0,1-.82-2.14c-.73-5.34-1.76-6-7-4.58-.83.23-2.2.29-2.59-.18s-.26-1.81,0-2.68c1.22-4.7.24-6.09-4.65-6.57a10.46,10.46,0,0,1-2.35-.78c1.08-2.66,3-5.15,2.65-7.18s-3.16-3.53-5.23-5.63c1.14-.66,2-1.24,3-1.7,3.7-1.8,4.16-4,1.54-7.25-.73-.9-1.35-1.88-2-2.82Zm28.08-10.59A23.45,23.45,0,0,0,223.36,247c.18,13.1,10.75,23.62,23.57,23.44a23.52,23.52,0,1,0-.18-47Z"/><path d="M218.87,233.77c.68.94,1.3,1.92,2,2.82,2.62,3.27,2.16,5.45-1.54,7.25-.94.46-1.83,1-3,1.7,2.07,2.1,4.85,3.63,5.23,5.63s-1.57,4.52-2.65,7.18a10.46,10.46,0,0,0,2.35.78c4.89.48,5.87,1.87,4.65,6.57-.22.87-.41,2.14,0,2.68s1.76.41,2.59.18c5.23-1.42,6.26-.76,7,4.58a9.9,9.9,0,0,0,.82,2.14c7.38-3.7,7.38-3.7,12.39,1.56.32-.07.81,0,.92-.25,3.53-6,3.52-6,10.28-2.94a6.18,6.18,0,0,0,1.95.16c-9.41,6.74-19.21,5.42-29.11,1.34-1.67-.69-3.23-1.63-4.85-2.45-9.38-8.41-14.44-18.54-12.12-31.39C216.34,238.7,217.85,236.28,218.87,233.77Z"/><path d="M246.75,223.37a23.52,23.52,0,1,1,.18,47c-12.82.18-23.39-10.34-23.57-23.44A23.45,23.45,0,0,1,246.75,223.37Z"/></g></g></svg>