<svg xmlns="http://www.w3.org/2000/svg" viewBox="0 0 192.1 193.74"><defs><style>.cls-1{opacity:0.2;}.cls-2{fill:#d7c08e;}.cls-3{fill:#294433;}</style></defs><g id="Layer_2" data-name="Layer 2"><g id="Layer_2-2" data-name="Layer 2"><g class="cls-1"><path class="cls-2" d="M66.21,52.72s63.52.18,63.7.9-1.15,55.11-1.15,55.11L63,105.59Z"/><path class="cls-3" d="M183.15,137.61c-.53-2.43-2.46-.77-3.65-1.26-.33-.14-.6-.42-.92-.55-8-3.24-15.44-7.84-23.85-10.17-2.18-.61-4.15-1.94-6.3-2.75a68.76,68.76,0,0,0-6.59-2c-2.43-.63-4.92-1-7.32-1.69-2.21-.63-4.29-1.79-6.52-2.19s-4.66-.63-7-1c-5.66-1-11.48-1-17.24-1.31-2.48-.14-5,0-8.35,0-5.23.48-11.39-.69-17.55,1-3.1.86-6.5.43-9.83,1.11C62.42,117.87,57,119.58,51.43,121a128.7,128.7,0,0,0-15,5.12c-3.77,1.47-7,4.16-11.13,4.9-1.44,2.27-4.2,1.88-6.19,3.05s-3.9,2.38-6.48,2.41c-2.26,0-2.74,1.85-1.43,3.79a40.76,40.76,0,0,1,2.43,4.14c2.7,5.18,5.32,10.39,8,15.56,2.16,4.11,4.41,4.77,8.76,2.76,1.12-.52,2.45-.68,3.42-1.38,8.2-5.86,17.53-9.18,26.93-12.44,3.23-1.12,6.64-1.49,9.8-2.59a56.13,56.13,0,0,1,17-2.89c8.22-.21,16.52-1.17,24.73.89,3.53.88,7.27.82,10.87,1.46a63.31,63.31,0,0,1,7.16,2.06,50.92,50.92,0,0,1,7,2.33c5.41,2.59,11.38,3.91,16.34,7.62,3,2.2,6.54,3.52,9.77,5.37a4.59,4.59,0,0,0,5.12-.09,11.63,11.63,0,0,0,5-6.48c2-5.34,5.6-9.85,7.5-15.22C181.57,140.08,183.56,139.49,183.15,137.61Zm-20.27-1.11a7.83,7.83,0,0,1,2.64,1.23Zm-10.25-4.76-2.48-1.16C151.3,130.38,152,131.08,152.63,131.74Zm-5-2.92a12.33,12.33,0,0,0,2.33,1.24l-.39.24-3.68-1.71A1.4,1.4,0,0,1,147.6,128.82ZM30.41,136.21c1.17-.79,2.43-1.47,3.82-2.28L31.69,136c3.29-1.58,3.62-1.37,3.63-1.15a7.81,7.81,0,0,0,.25,1.63H31.1l.59-.48-1,.48h-.48A.57.57,0,0,1,30.41,136.21Zm1.49,19a12.5,12.5,0,0,1-2.35,1.23c-2.33,1.07-2.85.71-3.36-2-.68-3.58-2.66-6.56-4.59-9.56-.26-.4-.51-.82-.76-1.24H26.5a4.25,4.25,0,0,0,1.81,2c2.39.92-.27,2.56,1,3.62s1.78,2.76,2.94,3.86S32.56,154.75,31.9,155.24Zm11.42-6.07a1.43,1.43,0,0,1-1.07.88,5.13,5.13,0,0,0-3,1.11c-1.33.78-2.68-.25-2.67-2a5,5,0,0,0-1.52-3.42c-1.21-1.49-1.95-1-2.91.15a3.23,3.23,0,0,1-1.37.8,3.54,3.54,0,0,1-1.13,0,6.88,6.88,0,0,1,0-1.7c.06-.25.57-.38.86-.59s.68-.47,1-.69h6.54v-2.49c1.34,1.91,2.76,3.78,3.19,6.13,0,.24,1,.21,1.43.52A1.78,1.78,0,0,1,43.32,149.17Zm87.47-6.83c-.53.5-.79,1-1.67.23s-2.16-1-3.19-1.63l5.67.31A2.84,2.84,0,0,1,130.79,142.34Zm6.49.48a5.81,5.81,0,0,1-.46-.89l8.76,5.94C141.73,148.06,139.31,146.14,137.28,142.82ZM167,158.07a10.47,10.47,0,0,1-1.77,0H167l2.73-4.2c.26-.08.51,0,.77.49C171,155.31,168.43,158,167,158.07Z"/><path class="cls-2" d="M50,157.71a5.16,5.16,0,0,1,4.89-2c.55.06,1.16-.74,1.78-1.06a9.26,9.26,0,0,1,1.49-.48c-.53-.31-1.07-.61-6.25,1.62-6.18,2.41-7.67,2.14-8.29,2.75C40.18,162,35,162.3,31.68,165.81a54,54,0,0,1-7.29.22c-1.1-.1-2.21-1.18-3.13-2A17.57,17.57,0,0,1,17,158.37c-3.7-8-7.65-15.92-11.52-23.85-.59-1.22-2.06-2.69-1.74-3.52a13.71,13.71,0,0,1,3.54-4.79c1.08-1,3.53-1.17,3.88-2.22.81-2.35-2.34-1.41-3.33-2.94-2.11-3.24-5.08-5.91-7.48-9a3.63,3.63,0,0,1,0-3c.42-1,1.42-1.8,2.35-.21,3.43-1.87,6.21,1.23,9.45,1.29,2.1,0,4,1.56,5.48,3.27.17.19.73,0,1.11,0,0-.4.12-.88-.06-1.19-.61-1.09-1.29-2.14-2-3.17-1.93-2.79-4.27-9.69-4.21-12.57a5.61,5.61,0,0,1,.22-1,4.09,4.09,0,0,1,1.2.53,21.07,21.07,0,0,1,6.67,12.14c.35,2.13,1.13,4.16,1.16,6.4a5.72,5.72,0,0,0,1.53,3.32c1.62,1.82,3.05,3.63,3,6.23,0,.25.4.5.61.74.17-.31.51-.65.47-.93a10,10,0,0,0-.73-3.69,29.9,29.9,0,0,1-3.85-17.89c.19-2.27,0-4.58,0-6.86,0-2.5,0-2.5,3.43-2.63a42,42,0,0,0,.05,4.35c.05.49.71.92,1.09,1.38.18.87-.56,2.19,1.76,2.88.42.24.17-.17-.08-.59-.17.18-.53.4-.5.52a16,16,0,0,0,.64,1.67c.16-.29.32-.58-.06-1.6-.78-1.46,0-2.78-1.76-2.88a42,42,0,0,0-.05-4.35c-.05-.49-.71-.92-1.09-1.38.87-3.42-1.39-6.45-1.19-9.83s.78-7.08-.13-10.26c-1.29-4.48-.45-8.92-1.05-13.31-.42-3.11,1.2-5.74,1.27-8.69.06-2.73-.63-5.51,1-8.17.79-1.28-.82-3.67.87-4.59,1.18-.65,3.07.19,4.5-.18C41,35.37,49.55,29.21,49,18.07c-.22-4.43,1.47-6.79,5.1-8.76C60.21,6,66.79,4,73.28,1.67a7.68,7.68,0,0,1,1.53-.46C77.89.81,81,.29,84.07.1s6.11,0,9.16,0c4,0,8-.15,12,0,4.24.2,8.61.16,12.67,1.22a78.07,78.07,0,0,1,23.66,10.54,4.57,4.57,0,0,1,1.41,2.8,19.07,19.07,0,0,1,.05,4c-.33,7.54,3.78,12.28,9.84,15.88,3.14,1.86,6.34,3.3,10.09,3.35,2,0,2.61,1,3,3.13a76,76,0,0,1,1.18,15c0,2.13.83,4.25,1,6.4.35,3.53-1.6,6.78-1.2,10.41a54.53,54.53,0,0,1,0,10.3c-.16,1.93-1.37,3.69-1.13,5.83.2,1.87.26,3.44,1.63,5.13,1.23,1.52,1.69,4,1.79,6,.37,7.57-.3,15-5,21.37a6.46,6.46,0,0,0-.6,2.6c0,.14.13.44.22.45a1.34,1.34,0,0,0,.8-.13,2.22,2.22,0,0,0,.81-.8,58.66,58.66,0,0,1,3.5-6,12.09,12.09,0,0,0,1.43-6.77c-.16-3.56,1.57-6.24,3.21-9a27.6,27.6,0,0,1,3.25-4.36,6.71,6.71,0,0,1,2.32-1.07c.16.88.65,1.87.42,2.64-.56,1.85-1.53,3.56-2.21,5.38a46.86,46.86,0,0,1-4.09,8.05c-.3.49-.13,1.28-.17,1.93.4-.25.82-.48,1.21-.75,3-2.07,6-4,10-3.6a11.27,11.27,0,0,0,4.48-.76,2.31,2.31,0,0,1,2.82.67c1.25,1.23-.53,1.34-.7,2-1.14,4.44-4.78,6.93-7.71,10-1.26,1.32-1,2.77.86,2.86,2.53.11,3.66,1.64,4.73,3.34a4.23,4.23,0,0,1,.13,4.8c-3.46,6.37-6.51,13-9.81,19.41-1.61,3.16-3.47,6.19-5.16,9.31a11.19,11.19,0,0,1-7.24,5.39c-.48.13-1.2.27-1.52,0-3.26-2.55-8.16-2.21-10.68-6-2.94-.53-4.93-3.22-7.54-3.83a21,21,0,0,1-6.37-2.63c-2.63-1.66-4.79-.86-7.13.13-.27.11-.45.43-.68.65.32.16.64.46.95.46,3.78-.1,6.65,2.44,10.05,3.41,2.42.69,3.38,2.87,5.09,4.27.51.4.68,1.22,1,1.85a5.8,5.8,0,0,1-1.84.76c-2.56.15-5.21-.43-7.54,1.18-8.76-.1-17-1.78-23.47-8.28-.45-.46-2-.74-1-2a3.62,3.62,0,0,1,1.78-1.17c3.87-.83,7.77-1.55,11.65-2.33a7.68,7.68,0,0,0,2-.6c.45-.24.73-.78,1.09-1.18a2.8,2.8,0,0,0-.94-.48c-1.44-.17-2.8.12-4.23-1-.75-.58-2.65-.39-4.2.48-2.13,1.21-4.41,2.35-6.52,3.53-5.13,2.86-10.46,5.13-15.81,7.5-4.53,2-7.83,1.61-11.77-.7a86.5,86.5,0,0,0-10.56-4.89c-1.21-.51-2.63-1.41-3.32,1.18-.46,1.72-10.1,7.32-12.11,7.58q-5.76.73-11.55,1.15c-3.33.24-6.42-1.89-9.84-1.12a4.76,4.76,0,0,1-.18-1.1C41.77,161.94,50,157.71,50,157.71ZM158,64.22c0-5.34,0-10.68,0-16,0-2.49-.61-2.9-3.24-3.5a20.89,20.89,0,0,1-6.05-1.93,34,34,0,0,1-10.4-9.19,10.71,10.71,0,0,1-2-3.73c-.61-2.66-.72-5.42-1.26-8.09-.31-1.54-.65-3.54-1.72-4.35a26.21,26.21,0,0,0-7.07-3.55,124.72,124.72,0,0,0-12.67-4.07A122.75,122.75,0,0,0,97,7.1a47,47,0,0,0-13.8,1.11c-2.93.59-5.76,1.81-8.8,2.18s-5.5,2.75-8.43,3-4.4,2.38-6.62,3.47C58,17.57,57.17,19,57,21c-.41,4.79-1.19,9.56-4.4,13.6a26.59,26.59,0,0,1-16.25,10c-1.65.31-1.78,1.21-2.53,2.11-1,1.24-.71,2.49-.71,3.74-.05,8.77,0,17.55-.07,26.33,0,2.8-.05,5.64,1.28,8.06,1,1.78.82,3.5,1.1,5.29a31.92,31.92,0,0,0,1.77,7.27c1.24,3,2,6.07,3.26,9,1.35,3.08,3.47,5.8,5.15,8.75s2.71,3.66,5.46,2.65c8.35-3.06,17.18-3.71,25.8-5.44a42.12,42.12,0,0,1,7.53-1.11c8.21-.14,16.41,0,24.62,0,1.15,0,2.41-.32,3.42,0,4.15,1.52,8.5,1.7,12.77,2.46,2.9.51,6.09.35,8.85,2,2.29,1.38,5.19,1,7.65,2.26,1.59.84,3.05-.25,4.12-2.09a141.52,141.52,0,0,0,6.43-12.79,55.55,55.55,0,0,0,3.23-9.51,70.79,70.79,0,0,0,2.5-19C157.86,71.09,158,67.65,158,64.22ZM95.42,114.59c-5.23.49-11.39-.69-17.55,1-3.1.86-6.5.43-9.83,1.11C62.42,117.87,57,119.58,51.43,121a128.7,128.7,0,0,0-15,5.12c-3.77,1.47-7,4.16-11.13,4.9-1.44,2.27-4.2,1.88-6.19,3.05s-3.9,2.38-6.48,2.41c-2.26,0-2.74,1.85-1.43,3.79a40.76,40.76,0,0,1,2.43,4.14c2.7,5.18,5.32,10.39,8,15.56,2.16,4.11,4.41,4.77,8.76,2.76,1.12-.52,2.45-.68,3.42-1.38,8.2-5.86,17.53-9.18,26.93-12.44,3.23-1.12,6.64-1.49,9.8-2.59a56.13,56.13,0,0,1,17-2.89c8.22-.21,16.52-1.17,24.73.89,3.53.88,7.27.82,10.87,1.46a63.31,63.31,0,0,1,7.16,2.06,50.92,50.92,0,0,1,7,2.33c5.41,2.59,11.38,3.91,16.34,7.62,3,2.2,6.54,3.52,9.77,5.37a4.59,4.59,0,0,0,5.12-.09,11.63,11.63,0,0,0,5-6.48c2-5.34,5.6-9.85,7.5-15.22.45-1.27,2.44-1.86,2-3.74-.53-2.43-2.46-.77-3.65-1.26-.33-.14-.6-.42-.92-.55-8-3.24-15.44-7.84-23.85-10.17-2.18-.61-4.15-1.94-6.3-2.75a68.76,68.76,0,0,0-6.59-2c-2.43-.63-4.92-1-7.32-1.69-2.21-.63-4.29-1.79-6.52-2.19s-4.66-.63-7-1c-5.66-1-11.48-1-17.24-1.31C101.29,114.48,98.81,114.59,95.42,114.59ZM28.49,62.45c0,4.39,0,8.78,0,13.17s2,8.35,1.17,12.7A3,3,0,0,0,29.71,90c1.57,3.41,2.15,7.12,3.34,10.64a102.78,102.78,0,0,0,8.39,18.28c.69,1.19,3.68,1.93,3.79,1.16a5.45,5.45,0,0,0-.86-2.74c-.24-.49-.93-.75-1.16-1.24-3-6.19-6.66-12.18-8.81-18.67a80.31,80.31,0,0,1-3.47-20.28c-.57-9.7-.17-19.46-.14-29.19,0-3.57,1.22-4.86,4.73-5.54a25.2,25.2,0,0,0,15.17-9c2.88-3.51,2.58-8.08,4.15-12-2.45-2-.36-3.07.83-4.44,3-3.41,7.06-4.9,11-6.56C72.87,7.8,79.53,7.21,86,5.78c1.57-.35,3.13-1.09,4.68-1.08,4.83,0,9.72-.73,14.42,1.08C109.2,7.36,113.66,6.84,117.9,8a69.8,69.8,0,0,1,17.39,7.81c1.8,1.08,2.13,2.79,2.09,4.87-.08,5.4,1.24,9,4.53,13.56,1.25,1.75,3.33,2.58,4.68,4.25s3.29,2.05,5.06,2.94c2.32,1.16,5,.49,7.21,2,.84.59,1.37.77,1.4,1.86.18,5.58-.71,11.22,1.1,16.71,1,3-1,5.73-1.16,8.68-.21,5.38.2,10.72-.87,16.18-.87,4.43-2.61,8.6-3.17,13-.31,2.41-2.3,3.67-2.77,5.75-1,4.65-3.53,8.54-6.28,12.28-.66.9-1,1.81,0,2.29a2.78,2.78,0,0,0,2.58-.37c1.06-1.39,1.61-3.15,2.56-4.64a62.34,62.34,0,0,0,7.57-18c.82-3.1,2.07-6.13,2.58-9.21a122,122,0,0,0,1.24-16.11c.19-6.1-.13-12.22.11-18.32.15-3.76-.68-7.34-1.26-11a2.13,2.13,0,0,0-1.32-1.25c-4.06-1.25-8.13-2.16-11.91-4.49-4.14-2.55-6.52-6-8.56-10.2-1.5-3.08-.93-6.18-1-9.29-.05-1.18,0-2.31-1.18-3-4-2.23-7.67-5.26-12.28-6.28C121.3,7,116.8,4.31,111.58,4.64c-1.8-2.22-4.27-.73-6.4-1.14a41.73,41.73,0,0,0-7-1.09c-3.48,0-6.92-.27-10.46.91-2.84.95-6.09.33-9.24,1.17-7,1.89-14,3.76-20.6,7-3.54,1.75-5.6,3.83-5.54,8.45.11,8-3.74,14.16-11.09,17.93-3.2,1.64-6.67,2.35-10,3.43-.59.19-1.43.56-1.55,1a25.37,25.37,0,0,0-1.16,5.81C28.38,52.9,28.49,57.68,28.49,62.45ZM77,147.81a8.81,8.81,0,0,0-2.28,0,11.27,11.27,0,0,0-1.59,1,8,8,0,0,0,1.39,1.22,219.69,219.69,0,0,0,20,9.63c1.32.54,1.42-.31,2.1-.41,8.14-1.18,14.4-6.7,21.87-9.4A1.06,1.06,0,0,0,119,149c-.16-.43-.56-1.1-.87-1.11a9.14,9.14,0,0,0-6.21,1.65c-4.27,3.1-9.66,4.31-14.13,7.31a3.28,3.28,0,0,1-4.16-.62c-.87-1.09-2.15-1.17-3.33-1.64-3.59-1.45-7-3.44-10.42-5.24C78.6,148.68,77.38,148,77,147.81Zm91.2-20.62.23.51c1.92-.83,3.92-1.52,5.75-2.51a32.9,32.9,0,0,0,5.79-3.77c2.06-1.77,4.54-3.21,5.48-6.08a13,13,0,0,1,1.84-2.87,30.37,30.37,0,0,0-3.82.09,14.7,14.7,0,0,0-2.45.88c-7.15,2.32-11.31,6-14.51,12.53-.47,1-.5,1.2.56,1.22C167.49,127.2,167.86,127.19,168.24,127.19ZM96.66,146.66c-4.57,0-9.14,0-13.7,0a7.17,7.17,0,0,0-1.56.35c.4.54.73,1.47,1.21,1.55,4.48.78,8,3.7,12,5.4a2.63,2.63,0,0,0,2.84,0c4.08-2.07,8.39-3.69,12.28-6.15a12.58,12.58,0,0,0,1-.78,3.27,3.27,0,0,0-1-.35Q103.23,146.65,96.66,146.66ZM5.26,111c-.35.36-.7.58-.8.88a1.3,1.3,0,0,0,.1,1.07c3.07,3.12,5.94,6.51,9.34,9.21a25.1,25.1,0,0,0,10.47,5,4.28,4.28,0,0,0,1.57-.28,8.53,8.53,0,0,0-.71-1.21c-.35-.44-1-.75-1.16-1.23-1.35-4.76-4.83-7.73-8.9-9.85C12.08,113,8.56,112.17,5.26,111ZM32.82,124.8c1.1-.45,3.25-1.25,5.3-2.25a2,2,0,0,0,.45-1.79c-3.86-4-5.81-8.94-7.22-14.18a7.37,7.37,0,0,0-.58-1.47,5.51,5.51,0,0,0-.62-.77c-.17.31-.53.66-.48.93.47,2.5-1.19,5.29,1,7.57a1.12,1.12,0,0,1,.06,1.08c-2.37,2.86-.53,6.2-1.12,9.26C29.3,124.94,30.42,125,32.82,124.8Zm129.71-17.12a2.61,2.61,0,0,0,0-.56c-.12-.52-.27-1-.41-1.53-.4.29-1,.51-1.17.9-.68,1.22-1.26,2.5-1.84,3.77-1.4,3-2.6,6.13-4.21,9-1.33,2.41-1.42,2.47,1.19,3.35,1.48.51,2.84,1.4,4.35,1.77.46.11,1.2-1,1.82-1.5-1.67-1.32-.54-3.16-.86-4.74s-.9-3-.71-4.47,1.25-2.85,1.82-4.32A5,5,0,0,0,162.53,107.68Zm-34.09,50.44c-.57,0-1.14,0-1.71,0-.84.06-2.12-.37-1.94,1.16,0,.42,1,.71,1.43,1.12,3.19,2.82,7.61,1.56,11.17,3.34,1.21.61,3,.16,4.51.05a1.45,1.45,0,0,0,1.09-.86,1.55,1.55,0,0,0-.6-1.34C137.81,160.17,133.38,158.11,128.44,158.12ZM52.25,162.7a20.2,20.2,0,0,0,4,0c1.88-.39,3.69-1.14,5.54-1.7a12.75,12.75,0,0,0,3-.87,3.15,3.15,0,0,0,1.41-2.17c0-1.46-1.34-.84-2.16-.92-2.21-.23-4,1.71-6.36,1.18-3.5-.77-6.09,1.63-8.89,3.15a4.07,4.07,0,0,0-.82.79c.29.2.57.55.86.56C50,162.74,51.11,162.7,52.25,162.7Zm19.82-8a2.71,2.71,0,0,0,.57,0c.51-.13,1-.28,1.53-.42-.3-.41-.53-1-.93-1.19a24.74,24.74,0,0,0-5.62-2.84c-1.18-.31-2.69.62-4,1-.6.19-1.16.46-1.74.69.53.53,1.18,1.6,1.59,1.51C66.49,152.83,69.11,155,72.07,154.68Zm91.61-44.1a10.71,10.71,0,0,0,0,2.19c.26.93-.84,2.4.74,2.66.36,0,1.31-1.67,1.47-2.66.53-3.25.84-6.54,1.17-9.82,0-.29-.33-.61-.51-.92l-.6.82C164.18,105.31,163,107.92,163.68,110.58Zm17.26,14.47c-.12-.5-.12-.78-.21-.82s-.67-.22-.77-.11a12.92,12.92,0,0,1-6.66,4.38c-.21.05-.41.58-.44.91-.17,1.47,1.24.92,1.82,1.4.91.76,1.82,1.68,2.72.35C178.76,129.14,179.86,127,180.94,125.05ZM21.6,130a3.93,3.93,0,0,0-.8-.78q-3.68-2-7.38-3.94c-.21-.11-.71-.11-.76,0-.16.3-.32.78-.18,1a39.56,39.56,0,0,0,2.58,4c.94,1.21,2,2.32,3.56.52.35-.39,1.41-.12,2.12-.25C21.05,130.55,21.32,130.24,21.6,130ZM6.76,131c.06,1,3.47,3.27,4.52,3a1.89,1.89,0,0,0,1.11-1.41c0-2.07-1.59-4.67-2.34-4.21A27.4,27.4,0,0,0,6.76,131ZM184,132.89a6.17,6.17,0,0,0,2.26-1.49c1.17-1.58-.82-2.12-1.46-3.11-.1-.15-.29-.25-.4-.4-.68-1-1.21-.35-1.59.23a24.53,24.53,0,0,0-1.22,2.33C180.46,132.7,180.62,133,184,132.89ZM27.35,110.07c-.12-2.33.56-4.8-1.15-6.87-.27-.32-.5-.69-.75-1a3,3,0,0,0-.38,1c.06,2.89-.43,5.85,1.11,8.57.47.82-.77,2.16.77,2.72.13-.89.29-1.77.38-2.66C27.39,111.2,27.34,110.63,27.35,110.07ZM163.68,96.54a9.39,9.39,0,0,0,0,1.68,7.1,7.1,0,0,0,.53,1.46,10.41,10.41,0,0,0,.57-1.39c.13-.52,0-1.1.22-1.6.1-.32.62-.5.74-.82.35-.92.47-1.93-.95-1.86C163,94.1,164,95.65,163.68,96.54Z"/><path class="cls-2" d="M61.32,178.74c1.52,0,3.05-.09,4.57,0,1.1.09,2.21-.58,2.91,1.54.65,1.93,1.42,3.1-.23,4.84s-1.43,3,.68,3.74c1.5.53,1.92,1.11,1.56,2.22a3.94,3.94,0,0,1-1.9,2.4,3.3,3.3,0,0,1-2.91-.89c-1.08-1.35-1.63-3.11-2.54-4.62-.27-.43-1.33-.93-1.52-.77-.8.64-2,1.31-1.07,2.68.33.46.89.76,1.18,1.24a13.69,13.69,0,0,1,.79,1.93,10.14,10.14,0,0,1-2.05.53,17.16,17.16,0,0,1-4,0c-.62-.1-1.13-.9-1.69-1.39a15.19,15.19,0,0,0,1.39-.85c.26-.21.6-.55.6-.84,0-2.85.15-5.72-.05-8.56,0-.74-1.17-1.38-1.68-2.14a1.34,1.34,0,0,1,.24-1C57.51,178.72,59.42,178.74,61.32,178.74Zm4.73,3a24.59,24.59,0,0,0-2.58-.68,2.23,2.23,0,0,0-2.61,1.9c-.07.37,1.5,1.57,2,1.41C63.81,184,64.58,183,66.05,181.72Z"/><path class="cls-2" d="M97,193.63c-1.14,0-2.38.3-3.38-.07-1.76-.65-3.64-1.77-4-3.66-.49-2.81-.92-5.58.57-8.56.89-1.8,2.11-2.19,3.42-3s2.6-1.14,3.93.09c.34.31,1,.26,1.55.33,1.26.17,3.07-.12,3.64.59s.22,2.5.24,3.81-.34,2.56,1.8,2.69c.8.05.88,1.76-.28,2s-1.41.6-1.56,1.73c-.54,4-.61,4-4.26,4.08C98.08,193.64,97.52,193.63,97,193.63Zm-1-12.6c-1.13,0-2.35-.27-2.16,1.62.07.63-.44,1.3-.67,2-.62,1.8.8,5.87,2.33,6.59.31.15.85.27,1,.11,1-.83,1.93-1.76,2.88-2.65-.65-.39-1.51-.66-1.88-1.23-.23-.37.32-1.75.44-1.74,1.83.16,1.89-1.13,1.56-2.17a6.2,6.2,0,0,0-1.9-2.45C97.24,180.79,96.46,181,95.9,181Z"/><path class="cls-2" d="M79.82,178.74c1,0,1.9,0,2.85,0,4.68,0,4.72.06,4.23,4.65a3.21,3.21,0,0,1-.43,1,4.27,4.27,0,0,1-.8-.57c-1.54-1.69-3-3.51-5.71-2.71a6.46,6.46,0,0,0-1.76,1.25,3.09,3.09,0,0,0-.41.4,3.16,3.16,0,0,0,.82.58c.35.11.81-.09,1.13.05,1.06.46,1.92-2.17,3.11-.12a4.19,4.19,0,0,1,0,4.63c-.37.6-.94,1.77-2,.4-.33-.42-1.38-.31-2.1-.32-.31,0-.87.28-.89.48a2.19,2.19,0,0,0,.24,1.51c1.83,2.25,5.09,2.2,6.35-.54.68-1.47,1.28-1.48,2.37-1.46a2.5,2.5,0,0,1,1,.31,12.62,12.62,0,0,1-1.18,3.85,4,4,0,0,1-2.73,1.48c-2.84.19-5.71.09-8.56.06-2.15,0-1.93,0-1.47-2.45.64-3.43,1.26-7-.33-10.33-.68-1.43-.46-2.09,1.16-2.1S78.11,178.74,79.82,178.74Z"/><path class="cls-2" d="M113.46,189a7.39,7.39,0,0,0-1.7.05c-.17,0-.32.69-.26,1,.65,3.57.66,3.56-2.81,3.51h-1.14a1.24,1.24,0,0,1-1.09-2c2.43-3.22,2.75-7.29,4.57-10.71a17.63,17.63,0,0,1,2.88-3.26c.93,1.13,1.88,2.26,2.78,3.42a4.87,4.87,0,0,1,1.12,1.82c.58,2.84,1.11,5.59,3.32,7.82,1.05,1.06-.15,2.85-1.75,2.9-.77,0-1.53,0-2.29,0-1.62,0-1.85-.64-1.19-2.1,1.07-2.37,1-2.42-1.29-2.47Zm.41-3.2,1.51-.62a3.51,3.51,0,0,0-1-.72c-.26-.07-.62.22-.93.35C113.62,185.26,113.8,185.66,113.87,185.84Z"/><path class="cls-2" d="M129.45,193.63c-1.33,0-2.67.07-4,0a6.94,6.94,0,0,1-1.87-.72,6.47,6.47,0,0,1,1-1.87c1.37-1.32,2.1-2.6.7-4.36-.16-.21,0-.83.22-1.18.66-1.27.79-2.4-.36-3.52-.75-.73-2.24-1.51-1.31-2.66.51-.62,2.06-.43,3.14-.53a21.85,21.85,0,0,1,2.29,0c1.41,0,1.59,1,1,1.84-1,1.34-3.15,2.57-1.94,4.21s-.28,2.49-.19,3.72a2.83,2.83,0,0,0,2.25,2.78,2.44,2.44,0,0,0,3-1.09c.19-.3.38-.61.59-.89a10.13,10.13,0,0,1,1.88-2.37c.49-.34,1.57,2.38,1.59,3.84a2.56,2.56,0,0,1-2.21,2.77A38.66,38.66,0,0,1,129.45,193.63Z"/><path class="cls-3" d="M158,64.22c0,3.43-.09,6.87,0,10.3a70.79,70.79,0,0,1-2.5,19,55.55,55.55,0,0,1-3.23,9.51,141.52,141.52,0,0,1-6.43,12.79c-1.07,1.84-2.53,2.93-4.12,2.09-2.46-1.3-5.36-.88-7.65-2.26-2.76-1.67-5.95-1.51-8.85-2-4.27-.76-8.62-.94-12.77-2.46-1-.37-2.27,0-3.42,0-8.21,0-16.41-.09-24.62,0a42.12,42.12,0,0,0-7.53,1.11c-8.62,1.73-17.45,2.38-25.8,5.44-2.75,1-3.78.29-5.46-2.65s-3.8-5.67-5.15-8.75c-1.27-2.88-2-6-3.26-9a31.92,31.92,0,0,1-1.77-7.27c-.28-1.79-.11-3.51-1.1-5.29C33,82.43,33,79.59,33,76.79c.11-8.78,0-17.56.07-26.33,0-1.25-.33-2.5.71-3.74.75-.9.88-1.8,2.53-2.11a26.59,26.59,0,0,0,16.25-10c3.21-4,4-8.81,4.4-13.6.18-2,1-3.46,2.35-4.14,2.22-1.09,3.78-3.19,6.62-3.47s5.4-2.65,8.43-3,5.87-1.59,8.8-2.18A47,47,0,0,1,97,7.1a122.75,122.75,0,0,1,16.54,2.68,124.72,124.72,0,0,1,12.67,4.07,26.21,26.21,0,0,1,7.07,3.55c1.07.81,1.41,2.81,1.72,4.35.54,2.67.65,5.43,1.26,8.09a10.71,10.71,0,0,0,2,3.73,34,34,0,0,0,10.4,9.19,20.89,20.89,0,0,0,6.05,1.93c2.63.6,3.22,1,3.24,3.5C158,53.54,158,58.88,158,64.22ZM82.34,87c0,1.51,0,1.89,0,2.28-.1,2.68-.1,2.68-3.27,2.4-1.61-.15-5,2-4.62,3.18.53,1.41,1.94,2.54,3.1,3.65.3.28,1.12.12,1.67,0a4.63,4.63,0,0,1,5.3,3.2c.65,1.66,1.86,1.9,3,2.75,2.35,1.75,4.78.86,7.08.8,1.2,0,2.36-1.56,3.51-2.45a13.8,13.8,0,0,0,1.22-1.2c2.59-2.5,2.89-2.51,6.74-.81a10.92,10.92,0,0,0,3.53,1.12c4.47.31,8.46-1.42,12.27-3.45a16.09,16.09,0,0,0,4.76-3.64c2.43-2.89,2-5.32-.53-8.21a7.75,7.75,0,0,0-7.37-3c-1.51.18-3,0-4.58,0-4,.2-4.71.13-7.73-1.16-.39-.17-1-.31-1.1-.58-1-4-3.57-7.51-3.44-11.72.23-7.28.72-14.56,1.11-21.84,0-.19-.08-.43,0-.56,2.38-3.66.62-7.71,1.09-11.55a2.42,2.42,0,0,0-.7-1.94c-2.14-1.45-.42-3.1-.57-4.62-.41-4,2.51-4.41,4.85-5.59.94-.47,2-.73,2.94-1.18.56-.26,1.49-.78,1.45-1.06a3.36,3.36,0,0,0-1.11-1.79c-1.13-1-2.19-.63-3.52,0A34.39,34.39,0,0,1,103,22c-6.68,2.23-13.21,4.9-19.75,7.55C78,31.63,73,34.34,67.45,35.51c-1.49.32-1.06,1.24-1.15,2.08C66.16,39,67,39.08,68.08,39c.76-.06,1.83.27,2.22-.11,2.27-2.24,2.94-.37,4.06,1.24a7.63,7.63,0,0,1,.93,6.92c-.88,2.43-1.15,4.21,0,6.61.84,1.7.39,4,.77,6s1.49,4.11,1.52,6.17c0,1.77,1.84,3.56.12,5.34,1.75,2.1.61,4.72,1.26,6.93s2.18,4,2.49,6.41A8.81,8.81,0,0,0,82.34,87Z"/><path class="cls-3" d="M28.49,62.45c0-4.77-.11-9.55.05-14.31a25.37,25.37,0,0,1,1.16-5.81c.12-.46,1-.83,1.55-1,3.36-1.08,6.83-1.79,10-3.43,7.35-3.77,11.2-9.94,11.09-17.93-.06-4.62,2-6.7,5.54-8.45,6.56-3.25,13.56-5.12,20.6-7,3.15-.84,6.4-.22,9.24-1.17,3.54-1.18,7-.94,10.46-.91a41.73,41.73,0,0,1,7,1.09c2.13.41,4.6-1.08,6.4,1.14C116.8,4.31,121.3,7,126.19,8.1c4.61,1,8.25,4.05,12.28,6.28,1.17.65,1.13,1.78,1.18,3,.11,3.11-.46,6.21,1,9.29,2,4.17,4.42,7.65,8.56,10.2,3.78,2.33,7.85,3.24,11.91,4.49a2.13,2.13,0,0,1,1.32,1.25c.58,3.63,1.41,7.21,1.26,11-.24,6.1.08,12.22-.11,18.32A122,122,0,0,1,162.39,88c-.51,3.08-1.76,6.11-2.58,9.21a62.34,62.34,0,0,1-7.57,18c-1,1.49-1.5,3.25-2.56,4.64a2.78,2.78,0,0,1-2.58.37c-1-.48-.65-1.39,0-2.29,2.75-3.74,5.24-7.63,6.28-12.28.47-2.08,2.46-3.34,2.77-5.75.56-4.42,2.3-8.59,3.17-13,1.07-5.46.66-10.8.87-16.18.12-2.95,2.15-5.67,1.16-8.68-1.81-5.49-.92-11.13-1.1-16.71,0-1.09-.56-1.27-1.4-1.86-2.23-1.55-4.89-.88-7.21-2-1.77-.89-3.77-1.36-5.06-2.94s-3.43-2.5-4.68-4.25c-3.29-4.58-4.61-8.16-4.53-13.56,0-2.08-.29-3.79-2.09-4.87A69.8,69.8,0,0,0,117.9,8c-4.24-1.15-8.7-.63-12.82-2.21-4.7-1.81-9.59-1-14.42-1.08-1.55,0-3.11.73-4.68,1.08-6.45,1.43-13.11,2-19.28,4.61-4,1.66-8.07,3.15-11,6.56-1.19,1.37-3.28,2.45-.83,4.44-1.57,3.95-1.27,8.52-4.15,12a25.2,25.2,0,0,1-15.17,9c-3.51.68-4.72,2-4.73,5.54,0,9.73-.43,19.49.14,29.19A80.31,80.31,0,0,0,34.4,97.43c2.15,6.49,5.78,12.48,8.81,18.67.23.49.92.75,1.16,1.24a5.45,5.45,0,0,1,.86,2.74c-.11.77-3.1,0-3.79-1.16a102.78,102.78,0,0,1-8.39-18.28c-1.19-3.52-1.77-7.23-3.34-10.64a3,3,0,0,1-.06-1.68c.79-4.35-1.22-8.43-1.17-12.7S28.49,66.84,28.49,62.45Z"/><path class="cls-3" d="M77,147.81c.34.19,1.56.87,2.8,1.51,3.46,1.8,6.83,3.79,10.42,5.24,1.18.47,2.46.55,3.33,1.64a3.28,3.28,0,0,0,4.16.62c4.47-3,9.86-4.21,14.13-7.31a9.14,9.14,0,0,1,6.21-1.65c.31,0,.71.68.87,1.11a1.06,1.06,0,0,1-.38.93c-7.47,2.7-13.73,8.22-21.87,9.4-.68.1-.78.95-2.1.41a219.69,219.69,0,0,1-20-9.63,8,8,0,0,1-1.39-1.22,11.27,11.27,0,0,1,1.59-1A8.81,8.81,0,0,1,77,147.81Z"/><path class="cls-3" d="M168.24,127.19c-.38,0-.75,0-1.13,0-1.06,0-1-.25-.56-1.22,3.2-6.55,7.36-10.21,14.51-12.53a14.7,14.7,0,0,1,2.45-.88,30.37,30.37,0,0,1,3.82-.09,13,13,0,0,0-1.84,2.87c-.94,2.87-3.42,4.31-5.48,6.08a32.9,32.9,0,0,1-5.79,3.77c-1.83,1-3.83,1.68-5.75,2.51Z"/><path class="cls-3" d="M96.66,146.66q6.56,0,13.12,0a3.27,3.27,0,0,1,1,.35,12.58,12.58,0,0,1-1,.78c-3.89,2.46-8.2,4.08-12.28,6.15a2.63,2.63,0,0,1-2.84,0c-4.06-1.7-7.57-4.62-12-5.4-.48-.08-.81-1-1.21-1.55a7.17,7.17,0,0,1,1.56-.35C87.52,146.65,92.09,146.66,96.66,146.66Z"/><path class="cls-3" d="M5.26,111c3.3,1.15,6.82,2,9.91,3.57,4.07,2.12,7.55,5.09,8.9,9.85.13.48.81.79,1.16,1.23a8.53,8.53,0,0,1,.71,1.21,4.28,4.28,0,0,1-1.57.28,25.1,25.1,0,0,1-10.47-5c-3.4-2.7-6.27-6.09-9.34-9.21a1.3,1.3,0,0,1-.1-1.07C4.56,111.6,4.91,111.38,5.26,111Z"/><path class="cls-3" d="M32.82,124.8c-2.4.21-3.52.14-3.18-1.62.59-3.06-1.25-6.4,1.12-9.26a1.12,1.12,0,0,0-.06-1.08c-2.22-2.28-.56-5.07-1-7.57-.05-.27.31-.62.48-.93a5.51,5.51,0,0,1,.62.77,7.37,7.37,0,0,1,.58,1.47c1.41,5.24,3.36,10.18,7.22,14.18a2,2,0,0,1-.45,1.79C36.07,123.55,33.92,124.35,32.82,124.8Z"/><path class="cls-3" d="M162.53,107.68a5,5,0,0,1,0,1.69c-.57,1.47-1.62,2.83-1.82,4.32s.41,3,.71,4.47-.81,3.42.86,4.74c-.62.53-1.36,1.61-1.82,1.5-1.51-.37-2.87-1.26-4.35-1.77-2.61-.88-2.52-.94-1.19-3.35,1.61-2.89,2.81-6,4.21-9,.58-1.27,1.16-2.55,1.84-3.77.22-.39.77-.61,1.17-.9.14.51.29,1,.41,1.53A2.61,2.61,0,0,1,162.53,107.68Z"/><path class="cls-3" d="M163.68,110.58c-.71-2.66.5-5.27,2.29-7.73l.6-.82c.18.31.54.63.51.92-.33,3.28-.64,6.57-1.17,9.82-.16,1-1.11,2.71-1.47,2.66-1.58-.26-.48-1.73-.74-2.66A10.71,10.71,0,0,1,163.68,110.58Z"/><path class="cls-3" d="M180.94,125.05c-1.08,1.9-2.18,4.09-3.54,6.11-.9,1.33-1.81.41-2.72-.35-.58-.48-2,.07-1.82-1.4,0-.33.23-.86.44-.91a12.92,12.92,0,0,0,6.66-4.38c.1-.11.53,0,.77.11S180.82,124.55,180.94,125.05Z"/><path class="cls-3" d="M21.6,130c-.28.2-.55.51-.86.57-.71.13-1.77-.14-2.12.25-1.57,1.8-2.62.69-3.56-.52a39.56,39.56,0,0,1-2.58-4c-.14-.24,0-.72.18-1,.05-.11.55-.11.76,0q3.71,1.94,7.38,3.94A3.93,3.93,0,0,1,21.6,130Z"/><path class="cls-3" d="M6.76,131a27.4,27.4,0,0,1,3.29-2.65c.75-.46,2.32,2.14,2.34,4.21A1.89,1.89,0,0,1,11.28,134C10.23,134.31,6.82,132.08,6.76,131Z"/><path class="cls-3" d="M184,132.89c-3.4.1-3.56-.19-2.41-2.44a24.53,24.53,0,0,1,1.22-2.33c.38-.58.91-1.23,1.59-.23.11.15.3.25.4.4.64,1,2.63,1.53,1.46,3.11A6.17,6.17,0,0,1,184,132.89Z"/><path class="cls-3" d="M27.35,110.07c0,.56,0,1.13,0,1.69-.09.89-.25,1.77-.38,2.66-1.54-.56-.3-1.9-.77-2.72-1.54-2.72-1.05-5.68-1.11-8.57a3,3,0,0,1,.38-1c.25.34.48.71.75,1C27.91,105.27,27.23,107.74,27.35,110.07Z"/><path class="cls-3" d="M163.67,96.54c.29-.89-.71-2.44,1.14-2.53,1.42-.07,1.3.94.95,1.86-.12.32-.64.5-.74.82-.17.5-.09,1.08-.22,1.6a10.41,10.41,0,0,1-.57,1.39,7.1,7.1,0,0,1-.53-1.46A10.41,10.41,0,0,1,163.67,96.54Z"/><path class="cls-3" d="M26.2,92.83c.38.46,1,.89,1.09,1.38a42,42,0,0,1,.05,4.35c-.38-.46-1-.89-1.09-1.38A42,42,0,0,1,26.2,92.83Z"/><path class="cls-3" d="M28.49,100.85c-1.71-.1-1-1.42-1.15-2.29C29.06,98.66,28.32,100,28.49,100.85Z"/><path class="cls-3" d="M29.72,102l-.56,1a16,16,0,0,1-.64-1.67c0-.12.33-.34.5-.52Z"/><path class="cls-2" d="M93.79,84.77c-11.51,2.08-12.14.93-12.29-.27-.31-2.39-1.85-4.25-2.49-6.41s.49-4.83-1.26-6.93c1.72-1.78-.1-3.57-.12-5.34,0-2.06-1.13-4.09-1.52-6.17s.07-4.28-.77-6c-1.2-2.4-.93-4.18,0-6.61a7.63,7.63,0,0,0-.93-6.92c-1.12-1.61-1.79-3.48-4.06-1.24-.39.38-1.46.05-2.22.11-1,.07-1.92,0-1.78-1.42.09-.84-.34-1.76,1.15-2.08,5.57-1.17,10.59-3.88,15.81-6C89.8,26.86,96.33,24.19,103,22a34.39,34.39,0,0,0,4.39-1.85c1.33-.65,2.39-1,3.52,0A3.36,3.36,0,0,1,112,21.88c0,.28-.89.8-1.45,1.06-1,.45-2,.71-2.94,1.18-2.34,1.18-5.26,1.61-4.85,5.59.15,1.52-1.57,3.17.57,4.62a2.42,2.42,0,0,1,.7,1.94c-.47,3.84,1.29,7.89-1.09,11.55-.09.13,0,.37,0,.56-.39,7.28-.88,14.56-1.11,21.84-.13,4.21,2.45,7.76,3.44,11.72.07.27.71.41,1.1.58,3,1.29,3.7,1.36,7.73,1.16,1.53-.07,3.07.14,4.58,0a7.75,7.75,0,0,1,7.37,3c2.49,2.89,3,5.32.53,8.21a16.09,16.09,0,0,1-4.76,3.64c-3.81,2-7.8,3.76-12.27,3.45a10.92,10.92,0,0,1-3.53-1.12c-3.85-1.7-4.15-1.69-6.74.81a13.8,13.8,0,0,1-1.22,1.2c-1.15.89-2.31,2.41-3.51,2.45-2.3.06-4.73.95-7.08-.8-1.12-.85-2.33-1.09-3-2.75a4.63,4.63,0,0,0-5.3-3.2c-.55.1-1.37.26-1.67,0-1.16-1.11-2.57-2.24-3.1-3.65-.42-1.15,3-3.33,4.62-3.18,3.17.28,3.17.28,3.27-2.4,0-.39,0-.77,11.46-4.52,9.72-3,8-4,6.23-4.49-2-.59-4.15-.81-12.53-4.61-6.3-1.47-6.18.07-6.33,1.58-.19,1.92,1.37,2.64,2.45,3.51.45.36,2.09,0,2.59-.59,1.23-1.4,2.74-1.25,4.15-1,2.08.32,3.67-.67,5.4-1.42a11.17,11.17,0,0,1,2.48-.9c2.85-.51,2.76-.45,2-3.42-.43-1.57-1.15-3.62-.52-4.8a7.66,7.66,0,0,0-.08-7.73c-.47-.91.11-2.82-.44-3.13-1-.58-2.51-.34-3.81-.41-.57,0-1.14,0-1.71,0-4.88-.3-8.65,2.08-12.25,5-1.17.93-2,2.43-1.23,3.38,1.78,2.27.64,4.72,7.35,10,5.81,3.8,5.36,4.45,4.83,4.52-5.23.7-8.95,5.76-7.6,10.73.18.67.62,2.37,2.69,1.07,2.31-1.45,5.37-3.28,7.94-2.39,3,1,6.81-.38,9.09,2.89.18.26,1.33.08,1.87-.19,4.69-2.34,9.82-3,14.85-4,1-.19,2.53.6,2.39-1.34-.11-1.48-1.4-.93-2.21-.92-1.47,0-3.09-.16-4.38.4a7.79,7.79,0,0,1-6.24,0C108.44,85.58,106.2,85.07,93.79,84.77Zm-16-32.36c0,1.52.07,3.05,0,4.58C77.62,59,79,58.43,80,58.45a1.75,1.75,0,0,0,1-.39c3.91-3.06,9.11-2.85,13.32-5.19.65-.36,1.79,0,2.66.23,2,.54,3.81,0,3.6-1.35-.66-4.19,1.57-8,1.26-12.13-.26-3.33-1.83-5.14-5.1-5.19a84.64,84.64,0,0,0-8.58.06A8.48,8.48,0,0,0,83.71,36c-3.16,2.61-2.22,7.63-5.68,10.24-.4.3-.25,1.4-.27,2.13C77.73,49.74,77.75,51.07,77.75,52.41ZM95.53,32.13a15.88,15.88,0,0,1,1.69,0c1.48.15,2.44,0,2.35-2-.12-2.43-1.84-1.41-2.85-1.39a6.13,6.13,0,0,0-2.87,1.1,14.14,14.14,0,0,0-2.11,1.92c.89.11,1.78.24,2.67.33A10.46,10.46,0,0,0,95.53,32.13ZM88.12,98.56c1.28,0,2.16.25,2.73-.07s1.07-1.22,1.58-1.86a11,11,0,0,0-2.7-1.39c-.48-.1-1.22.59-1.72,1.05a8.28,8.28,0,0,0-1.09,1.46ZM77.75,37.81a3.47,3.47,0,0,0,0,.56c.09.51.21,1,.32,1.53a7.44,7.44,0,0,0,1.16-.7,5.1,5.1,0,0,0,1.53-1.58,7.69,7.69,0,0,0,.38-2.6c0-.12-.6-.46-.7-.39a26,26,0,0,0-2.67,2.1C77.6,36.9,77.75,37.44,77.75,37.81Z"/><path class="cls-2" d="M165.75,154.68c.57,0,1.33-.23,1.68,0,1.27,1,2.12-2,3-.36.52.95-2,3.63-3.5,3.71a4.83,4.83,0,0,1-3.68-.78c-2.83-2.15-6-3.83-9-5.74-.65-.41-1-.85-.19-1.63,3.13-2.85,4.75-6.73,7-10.21.72-1.13-.79-3.11,1.21-3.26a6.28,6.28,0,0,1,3.38,1.35c2.25,1.47,4.86,2.27,6.91,4.17.6.57,1.59.59,1.44,1.77l-.36,2.71c-.67-.53-1.37-1-2-1.6a3.14,3.14,0,0,1-1-1.27c-.44-1.55-1.12-2.75-3-2.63a3.87,3.87,0,0,0-3.77,3.44,4.18,4.18,0,0,1-2,3.44,4.29,4.29,0,0,0-1.51,5c.54,1.8,2.47,2,4.26,1.82A10.84,10.84,0,0,1,165.75,154.68Z"/><path class="cls-2" d="M136.18,138.69a9.72,9.72,0,0,1,5.55-8.43,29,29,0,0,0,3.46-1.28c.89-.56,1.46-.93,2.41-.16a12.33,12.33,0,0,0,2.33,1.24,25,25,0,0,1-3,1.69c-4.76,1.95-6.08,5.89-6.18,10.53a3.1,3.1,0,0,0,.55,2,8.85,8.85,0,0,0,3,2.28c.86.33,3.11-2.62,3.28-4s.29-2.54.44-3.81c1.06.59,2.09,1.21,3.17,1.75.47.23,1,.23,1.53.43s1.16.59,1.73.88a6.57,6.57,0,0,1-1.24,1.37c-1.65,1-1.58,3-2.58,4.36-.73,1-1.62,2.32-3.15.77a2.06,2.06,0,0,0-1.48-.49c-4.13.39-6.67-1.56-8.78-5A7.73,7.73,0,0,1,136.18,138.69Z"/><path class="cls-2" d="M104.57,120.32c1.9,0,3.81-.08,5.71,0a4.71,4.71,0,0,1,4.12,4.38,2.06,2.06,0,0,1-.29,1,1.15,1.15,0,0,1-.76-.2,35.79,35.79,0,0,0-2.87-2.78c-1.16-.88-2.76.22-3,1.75-.36,2.7,1,5.57-1,8.17-.36.47.59,1.93.87,3,.49,1.72-.49,2.51-2.48,2.1a8.51,8.51,0,0,0-2.19-.2c-2,.12-1.56-.13-1.06-1.91a47,47,0,0,0,1.27-10.89c.11-2.87-1.53-3.58-4-2-.32.19-.5.66-.83.77-.67.21-.88,2.16-1.87.72-.37-.53,0-1.89.43-2.56a3.44,3.44,0,0,1,2.26-1.26C100.75,120.2,102.67,120.32,104.57,120.32Z"/><path class="cls-2" d="M54.84,144.37c-.62,1.17-.82,3.37-2.83,1.18-.75,1.93-2.85.48-3.91,1.56-.7.72-1.37.82-1.24-.36.55-5.18-2.09-9.43-4.14-13.76-.88-1.85.21-3.11,1-3.08,3.65.13,6-3.38,9.72-3.06.43,0,1-1,1.61-.07s2.25,2.45,2,3.06c-.93,2.08-2,0-3-.35a1.56,1.56,0,0,0-.57,0c-1.8.12-3.81-.6-5.15,1.4s.87,3.34,1.11,5.05c0,.23,1.33.28,2,.42-1.42,2-1.84,3.89.49,5.72C52.86,142.84,52.55,145.23,54.84,144.37Z"/><path class="cls-2" d="M34.23,133.93c.37.3,1.07.59,1.09.92.24,5,5.06,7.78,5.92,12.47,0,.24,1,.21,1.43.52a1.78,1.78,0,0,1,.65,1.33,1.43,1.43,0,0,1-1.07.88,5.13,5.13,0,0,0-3,1.11c-1.33.78-2.68-.25-2.67-2a5,5,0,0,0-1.52-3.42c-1.21-1.49-1.95-1-2.91.15a3.23,3.23,0,0,1-1.37.8,3.54,3.54,0,0,1-1.13,0,6.88,6.88,0,0,1,0-1.7c.06-.25.57-.38.86-.59,3.4-2.34,3.46-2.82.77-5.76-.38-.42-.92-.75-1.17-1.24a1.24,1.24,0,0,1,.27-1.16C31.58,135.42,32.84,134.74,34.23,133.93Z"/><path class="cls-2" d="M72.87,121.41c1.77.69,3.47,1.2,5,2s1,2.29,1,3.55a2.23,2.23,0,0,1-.61,1.43c-.75.74-1.62,1.36-2.44,2a11.68,11.68,0,0,1,2.71,1.65A24.16,24.16,0,0,1,81.35,136a10.39,10.39,0,0,1,.74,2.33c-1.25-.24-2,2.31-3.59.55-.5-.57-1.65,0-2-1.38a11.34,11.34,0,0,0-2.38-4.11,18.79,18.79,0,0,0-3-2.45,25.64,25.64,0,0,0,2.76-2.86,2,2,0,0,0-.1-1.87,8.31,8.31,0,0,0-2.41-2.39,9.24,9.24,0,0,0-2.81-.62c1-.27,2.08-.47,3.07-.83A4.51,4.51,0,0,0,72.87,121.41Z"/><path class="cls-2" d="M24.58,139.72c2.28.22,1.56.81.53,1.77,0,0,.21.25.31.39.94,1.32,1.62,3.34,2.89,3.83,2.39.92-.27,2.56,1,3.62s1.78,2.76,2.94,3.86.31,1.56-.35,2.05a12.5,12.5,0,0,1-2.35,1.23c-2.33,1.07-2.85.71-3.36-2-.68-3.58-2.66-6.56-4.59-9.56-.74-1.16-1.41-2.38-2.12-3.57C21.17,140.82,22.51,139.52,24.58,139.72Z"/><path class="cls-2" d="M66.3,123.76c2-.46,2.39.3,2.38,2.28,0,2.31,1,4.63,1,7a10.89,10.89,0,0,0,2.11,6,2.24,2.24,0,0,1,.08,1.47c-1.79.45-3.65,1.18-5.41,1-1-.1-1.29-1.38-.75-3.08a10,10,0,0,0-.79-7.15c-.92-1.69-.49-3.23-1-4.75-.26-.79-.56-1.57-.84-2.35l2.69-.39A5.42,5.42,0,0,1,66.3,123.76Z"/><path class="cls-2" d="M121.29,129.48a21.57,21.57,0,0,1,2-3.68c.76-.94,1.58-2.54,3-1.91.55.24.34,2,.65,3,1.06,3.41,2.28,6.76,2.37,10.43,0,.89,1.14,1.78,1.82,2.61.83,1,.3,1.66-.43,2.37-.53.5-.79,1-1.67.23s-2.22-1-3.26-1.67c-.49-.3-1.13-1-1.08-1.45.48-4.34.51-4.34-3.48-6-.07,0,0-.36,0-.55,1-.09,2.25.49,2.34-1.43S122.81,129.28,121.29,129.48Z"/><path class="cls-2" d="M89.29,137.5c-3.15.49-2.77.51-2.53-2.82s.88-6.67-.52-9.93a9.62,9.62,0,0,1-.46-2.65c-.13-1,0-1.86,1.4-1.79a22.62,22.62,0,0,1,3.4.09c.4.08,1,1.4.86,1.57-1.9,2.19-1.39,4.32-.3,6.66.43.94.24,2.16.37,3.26A23,23,0,0,0,92,135.1c.6,2.17.65,2.16-1.56,2.4A10.84,10.84,0,0,1,89.29,137.5Z"/><path class="cls-2" d="M121.29,132.92c-2.75.75-4.66,2.21-4,4.31.57,1.82-.92,1.64-1.09,2.5a12.91,12.91,0,0,1-2.34-1.11c-1-.7-.73-1.51,0-2.34,2-2.18,4.62-3.83,5.75-6.77.07-.19,1.07,0,1.65,0Z"/><path class="cls-2" d="M155.94,135.8c-.58.86-1.12,1.75-1.77,2.57a1,1,0,0,1-1,.24c-.4-.22-.89-.64-.94-1a31.11,31.11,0,0,0-.42-4.36c-.27-1-1.25-1.73-1.91-2.58,1.85-.51,2.49,1.3,3.73,1.9C155.11,133.23,156.33,133.69,155.94,135.8Z"/><path class="cls-2" d="M61.73,139c-.1,3.22-3.74,6-6.32,5.34a1,1,0,0,1-.16-.9c1.54-1.62,3.14-3.18,4.72-4.76l1.18-1.17Z"/><path class="cls-2" d="M169.26,150.14c.08-.19-.18.46-.44,1.11a7.83,7.83,0,0,1-1.91-.83,19.59,19.59,0,0,1-2.42-2.4,7.08,7.08,0,0,1-.81-1.36h1.13a11.46,11.46,0,0,0,2.27,0C169.42,146.15,169.65,147.45,169.26,150.14Z"/><path class="cls-2" d="M54.37,132.81c.69.21,1.21.22,1.32.44a21.77,21.77,0,0,1,1.38,3.36c0,.18-.81.92-1,.84-1.33-.5-2.46-1.57-4.07-1.12-.13,0-.54-.51-.53-.52C52.43,134.76,53.47,133.72,54.37,132.81Z"/><path class="cls-3" d="M77.75,52.41c0-1.34,0-2.67,0-4,0-.73-.13-1.83.27-2.13,3.46-2.61,2.52-7.63,5.68-10.24a8.48,8.48,0,0,1,4.46-1.54,84.64,84.64,0,0,1,8.58-.06c3.27,0,4.84,1.86,5.1,5.19.31,4.13-1.92,7.94-1.26,12.13.21,1.37-1.57,1.89-3.6,1.35-.87-.23-2-.59-2.66-.23C90.12,55.21,84.92,55,81,58.06a1.75,1.75,0,0,1-1,.39c-1,0-2.42.5-2.31-1.46C77.82,55.46,77.75,53.93,77.75,52.41Z"/><path class="cls-3" d="M81.19,72.26c-.41-1.89.73-4.34-1-6.61-.75-1,.06-2.45,1.23-3.38,3.6-2.87,7.37-5.25,12.25-5,.57,0,1.14,0,1.71,0,1.3.07,2.79-.17,3.81.41.55.31,0,2.22.44,3.13a7.66,7.66,0,0,1,.08,7.73c-.63,1.18.09,3.23.52,4.8.81,3,.9,2.91-2,3.42a11.17,11.17,0,0,0-2.48.9c-1.73.75-3.32,1.74-5.4,1.42-1.41-.22-2.92-.37-4.15,1-.5.57-2.14,1-2.59.59-1.08-.87-2.64-1.59-2.45-3.51C81.31,75.74,81.19,74.2,81.19,72.26Z"/><path class="cls-3" d="M93.79,79.09A61.69,61.69,0,0,1,100,80.28a45.19,45.19,0,0,1,5.23,2.24c1,2.55,3.19,3.06,5.47,3.88a7.79,7.79,0,0,0,6.24,0c1.29-.56,2.91-.39,4.38-.4.81,0,2.1-.56,2.21.92.14,1.94-1.43,1.15-2.39,1.34-5,1-10.16,1.71-14.85,4-.54.27-1.69.45-1.87.19-2.28-3.27-6.1-1.85-9.09-2.89-2.57-.89-5.63.94-7.94,2.39-2.07,1.3-2.51-.4-2.69-1.07-1.35-5,2.37-10,7.6-10.73C92.85,80.12,93.3,79.47,93.79,79.09Z"/><path class="cls-3" d="M95.53,32.13a10.46,10.46,0,0,1-1.12,0c-.89-.09-1.78-.22-2.67-.33a14.14,14.14,0,0,1,2.11-1.92,6.13,6.13,0,0,1,2.87-1.1c1,0,2.73-1,2.85,1.39.09,2-.87,2.13-2.35,2A15.88,15.88,0,0,0,95.53,32.13Z"/><path class="cls-3" d="M88.12,98.56l-1.2-.81A8.28,8.28,0,0,1,88,96.29c.5-.46,1.24-1.15,1.72-1.05a11,11,0,0,1,2.7,1.39c-.51.64-.91,1.5-1.58,1.86S89.4,98.56,88.12,98.56Z"/><path class="cls-3" d="M77.75,37.81c0-.37-.15-.91,0-1.08a26,26,0,0,1,2.67-2.1c.1-.07.71.27.7.39a7.69,7.69,0,0,1-.38,2.6,5.1,5.1,0,0,1-1.53,1.58,7.44,7.44,0,0,1-1.16.7c-.11-.51-.23-1-.32-1.53A3.47,3.47,0,0,1,77.75,37.81Z"/><path class="cls-2" d="M121.29,132.92v-3.44c1.52-.2,2.44.07,2.34,2S122.29,132.83,121.29,132.92Z"/></g></g></g></svg>