<?xml version="1.0" encoding="utf-8"?>
<!-- Generator: Adobe Illustrator 16.0.0, SVG Export Plug-In . SVG Version: 6.00 Build 0)  -->
<!DOCTYPE svg PUBLIC "-//W3C//DTD SVG 1.1//EN" "http://www.w3.org/Graphics/SVG/1.1/DTD/svg11.dtd">
<svg version="1.1" id="Layer_1" xmlns="http://www.w3.org/2000/svg" xmlns:xlink="http://www.w3.org/1999/xlink" x="0px" y="0px"
	 width="64px" height="64px" viewBox="0 0 64 64" enable-background="new 0 0 64 64" xml:space="preserve">
<g>
	<circle fill="#bbbbbb" cx="32.28" cy="32.282" r="30.72"/>
</g>
<g>
	<g>
		<path fill="#FFFFFF" d="M48.379,28.021c0-3.871-3.139-7.009-7.01-7.009H23.19c-3.871,0-7.009,3.138-7.009,7.009v8.52
			c0,3.871,3.138,7.009,7.009,7.009h18.179c3.871,0,7.01-3.138,7.01-7.009V28.021z M36.908,32.71l-7.25,3.977
			c-0.314,0.171-0.599-0.058-0.599-0.416v-8.162c0-0.362,0.293-0.59,0.608-0.41l7.301,4.186
			C37.291,32.067,37.236,32.534,36.908,32.71z"/>
	</g>
</g>
</svg>
